<?xml version="1.0" encoding="UTF-8" standalone="no"?><svg xmlns="http://www.w3.org/2000/svg" xmlns:xlink="http://www.w3.org/1999/xlink" contentScriptType="application/ecmascript" contentStyleType="text/css" height="349px" preserveAspectRatio="none" style="width:1027px;height:349px;" version="1.1" viewBox="0 0 1027 349" width="1027px" zoomAndPan="magnify"><defs><filter height="300%" id="fwpkm9kzq3vz8" width="300%" x="-1" y="-1"><feGaussianBlur result="blurOut" stdDeviation="2.0"/><feColorMatrix in="blurOut" result="blurOut2" type="matrix" values="0 0 0 0 0 0 0 0 0 0 0 0 0 0 0 0 0 0 .4 0"/><feOffset dx="4.0" dy="4.0" in="blurOut2" result="blurOut3"/><feBlend in="SourceGraphic" in2="blurOut3" mode="normal"/></filter></defs><g><!--MD5=[b7f7f69dc7a77d994999c0db88617c04]
class RedoCommand--><a href="java:usantatecla.mastermind.views.RedoCommand" target="_top" title="java:usantatecla.mastermind.views.RedoCommand" xlink:actuate="onRequest" xlink:href="java:usantatecla.mastermind.views.RedoCommand" xlink:show="new" xlink:title="java:usantatecla.mastermind.views.RedoCommand" xlink:type="simple"><rect codeLine="1" fill="#FEFECE" filter="url(#fwpkm9kzq3vz8)" height="86.4141" id="RedoCommand" style="stroke:#A80036;stroke-width:1.5;" width="282" x="9" y="249"/><ellipse cx="100.25" cy="265" fill="#ADD1B2" rx="11" ry="11" style="stroke:#A80036;stroke-width:1.0;"/><path d="M102.5938,260.6719 C101.6563,260.2344 101.0625,260.0938 100.1875,260.0938 C97.5625,260.0938 95.5625,262.1719 95.5625,264.8906 L95.5625,266.0156 C95.5625,268.5938 97.6719,270.4844 100.5625,270.4844 C101.7813,270.4844 102.9375,270.1875 103.6875,269.6406 C104.2656,269.2344 104.5938,268.7813 104.5938,268.3906 C104.5938,267.9375 104.2031,267.5469 103.7344,267.5469 C103.5156,267.5469 103.3125,267.625 103.125,267.8125 C102.6719,268.2969 102.6719,268.2969 102.4844,268.3906 C102.0625,268.6563 101.375,268.7813 100.6094,268.7813 C98.5625,268.7813 97.2656,267.6875 97.2656,265.9844 L97.2656,264.8906 C97.2656,263.1094 98.5156,261.7969 100.25,261.7969 C100.8281,261.7969 101.4375,261.9531 101.9063,262.2031 C102.3906,262.4844 102.5625,262.7031 102.6563,263.1094 C102.7188,263.5156 102.75,263.6406 102.8906,263.7656 C103.0313,263.9063 103.2656,264.0156 103.4844,264.0156 C103.75,264.0156 104.0156,263.875 104.1875,263.6563 C104.2969,263.5 104.3281,263.3125 104.3281,262.8906 L104.3281,261.4688 C104.3281,261.0313 104.3125,260.9063 104.2188,260.75 C104.0625,260.4844 103.7813,260.3438 103.4844,260.3438 C103.1875,260.3438 102.9844,260.4375 102.7656,260.75 L102.5938,260.6719 Z " fill="#000000"/><text fill="#000000" font-family="sans-serif" font-size="12" lengthAdjust="spacingAndGlyphs" textLength="91" x="120.75" y="269.1543">RedoCommand</text><line style="stroke:#A80036;stroke-width:1.5;" x1="10" x2="290" y1="281" y2="281"/><line style="stroke:#A80036;stroke-width:1.5;" x1="10" x2="290" y1="289" y2="289"/><polygon fill="#4177AF" points="20,296,16,302,24,302" style="stroke:#1963A0;stroke-width:1.0;"/><text fill="#000000" font-family="sans-serif" font-size="11" lengthAdjust="spacingAndGlyphs" textLength="256" x="29" y="303.2104">RedoCommand(PlayController playController)</text><polygon fill="#FFFF44" points="20,307.8047,24,311.8047,20,315.8047,16,311.8047" style="stroke:#B38D22;stroke-width:1.0;"/><text fill="#000000" font-family="sans-serif" font-size="11" lengthAdjust="spacingAndGlyphs" textLength="84" x="29" y="316.0151">void execute()</text><polygon fill="#FFFF44" points="20,320.6094,24,324.6094,20,328.6094,16,324.6094" style="stroke:#B38D22;stroke-width:1.0;"/><text fill="#000000" font-family="sans-serif" font-size="11" lengthAdjust="spacingAndGlyphs" textLength="103" x="29" y="328.8198">boolean isActive()</text></a><!--MD5=[521817ab83e81da341a3f4b5e91bae41]
class Command--><a href="java:usantatecla.mastermind.views.Command" target="_top" title="java:usantatecla.mastermind.views.Command" xlink:actuate="onRequest" xlink:href="java:usantatecla.mastermind.views.Command" xlink:show="new" xlink:title="java:usantatecla.mastermind.views.Command" xlink:type="simple"><rect codeLine="29" fill="#FEFECE" filter="url(#fwpkm9kzq3vz8)" height="73.6094" id="Command" style="stroke:#A80036;stroke-width:1.5;" width="319" x="351.5" y="115"/><ellipse cx="476.75" cy="131" fill="#ADD1B2" rx="11" ry="11" style="stroke:#A80036;stroke-width:1.0;"/><path d="M479.0938,126.6719 C478.1563,126.2344 477.5625,126.0938 476.6875,126.0938 C474.0625,126.0938 472.0625,128.1719 472.0625,130.8906 L472.0625,132.0156 C472.0625,134.5938 474.1719,136.4844 477.0625,136.4844 C478.2813,136.4844 479.4375,136.1875 480.1875,135.6406 C480.7656,135.2344 481.0938,134.7813 481.0938,134.3906 C481.0938,133.9375 480.7031,133.5469 480.2344,133.5469 C480.0156,133.5469 479.8125,133.625 479.625,133.8125 C479.1719,134.2969 479.1719,134.2969 478.9844,134.3906 C478.5625,134.6563 477.875,134.7813 477.1094,134.7813 C475.0625,134.7813 473.7656,133.6875 473.7656,131.9844 L473.7656,130.8906 C473.7656,129.1094 475.0156,127.7969 476.75,127.7969 C477.3281,127.7969 477.9375,127.9531 478.4063,128.2031 C478.8906,128.4844 479.0625,128.7031 479.1563,129.1094 C479.2188,129.5156 479.25,129.6406 479.3906,129.7656 C479.5313,129.9063 479.7656,130.0156 479.9844,130.0156 C480.25,130.0156 480.5156,129.875 480.6875,129.6563 C480.7969,129.5 480.8281,129.3125 480.8281,128.8906 L480.8281,127.4688 C480.8281,127.0313 480.8125,126.9063 480.7188,126.75 C480.5625,126.4844 480.2813,126.3438 479.9844,126.3438 C479.6875,126.3438 479.4844,126.4375 479.2656,126.75 L479.0938,126.6719 Z " fill="#000000"/><text fill="#000000" font-family="sans-serif" font-size="12" lengthAdjust="spacingAndGlyphs" textLength="60" x="497.25" y="135.1543">Command</text><line style="stroke:#A80036;stroke-width:1.5;" x1="352.5" x2="669.5" y1="147" y2="147"/><polygon fill="none" points="362.5,153,366.5,157,362.5,161,358.5,157" style="stroke:#B38D22;stroke-width:1.0;"/><text fill="#000000" font-family="sans-serif" font-size="11" lengthAdjust="spacingAndGlyphs" textLength="161" x="371.5" y="161.2104">PlayController playController</text><line style="stroke:#A80036;stroke-width:1.5;" x1="352.5" x2="669.5" y1="167.8047" y2="167.8047"/><polygon fill="#FFFF44" points="362.5,173.8047,366.5,177.8047,362.5,181.8047,358.5,177.8047" style="stroke:#B38D22;stroke-width:1.0;"/><text fill="#000000" font-family="sans-serif" font-size="11" lengthAdjust="spacingAndGlyphs" textLength="293" x="371.5" y="182.0151">Command(String title, PlayController playController)</text></a><!--MD5=[22448a64559912295e431ea1c795f0a4]
class usantatecla_utils_Command--><a href="java:usantatecla.utils.Command" target="_top" title="java:usantatecla.utils.Command" xlink:actuate="onRequest" xlink:href="java:usantatecla.utils.Command" xlink:show="new" xlink:title="java:usantatecla.utils.Command" xlink:type="simple"><rect codeLine="13" fill="#FEFECE" filter="url(#fwpkm9kzq3vz8)" height="48" id="usantatecla_utils_Command" style="stroke:#A80036;stroke-width:1.5;" width="190" x="416" y="7"/><ellipse cx="431" cy="23" fill="#ADD1B2" rx="11" ry="11" style="stroke:#A80036;stroke-width:1.0;"/><path d="M433.3438,18.6719 C432.4063,18.2344 431.8125,18.0938 430.9375,18.0938 C428.3125,18.0938 426.3125,20.1719 426.3125,22.8906 L426.3125,24.0156 C426.3125,26.5938 428.4219,28.4844 431.3125,28.4844 C432.5313,28.4844 433.6875,28.1875 434.4375,27.6406 C435.0156,27.2344 435.3438,26.7813 435.3438,26.3906 C435.3438,25.9375 434.9531,25.5469 434.4844,25.5469 C434.2656,25.5469 434.0625,25.625 433.875,25.8125 C433.4219,26.2969 433.4219,26.2969 433.2344,26.3906 C432.8125,26.6563 432.125,26.7813 431.3594,26.7813 C429.3125,26.7813 428.0156,25.6875 428.0156,23.9844 L428.0156,22.8906 C428.0156,21.1094 429.2656,19.7969 431,19.7969 C431.5781,19.7969 432.1875,19.9531 432.6563,20.2031 C433.1406,20.4844 433.3125,20.7031 433.4063,21.1094 C433.4688,21.5156 433.5,21.6406 433.6406,21.7656 C433.7813,21.9063 434.0156,22.0156 434.2344,22.0156 C434.5,22.0156 434.7656,21.875 434.9375,21.6563 C435.0469,21.5 435.0781,21.3125 435.0781,20.8906 L435.0781,19.4688 C435.0781,19.0313 435.0625,18.9063 434.9688,18.75 C434.8125,18.4844 434.5313,18.3438 434.2344,18.3438 C433.9375,18.3438 433.7344,18.4375 433.5156,18.75 L433.3438,18.6719 Z " fill="#000000"/><text fill="#000000" font-family="sans-serif" font-size="12" lengthAdjust="spacingAndGlyphs" textLength="158" x="445" y="27.1543">usantatecla.utils.Command</text><line style="stroke:#A80036;stroke-width:1.5;" x1="417" x2="605" y1="39" y2="39"/><line style="stroke:#A80036;stroke-width:1.5;" x1="417" x2="605" y1="47" y2="47"/></a><!--MD5=[7aa4ef1fbacb7b9878b58563925df344]
class ProposeCombinationCommand--><a href="java:usantatecla.mastermind.views.ProposeCombinationCommand" target="_top" title="java:usantatecla.mastermind.views.ProposeCombinationCommand" xlink:actuate="onRequest" xlink:href="java:usantatecla.mastermind.views.ProposeCombinationCommand" xlink:show="new" xlink:title="java:usantatecla.mastermind.views.ProposeCombinationCommand" xlink:type="simple"><rect codeLine="16" fill="#FEFECE" filter="url(#fwpkm9kzq3vz8)" height="86.4141" id="ProposeCombinationCommand" style="stroke:#A80036;stroke-width:1.5;" width="369" x="326.5" y="249"/><ellipse cx="414.75" cy="265" fill="#ADD1B2" rx="11" ry="11" style="stroke:#A80036;stroke-width:1.0;"/><path d="M417.0938,260.6719 C416.1563,260.2344 415.5625,260.0938 414.6875,260.0938 C412.0625,260.0938 410.0625,262.1719 410.0625,264.8906 L410.0625,266.0156 C410.0625,268.5938 412.1719,270.4844 415.0625,270.4844 C416.2813,270.4844 417.4375,270.1875 418.1875,269.6406 C418.7656,269.2344 419.0938,268.7813 419.0938,268.3906 C419.0938,267.9375 418.7031,267.5469 418.2344,267.5469 C418.0156,267.5469 417.8125,267.625 417.625,267.8125 C417.1719,268.2969 417.1719,268.2969 416.9844,268.3906 C416.5625,268.6563 415.875,268.7813 415.1094,268.7813 C413.0625,268.7813 411.7656,267.6875 411.7656,265.9844 L411.7656,264.8906 C411.7656,263.1094 413.0156,261.7969 414.75,261.7969 C415.3281,261.7969 415.9375,261.9531 416.4063,262.2031 C416.8906,262.4844 417.0625,262.7031 417.1563,263.1094 C417.2188,263.5156 417.25,263.6406 417.3906,263.7656 C417.5313,263.9063 417.7656,264.0156 417.9844,264.0156 C418.25,264.0156 418.5156,263.875 418.6875,263.6563 C418.7969,263.5 418.8281,263.3125 418.8281,262.8906 L418.8281,261.4688 C418.8281,261.0313 418.8125,260.9063 418.7188,260.75 C418.5625,260.4844 418.2813,260.3438 417.9844,260.3438 C417.6875,260.3438 417.4844,260.4375 417.2656,260.75 L417.0938,260.6719 Z " fill="#000000"/><text fill="#000000" font-family="sans-serif" font-size="12" lengthAdjust="spacingAndGlyphs" textLength="184" x="435.25" y="269.1543">ProposeCombinationCommand</text><line style="stroke:#A80036;stroke-width:1.5;" x1="327.5" x2="694.5" y1="281" y2="281"/><line style="stroke:#A80036;stroke-width:1.5;" x1="327.5" x2="694.5" y1="289" y2="289"/><polygon fill="#4177AF" points="337.5,296,333.5,302,341.5,302" style="stroke:#1963A0;stroke-width:1.0;"/><text fill="#000000" font-family="sans-serif" font-size="11" lengthAdjust="spacingAndGlyphs" textLength="343" x="346.5" y="303.2104">ProposeCombinationCommand(PlayController playController)</text><polygon fill="#FFFF44" points="337.5,307.8047,341.5,311.8047,337.5,315.8047,333.5,311.8047" style="stroke:#B38D22;stroke-width:1.0;"/><text fill="#000000" font-family="sans-serif" font-size="11" lengthAdjust="spacingAndGlyphs" textLength="84" x="346.5" y="316.0151">void execute()</text><polygon fill="#FFFF44" points="337.5,320.6094,341.5,324.6094,337.5,328.6094,333.5,324.6094" style="stroke:#B38D22;stroke-width:1.0;"/><text fill="#000000" font-family="sans-serif" font-size="11" lengthAdjust="spacingAndGlyphs" textLength="103" x="346.5" y="328.8198">boolean isActive()</text></a><!--MD5=[74b8563e5f08ffa68154868b9ae405e2]
class UndoCommand--><a href="java:usantatecla.mastermind.views.UndoCommand" target="_top" title="java:usantatecla.mastermind.views.UndoCommand" xlink:actuate="onRequest" xlink:href="java:usantatecla.mastermind.views.UndoCommand" xlink:show="new" xlink:title="java:usantatecla.mastermind.views.UndoCommand" xlink:type="simple"><rect codeLine="24" fill="#FEFECE" filter="url(#fwpkm9kzq3vz8)" height="86.4141" id="UndoCommand" style="stroke:#A80036;stroke-width:1.5;" width="282" x="731" y="249"/><ellipse cx="821.75" cy="265" fill="#ADD1B2" rx="11" ry="11" style="stroke:#A80036;stroke-width:1.0;"/><path d="M824.0938,260.6719 C823.1563,260.2344 822.5625,260.0938 821.6875,260.0938 C819.0625,260.0938 817.0625,262.1719 817.0625,264.8906 L817.0625,266.0156 C817.0625,268.5938 819.1719,270.4844 822.0625,270.4844 C823.2813,270.4844 824.4375,270.1875 825.1875,269.6406 C825.7656,269.2344 826.0938,268.7813 826.0938,268.3906 C826.0938,267.9375 825.7031,267.5469 825.2344,267.5469 C825.0156,267.5469 824.8125,267.625 824.625,267.8125 C824.1719,268.2969 824.1719,268.2969 823.9844,268.3906 C823.5625,268.6563 822.875,268.7813 822.1094,268.7813 C820.0625,268.7813 818.7656,267.6875 818.7656,265.9844 L818.7656,264.8906 C818.7656,263.1094 820.0156,261.7969 821.75,261.7969 C822.3281,261.7969 822.9375,261.9531 823.4063,262.2031 C823.8906,262.4844 824.0625,262.7031 824.1563,263.1094 C824.2188,263.5156 824.25,263.6406 824.3906,263.7656 C824.5313,263.9063 824.7656,264.0156 824.9844,264.0156 C825.25,264.0156 825.5156,263.875 825.6875,263.6563 C825.7969,263.5 825.8281,263.3125 825.8281,262.8906 L825.8281,261.4688 C825.8281,261.0313 825.8125,260.9063 825.7188,260.75 C825.5625,260.4844 825.2813,260.3438 824.9844,260.3438 C824.6875,260.3438 824.4844,260.4375 824.2656,260.75 L824.0938,260.6719 Z " fill="#000000"/><text fill="#000000" font-family="sans-serif" font-size="12" lengthAdjust="spacingAndGlyphs" textLength="92" x="842.25" y="269.1543">UndoCommand</text><line style="stroke:#A80036;stroke-width:1.5;" x1="732" x2="1012" y1="281" y2="281"/><line style="stroke:#A80036;stroke-width:1.5;" x1="732" x2="1012" y1="289" y2="289"/><polygon fill="#4177AF" points="742,296,738,302,746,302" style="stroke:#1963A0;stroke-width:1.0;"/><text fill="#000000" font-family="sans-serif" font-size="11" lengthAdjust="spacingAndGlyphs" textLength="256" x="751" y="303.2104">UndoCommand(PlayController playController)</text><polygon fill="#FFFF44" points="742,307.8047,746,311.8047,742,315.8047,738,311.8047" style="stroke:#B38D22;stroke-width:1.0;"/><text fill="#000000" font-family="sans-serif" font-size="11" lengthAdjust="spacingAndGlyphs" textLength="84" x="751" y="316.0151">void execute()</text><polygon fill="#FFFF44" points="742,320.6094,746,324.6094,742,328.6094,738,324.6094" style="stroke:#B38D22;stroke-width:1.0;"/><text fill="#000000" font-family="sans-serif" font-size="11" lengthAdjust="spacingAndGlyphs" textLength="103" x="751" y="328.8198">boolean isActive()</text></a><!--MD5=[0350d01867a02733e95625c39ef75c31]
reverse link Command to RedoCommand--><path codeLine="8" d="M397.89,196.239 C353.954,213.034 303.798,232.207 260.149,248.8931 " fill="none" id="Command-backto-RedoCommand" style="stroke:#A80036;stroke-width:1.0;"/><polygon fill="none" points="395.442,189.681,416.623,189.078,400.441,202.758,395.442,189.681" style="stroke:#A80036;stroke-width:1.0;"/><!--MD5=[3d90926eeb094d64716672e20a6f1239]
reverse link usantatecla_utils_Command to Command--><path codeLine="15" d="M511,75.433 C511,88.332 511,102.32 511,114.714 " fill="none" id="usantatecla_utils_Command-backto-Command" style="stroke:#A80036;stroke-width:1.0;"/><polygon fill="none" points="504,75.227,511,55.227,518,75.227,504,75.227" style="stroke:#A80036;stroke-width:1.0;"/><!--MD5=[575f7520dfbab66d681f7cfc6d8080ea]
reverse link Command to ProposeCombinationCommand--><path codeLine="23" d="M511,209.619 C511,222.659 511,236.3087 511,248.6223 " fill="none" id="Command-backto-ProposeCombinationCommand" style="stroke:#A80036;stroke-width:1.0;"/><polygon fill="none" points="504,209.258,511,189.258,518,209.258,504,209.258" style="stroke:#A80036;stroke-width:1.0;"/><!--MD5=[3fd1dfb99e3d09b0593597e8711335a6]
reverse link Command to UndoCommand--><path codeLine="31" d="M624.11,196.239 C668.046,213.034 718.202,232.207 761.851,248.8931 " fill="none" id="Command-backto-UndoCommand" style="stroke:#A80036;stroke-width:1.0;"/><polygon fill="none" points="621.559,202.758,605.377,189.078,626.558,189.681,621.559,202.758" style="stroke:#A80036;stroke-width:1.0;"/><!--MD5=[965561a22a89c92826ba990112462c48]
@startuml
class RedoCommand [[java:usantatecla.mastermind.views.RedoCommand]] {
	~RedoCommand(PlayController playController)
	#void execute()
	#boolean isActive()
}
class Command [[java:usantatecla.mastermind.views.Command]] {
}
Command <|- - RedoCommand
abstract class Command [[java:usantatecla.mastermind.views.Command]] {
	#PlayController playController
	#Command(String title, PlayController playController)
}
class "usantatecla.utils.Command" as usantatecla_utils_Command [[java:usantatecla.utils.Command]] {
}
usantatecla_utils_Command <|- - Command
class ProposeCombinationCommand [[java:usantatecla.mastermind.views.ProposeCombinationCommand]] {
	~ProposeCombinationCommand(PlayController playController)
	#void execute()
	#boolean isActive()
}
class Command [[java:usantatecla.mastermind.views.Command]] {
}
Command <|- - ProposeCombinationCommand
class UndoCommand [[java:usantatecla.mastermind.views.UndoCommand]] {
	~UndoCommand(PlayController playController)
	#void execute()
	#boolean isActive()
}
class Command [[java:usantatecla.mastermind.views.Command]] {
}
Command <|- - UndoCommand
@enduml

PlantUML version 1.2020.22(Sun Dec 06 09:36:27 UTC 2020)
(GPL source distribution)
Java Runtime: Java(TM) SE Runtime Environment
JVM: Java HotSpot(TM) 64-Bit Server VM
Default Encoding: UTF-8
Language: en
Country: US
--></g></svg>