<?xml version="1.0" encoding="UTF-8" standalone="no"?><svg xmlns="http://www.w3.org/2000/svg" xmlns:xlink="http://www.w3.org/1999/xlink" contentScriptType="application/ecmascript" contentStyleType="text/css" height="222px" preserveAspectRatio="none" style="width:232px;height:222px;" version="1.1" viewBox="0 0 232 222" width="232px" zoomAndPan="magnify"><defs><filter height="300%" id="f1lx2p0r5amyld" width="300%" x="-1" y="-1"><feGaussianBlur result="blurOut" stdDeviation="2.0"/><feColorMatrix in="blurOut" result="blurOut2" type="matrix" values="0 0 0 0 0 0 0 0 0 0 0 0 0 0 0 0 0 0 .4 0"/><feOffset dx="4.0" dy="4.0" in="blurOut2" result="blurOut3"/><feBlend in="SourceGraphic" in2="blurOut3" mode="normal"/></filter></defs><g><!--MD5=[315b61b427ec618d6861d47eee00cca3]
class Console--><a href="java:usantatecla.utils.Console" target="_top" title="java:usantatecla.utils.Console" xlink:actuate="onRequest" xlink:href="java:usantatecla.utils.Console" xlink:show="new" xlink:title="java:usantatecla.utils.Console" xlink:type="simple"><rect codeLine="1" fill="#FEFECE" filter="url(#f1lx2p0r5amyld)" height="201.6563" id="Console" style="stroke:#A80036;stroke-width:1.5;" width="211" x="7" y="7"/><ellipse cx="83.75" cy="23" fill="#ADD1B2" rx="11" ry="11" style="stroke:#A80036;stroke-width:1.0;"/><path d="M86.0938,18.6719 C85.1563,18.2344 84.5625,18.0938 83.6875,18.0938 C81.0625,18.0938 79.0625,20.1719 79.0625,22.8906 L79.0625,24.0156 C79.0625,26.5938 81.1719,28.4844 84.0625,28.4844 C85.2813,28.4844 86.4375,28.1875 87.1875,27.6406 C87.7656,27.2344 88.0938,26.7813 88.0938,26.3906 C88.0938,25.9375 87.7031,25.5469 87.2344,25.5469 C87.0156,25.5469 86.8125,25.625 86.625,25.8125 C86.1719,26.2969 86.1719,26.2969 85.9844,26.3906 C85.5625,26.6563 84.875,26.7813 84.1094,26.7813 C82.0625,26.7813 80.7656,25.6875 80.7656,23.9844 L80.7656,22.8906 C80.7656,21.1094 82.0156,19.7969 83.75,19.7969 C84.3281,19.7969 84.9375,19.9531 85.4063,20.2031 C85.8906,20.4844 86.0625,20.7031 86.1563,21.1094 C86.2188,21.5156 86.25,21.6406 86.3906,21.7656 C86.5313,21.9063 86.7656,22.0156 86.9844,22.0156 C87.25,22.0156 87.5156,21.875 87.6875,21.6563 C87.7969,21.5 87.8281,21.3125 87.8281,20.8906 L87.8281,19.4688 C87.8281,19.0313 87.8125,18.9063 87.7188,18.75 C87.5625,18.4844 87.2813,18.3438 86.9844,18.3438 C86.6875,18.3438 86.4844,18.4375 86.2656,18.75 L86.0938,18.6719 Z " fill="#000000"/><text fill="#000000" font-family="sans-serif" font-size="12" lengthAdjust="spacingAndGlyphs" textLength="49" x="104.25" y="27.1543">Console</text><line style="stroke:#A80036;stroke-width:1.5;" x1="8" x2="217" y1="39" y2="39"/><rect fill="none" height="6" style="stroke:#C82930;stroke-width:1.0;" width="6" x="15" y="47"/><text fill="#000000" font-family="sans-serif" font-size="11" lengthAdjust="spacingAndGlyphs" text-decoration="underline" textLength="94" x="27" y="53.2104">Console console</text><rect fill="none" height="6" style="stroke:#C82930;stroke-width:1.0;" width="6" x="15" y="59.8047"/><text fill="#000000" font-family="sans-serif" font-size="11" lengthAdjust="spacingAndGlyphs" textLength="185" x="27" y="66.0151">BufferedReader bufferedReader</text><line style="stroke:#A80036;stroke-width:1.5;" x1="8" x2="217" y1="72.6094" y2="72.6094"/><ellipse cx="18" cy="83.6094" fill="#84BE84" rx="3" ry="3" style="stroke:#038048;stroke-width:1.0;"/><text fill="#000000" font-family="sans-serif" font-size="11" lengthAdjust="spacingAndGlyphs" text-decoration="underline" textLength="106" x="27" y="86.8198">Console instance()</text><ellipse cx="18" cy="96.4141" fill="#84BE84" rx="3" ry="3" style="stroke:#038048;stroke-width:1.0;"/><text fill="#000000" font-family="sans-serif" font-size="11" lengthAdjust="spacingAndGlyphs" textLength="163" x="27" y="99.6245">String readString(String title)</text><ellipse cx="18" cy="109.2188" fill="#84BE84" rx="3" ry="3" style="stroke:#038048;stroke-width:1.0;"/><text fill="#000000" font-family="sans-serif" font-size="11" lengthAdjust="spacingAndGlyphs" textLength="104" x="27" y="112.4292">String readString()</text><ellipse cx="18" cy="122.0234" fill="#84BE84" rx="3" ry="3" style="stroke:#038048;stroke-width:1.0;"/><text fill="#000000" font-family="sans-serif" font-size="11" lengthAdjust="spacingAndGlyphs" textLength="125" x="27" y="125.2339">int readInt(String title)</text><ellipse cx="18" cy="134.8281" fill="#84BE84" rx="3" ry="3" style="stroke:#038048;stroke-width:1.0;"/><text fill="#000000" font-family="sans-serif" font-size="11" lengthAdjust="spacingAndGlyphs" textLength="147" x="27" y="138.0386">char readChar(String title)</text><ellipse cx="18" cy="147.6328" fill="#84BE84" rx="3" ry="3" style="stroke:#038048;stroke-width:1.0;"/><text fill="#000000" font-family="sans-serif" font-size="11" lengthAdjust="spacingAndGlyphs" textLength="74" x="27" y="150.8433">void writeln()</text><ellipse cx="18" cy="160.4375" fill="#84BE84" rx="3" ry="3" style="stroke:#038048;stroke-width:1.0;"/><text fill="#000000" font-family="sans-serif" font-size="11" lengthAdjust="spacingAndGlyphs" textLength="132" x="27" y="163.6479">void write(String string)</text><ellipse cx="18" cy="173.2422" fill="#84BE84" rx="3" ry="3" style="stroke:#038048;stroke-width:1.0;"/><text fill="#000000" font-family="sans-serif" font-size="11" lengthAdjust="spacingAndGlyphs" textLength="142" x="27" y="176.4526">void writeln(String string)</text><ellipse cx="18" cy="186.0469" fill="#84BE84" rx="3" ry="3" style="stroke:#038048;stroke-width:1.0;"/><text fill="#000000" font-family="sans-serif" font-size="11" lengthAdjust="spacingAndGlyphs" textLength="145" x="27" y="189.2573">void write(char character)</text><rect fill="#F24D5C" height="6" style="stroke:#C82930;stroke-width:1.0;" width="6" x="15" y="195.8516"/><text fill="#000000" font-family="sans-serif" font-size="11" lengthAdjust="spacingAndGlyphs" textLength="164" x="27" y="202.062">void writeError(String format)</text></a><!--MD5=[fede8175a569c8927ef68157e3fedc19]
@startuml
class Console [[java:usantatecla.utils.Console]] {
	-{static}Console console
	-BufferedReader bufferedReader
	+{static}Console instance()
	+String readString(String title)
	+String readString()
	+int readInt(String title)
	+char readChar(String title)
	+void writeln()
	+void write(String string)
	+void writeln(String string)
	+void write(char character)
	-void writeError(String format)
}
@enduml

PlantUML version 1.2020.22(Sun Dec 06 09:36:27 UTC 2020)
(GPL source distribution)
Java Runtime: Java(TM) SE Runtime Environment
JVM: Java HotSpot(TM) 64-Bit Server VM
Default Encoding: UTF-8
Language: en
Country: US
--></g></svg>