<?xml version="1.0" encoding="UTF-8" standalone="no"?><svg xmlns="http://www.w3.org/2000/svg" xmlns:xlink="http://www.w3.org/1999/xlink" contentScriptType="application/ecmascript" contentStyleType="text/css" height="617px" preserveAspectRatio="none" style="width:1981px;height:617px;" version="1.1" viewBox="0 0 1981 617" width="1981px" zoomAndPan="magnify"><defs><filter height="300%" id="ffsegmswne53y" width="300%" x="-1" y="-1"><feGaussianBlur result="blurOut" stdDeviation="2.0"/><feColorMatrix in="blurOut" result="blurOut2" type="matrix" values="0 0 0 0 0 0 0 0 0 0 0 0 0 0 0 0 0 0 .4 0"/><feOffset dx="4.0" dy="4.0" in="blurOut2" result="blurOut3"/><feBlend in="SourceGraphic" in2="blurOut3" mode="normal"/></filter></defs><g><!--MD5=[cc8600b868f8dfab2c8d497bce62f90a]
class PlayController--><a href="java:usantatecla.mastermind.controllers.PlayController" target="_top" title="java:usantatecla.mastermind.controllers.PlayController" xlink:actuate="onRequest" xlink:href="java:usantatecla.mastermind.controllers.PlayController" xlink:show="new" xlink:title="java:usantatecla.mastermind.controllers.PlayController" xlink:type="simple"><rect codeLine="1" fill="#FEFECE" filter="url(#ffsegmswne53y)" height="214.4609" id="PlayController" style="stroke:#A80036;stroke-width:1.5;" width="459" x="7" y="389"/><ellipse cx="191.25" cy="405" fill="#A9DCDF" rx="11" ry="11" style="stroke:#A80036;stroke-width:1.0;"/><path d="M193.3281,406.8125 L193.7188,407.7969 L193.3281,407.7969 C192.875,407.7969 192.7656,407.8125 192.6094,407.9219 C192.3594,408.0781 192.2031,408.3594 192.2031,408.6563 C192.2031,408.9219 192.3438,409.1719 192.5625,409.3281 C192.7031,409.4531 192.9063,409.5 193.3281,409.5 L195.6875,409.5 C196.0469,409.5 196.2656,409.4688 196.4063,409.375 C196.6563,409.2344 196.8125,408.9375 196.8125,408.6563 C196.8125,408.375 196.6719,408.125 196.4531,407.9688 C196.2813,407.8281 196.125,407.7969 195.6563,407.7969 L192.2656,399.5938 L188.5938,399.5938 C188.1406,399.5938 188.0156,399.6094 187.8594,399.7031 C187.6094,399.875 187.4531,400.1563 187.4531,400.4375 C187.4531,400.7188 187.5938,400.9688 187.8125,401.1406 C187.9844,401.25 188.1563,401.2813 188.5938,401.2813 L189.6719,401.2813 L187.0313,407.7969 C186.6094,407.7969 186.4531,407.8125 186.2969,407.9219 C186.0469,408.0781 185.8906,408.3594 185.8906,408.6563 C185.8906,409.2188 186.2656,409.5 187.0156,409.5 L189.2813,409.5 C189.6406,409.5 189.8594,409.4688 189.9844,409.375 C190.25,409.2344 190.3906,408.9375 190.3906,408.6563 C190.3906,408.375 190.2656,408.125 190.0469,407.9531 C189.875,407.8281 189.7344,407.7969 189.2813,407.7969 L188.8906,407.7969 L189.2813,406.8125 L193.3281,406.8125 Z M192.625,405.1094 L189.9531,405.1094 L191.2969,401.8438 L192.625,405.1094 Z " fill="#000000"/><text fill="#000000" font-family="sans-serif" font-size="12" font-style="italic" lengthAdjust="spacingAndGlyphs" textLength="82" x="211.75" y="409.1543">PlayController</text><line style="stroke:#A80036;stroke-width:1.5;" x1="8" x2="465" y1="421" y2="421"/><line style="stroke:#A80036;stroke-width:1.5;" x1="8" x2="465" y1="429" y2="429"/><ellipse cx="18" cy="440" fill="#84BE84" rx="3" ry="3" style="stroke:#038048;stroke-width:1.0;"/><text fill="#000000" font-family="sans-serif" font-size="11" lengthAdjust="spacingAndGlyphs" textLength="178" x="27" y="443.2104">PlayController(Session session)</text><ellipse cx="18" cy="452.8047" fill="#84BE84" rx="3" ry="3" style="stroke:#038048;stroke-width:1.0;"/><text fill="#000000" font-family="sans-serif" font-size="11" lengthAdjust="spacingAndGlyphs" textLength="256" x="27" y="456.0151">void accept(ControllerVisitor controllerVisitor)</text><ellipse cx="18" cy="465.6094" fill="#84BE84" rx="3" ry="3" style="stroke:#038048;stroke-width:1.0;"/><text fill="#000000" font-family="sans-serif" font-size="11" font-style="italic" lengthAdjust="spacingAndGlyphs" textLength="64" x="27" y="468.8198">void undo()</text><ellipse cx="18" cy="478.4141" fill="#84BE84" rx="3" ry="3" style="stroke:#038048;stroke-width:1.0;"/><text fill="#000000" font-family="sans-serif" font-size="11" font-style="italic" lengthAdjust="spacingAndGlyphs" textLength="62" x="27" y="481.6245">void redo()</text><ellipse cx="18" cy="491.2188" fill="#84BE84" rx="3" ry="3" style="stroke:#038048;stroke-width:1.0;"/><text fill="#000000" font-family="sans-serif" font-size="11" font-style="italic" lengthAdjust="spacingAndGlyphs" textLength="109" x="27" y="494.4292">boolean undoable()</text><ellipse cx="18" cy="504.0234" fill="#84BE84" rx="3" ry="3" style="stroke:#038048;stroke-width:1.0;"/><text fill="#000000" font-family="sans-serif" font-size="11" font-style="italic" lengthAdjust="spacingAndGlyphs" textLength="107" x="27" y="507.2339">boolean redoable()</text><ellipse cx="18" cy="516.8281" fill="#84BE84" rx="3" ry="3" style="stroke:#038048;stroke-width:1.0;"/><text fill="#000000" font-family="sans-serif" font-size="11" font-style="italic" lengthAdjust="spacingAndGlyphs" textLength="106" x="27" y="520.0386">boolean isWinner()</text><ellipse cx="18" cy="529.6328" fill="#84BE84" rx="3" ry="3" style="stroke:#038048;stroke-width:1.0;"/><text fill="#000000" font-family="sans-serif" font-size="11" font-style="italic" lengthAdjust="spacingAndGlyphs" textLength="104" x="27" y="532.8433">boolean isLooser()</text><ellipse cx="18" cy="542.4375" fill="#84BE84" rx="3" ry="3" style="stroke:#038048;stroke-width:1.0;"/><text fill="#000000" font-family="sans-serif" font-size="11" font-style="italic" lengthAdjust="spacingAndGlyphs" textLength="95" x="27" y="545.6479">int getAttempts()</text><ellipse cx="18" cy="555.2422" fill="#84BE84" rx="3" ry="3" style="stroke:#038048;stroke-width:1.0;"/><text fill="#000000" font-family="sans-serif" font-size="11" font-style="italic" lengthAdjust="spacingAndGlyphs" textLength="299" x="27" y="558.4526">ProposedCombination getProposedCombination(int i)</text><ellipse cx="18" cy="568.0469" fill="#84BE84" rx="3" ry="3" style="stroke:#038048;stroke-width:1.0;"/><text fill="#000000" font-family="sans-serif" font-size="11" font-style="italic" lengthAdjust="spacingAndGlyphs" textLength="121" x="27" y="571.2573">Result getResult(int i)</text><ellipse cx="18" cy="580.8516" fill="#84BE84" rx="3" ry="3" style="stroke:#038048;stroke-width:1.0;"/><text fill="#000000" font-family="sans-serif" font-size="11" font-style="italic" lengthAdjust="spacingAndGlyphs" textLength="433" x="27" y="584.062">void addProposedCombination(ProposedCombination proposedCombination)</text><ellipse cx="18" cy="593.6563" fill="#84BE84" rx="3" ry="3" style="stroke:#038048;stroke-width:1.0;"/><text fill="#000000" font-family="sans-serif" font-size="11" font-style="italic" lengthAdjust="spacingAndGlyphs" textLength="113" x="27" y="596.8667">void continueState()</text></a><!--MD5=[c044a56b44e9ed3c506c87887737c8ac]
class AcceptorController--><a href="java:usantatecla.mastermind.controllers.AcceptorController" target="_top" title="java:usantatecla.mastermind.controllers.AcceptorController" xlink:actuate="onRequest" xlink:href="java:usantatecla.mastermind.controllers.AcceptorController" xlink:show="new" xlink:title="java:usantatecla.mastermind.controllers.AcceptorController" xlink:type="simple"><rect codeLine="87" fill="#FEFECE" filter="url(#ffsegmswne53y)" height="73.6094" id="AcceptorController" style="stroke:#A80036;stroke-width:1.5;" width="285" x="500" y="210.5"/><ellipse cx="581.25" cy="226.5" fill="#ADD1B2" rx="11" ry="11" style="stroke:#A80036;stroke-width:1.0;"/><path d="M583.5938,222.1719 C582.6563,221.7344 582.0625,221.5938 581.1875,221.5938 C578.5625,221.5938 576.5625,223.6719 576.5625,226.3906 L576.5625,227.5156 C576.5625,230.0938 578.6719,231.9844 581.5625,231.9844 C582.7813,231.9844 583.9375,231.6875 584.6875,231.1406 C585.2656,230.7344 585.5938,230.2813 585.5938,229.8906 C585.5938,229.4375 585.2031,229.0469 584.7344,229.0469 C584.5156,229.0469 584.3125,229.125 584.125,229.3125 C583.6719,229.7969 583.6719,229.7969 583.4844,229.8906 C583.0625,230.1563 582.375,230.2813 581.6094,230.2813 C579.5625,230.2813 578.2656,229.1875 578.2656,227.4844 L578.2656,226.3906 C578.2656,224.6094 579.5156,223.2969 581.25,223.2969 C581.8281,223.2969 582.4375,223.4531 582.9063,223.7031 C583.3906,223.9844 583.5625,224.2031 583.6563,224.6094 C583.7188,225.0156 583.75,225.1406 583.8906,225.2656 C584.0313,225.4063 584.2656,225.5156 584.4844,225.5156 C584.75,225.5156 585.0156,225.375 585.1875,225.1563 C585.2969,225 585.3281,224.8125 585.3281,224.3906 L585.3281,222.9688 C585.3281,222.5313 585.3125,222.4063 585.2188,222.25 C585.0625,221.9844 584.7813,221.8438 584.4844,221.8438 C584.1875,221.8438 583.9844,221.9375 583.7656,222.25 L583.5938,222.1719 Z " fill="#000000"/><text fill="#000000" font-family="sans-serif" font-size="12" lengthAdjust="spacingAndGlyphs" textLength="114" x="601.75" y="230.6543">AcceptorController</text><line style="stroke:#A80036;stroke-width:1.5;" x1="501" x2="784" y1="242.5" y2="242.5"/><line style="stroke:#A80036;stroke-width:1.5;" x1="501" x2="784" y1="250.5" y2="250.5"/><polygon fill="#4177AF" points="511,257.5,507,263.5,515,263.5" style="stroke:#1963A0;stroke-width:1.0;"/><text fill="#000000" font-family="sans-serif" font-size="11" lengthAdjust="spacingAndGlyphs" textLength="205" x="520" y="264.7104">AcceptorController(Session session)</text><ellipse cx="511" cy="274.3047" fill="#84BE84" rx="3" ry="3" style="stroke:#038048;stroke-width:1.0;"/><text fill="#000000" font-family="sans-serif" font-size="11" font-style="italic" lengthAdjust="spacingAndGlyphs" textLength="259" x="520" y="277.5151">void accept(ControllerVisitor controllerVisitor)</text></a><!--MD5=[09632e2f294dd01282ddf91519a686d7]
class RedoController--><a href="java:usantatecla.mastermind.controllers.RedoController" target="_top" title="java:usantatecla.mastermind.controllers.RedoController" xlink:actuate="onRequest" xlink:href="java:usantatecla.mastermind.controllers.RedoController" xlink:show="new" xlink:title="java:usantatecla.mastermind.controllers.RedoController" xlink:type="simple"><rect codeLine="19" fill="#FEFECE" filter="url(#ffsegmswne53y)" height="99.2188" id="RedoController" style="stroke:#A80036;stroke-width:1.5;" width="298" x="820.5" y="198"/><ellipse cx="920.25" cy="214" fill="#ADD1B2" rx="11" ry="11" style="stroke:#A80036;stroke-width:1.0;"/><path d="M922.5938,209.6719 C921.6563,209.2344 921.0625,209.0938 920.1875,209.0938 C917.5625,209.0938 915.5625,211.1719 915.5625,213.8906 L915.5625,215.0156 C915.5625,217.5938 917.6719,219.4844 920.5625,219.4844 C921.7813,219.4844 922.9375,219.1875 923.6875,218.6406 C924.2656,218.2344 924.5938,217.7813 924.5938,217.3906 C924.5938,216.9375 924.2031,216.5469 923.7344,216.5469 C923.5156,216.5469 923.3125,216.625 923.125,216.8125 C922.6719,217.2969 922.6719,217.2969 922.4844,217.3906 C922.0625,217.6563 921.375,217.7813 920.6094,217.7813 C918.5625,217.7813 917.2656,216.6875 917.2656,214.9844 L917.2656,213.8906 C917.2656,212.1094 918.5156,210.7969 920.25,210.7969 C920.8281,210.7969 921.4375,210.9531 921.9063,211.2031 C922.3906,211.4844 922.5625,211.7031 922.6563,212.1094 C922.7188,212.5156 922.75,212.6406 922.8906,212.7656 C923.0313,212.9063 923.2656,213.0156 923.4844,213.0156 C923.75,213.0156 924.0156,212.875 924.1875,212.6563 C924.2969,212.5 924.3281,212.3125 924.3281,211.8906 L924.3281,210.4688 C924.3281,210.0313 924.3125,209.9063 924.2188,209.75 C924.0625,209.4844 923.7813,209.3438 923.4844,209.3438 C923.1875,209.3438 922.9844,209.4375 922.7656,209.75 L922.5938,209.6719 Z " fill="#000000"/><text fill="#000000" font-family="sans-serif" font-size="12" lengthAdjust="spacingAndGlyphs" textLength="90" x="940.75" y="218.1543">RedoController</text><line style="stroke:#A80036;stroke-width:1.5;" x1="821.5" x2="1117.5" y1="230" y2="230"/><rect fill="none" height="6" style="stroke:#C82930;stroke-width:1.0;" width="6" x="828.5" y="238"/><text fill="#000000" font-family="sans-serif" font-size="11" lengthAdjust="spacingAndGlyphs" textLength="272" x="840.5" y="244.2104">SessionImplementation sessionImplementation</text><line style="stroke:#A80036;stroke-width:1.5;" x1="821.5" x2="1117.5" y1="250.8047" y2="250.8047"/><ellipse cx="831.5" cy="261.8047" fill="#84BE84" rx="3" ry="3" style="stroke:#038048;stroke-width:1.0;"/><text fill="#000000" font-family="sans-serif" font-size="11" lengthAdjust="spacingAndGlyphs" textLength="184" x="840.5" y="265.0151">RedoController(Session session)</text><ellipse cx="831.5" cy="274.6094" fill="#84BE84" rx="3" ry="3" style="stroke:#038048;stroke-width:1.0;"/><text fill="#000000" font-family="sans-serif" font-size="11" lengthAdjust="spacingAndGlyphs" textLength="62" x="840.5" y="277.8198">void redo()</text><ellipse cx="831.5" cy="287.4141" fill="#84BE84" rx="3" ry="3" style="stroke:#038048;stroke-width:1.0;"/><text fill="#000000" font-family="sans-serif" font-size="11" lengthAdjust="spacingAndGlyphs" textLength="109" x="840.5" y="290.6245">boolean redoable()</text></a><!--MD5=[1d7ba1c7002d54515419844fbd155368]
class Controller--><a href="java:usantatecla.mastermind.controllers.Controller" target="_top" title="java:usantatecla.mastermind.controllers.Controller" xlink:actuate="onRequest" xlink:href="java:usantatecla.mastermind.controllers.Controller" xlink:show="new" xlink:title="java:usantatecla.mastermind.controllers.Controller" xlink:type="simple"><rect codeLine="68" fill="#FEFECE" filter="url(#ffsegmswne53y)" height="86.4141" id="Controller" style="stroke:#A80036;stroke-width:1.5;" width="185" x="1083" y="13.5"/><ellipse cx="1141.75" cy="29.5" fill="#ADD1B2" rx="11" ry="11" style="stroke:#A80036;stroke-width:1.0;"/><path d="M1144.0938,25.1719 C1143.1563,24.7344 1142.5625,24.5938 1141.6875,24.5938 C1139.0625,24.5938 1137.0625,26.6719 1137.0625,29.3906 L1137.0625,30.5156 C1137.0625,33.0938 1139.1719,34.9844 1142.0625,34.9844 C1143.2813,34.9844 1144.4375,34.6875 1145.1875,34.1406 C1145.7656,33.7344 1146.0938,33.2813 1146.0938,32.8906 C1146.0938,32.4375 1145.7031,32.0469 1145.2344,32.0469 C1145.0156,32.0469 1144.8125,32.125 1144.625,32.3125 C1144.1719,32.7969 1144.1719,32.7969 1143.9844,32.8906 C1143.5625,33.1563 1142.875,33.2813 1142.1094,33.2813 C1140.0625,33.2813 1138.7656,32.1875 1138.7656,30.4844 L1138.7656,29.3906 C1138.7656,27.6094 1140.0156,26.2969 1141.75,26.2969 C1142.3281,26.2969 1142.9375,26.4531 1143.4063,26.7031 C1143.8906,26.9844 1144.0625,27.2031 1144.1563,27.6094 C1144.2188,28.0156 1144.25,28.1406 1144.3906,28.2656 C1144.5313,28.4063 1144.7656,28.5156 1144.9844,28.5156 C1145.25,28.5156 1145.5156,28.375 1145.6875,28.1563 C1145.7969,28 1145.8281,27.8125 1145.8281,27.3906 L1145.8281,25.9688 C1145.8281,25.5313 1145.8125,25.4063 1145.7188,25.25 C1145.5625,24.9844 1145.2813,24.8438 1144.9844,24.8438 C1144.6875,24.8438 1144.4844,24.9375 1144.2656,25.25 L1144.0938,25.1719 Z " fill="#000000"/><text fill="#000000" font-family="sans-serif" font-size="12" lengthAdjust="spacingAndGlyphs" textLength="59" x="1162.25" y="33.6543">Controller</text><line style="stroke:#A80036;stroke-width:1.5;" x1="1084" x2="1267" y1="45.5" y2="45.5"/><polygon fill="none" points="1094,51.5,1098,55.5,1094,59.5,1090,55.5" style="stroke:#B38D22;stroke-width:1.0;"/><text fill="#000000" font-family="sans-serif" font-size="11" lengthAdjust="spacingAndGlyphs" textLength="92" x="1103" y="59.7104">Session session</text><line style="stroke:#A80036;stroke-width:1.5;" x1="1084" x2="1267" y1="66.3047" y2="66.3047"/><polygon fill="#4177AF" points="1094,73.3047,1090,79.3047,1098,79.3047" style="stroke:#1963A0;stroke-width:1.0;"/><text fill="#000000" font-family="sans-serif" font-size="11" lengthAdjust="spacingAndGlyphs" textLength="155" x="1103" y="80.5151">Controller(Session session)</text><ellipse cx="1094" cy="90.1094" fill="#84BE84" rx="3" ry="3" style="stroke:#038048;stroke-width:1.0;"/><text fill="#000000" font-family="sans-serif" font-size="11" lengthAdjust="spacingAndGlyphs" textLength="159" x="1103" y="93.3198">StateValue getValueState()</text></a><!--MD5=[82d9c97a467af7c0b2c072e754b85475]
class GameController--><a href="java:usantatecla.mastermind.controllers.GameController" target="_top" title="java:usantatecla.mastermind.controllers.GameController" xlink:actuate="onRequest" xlink:href="java:usantatecla.mastermind.controllers.GameController" xlink:show="new" xlink:title="java:usantatecla.mastermind.controllers.GameController" xlink:type="simple"><rect codeLine="28" fill="#FEFECE" filter="url(#ffsegmswne53y)" height="163.2422" id="GameController" style="stroke:#A80036;stroke-width:1.5;" width="457" x="1154" y="166"/><ellipse cx="1331.25" cy="182" fill="#ADD1B2" rx="11" ry="11" style="stroke:#A80036;stroke-width:1.0;"/><path d="M1333.5938,177.6719 C1332.6563,177.2344 1332.0625,177.0938 1331.1875,177.0938 C1328.5625,177.0938 1326.5625,179.1719 1326.5625,181.8906 L1326.5625,183.0156 C1326.5625,185.5938 1328.6719,187.4844 1331.5625,187.4844 C1332.7813,187.4844 1333.9375,187.1875 1334.6875,186.6406 C1335.2656,186.2344 1335.5938,185.7813 1335.5938,185.3906 C1335.5938,184.9375 1335.2031,184.5469 1334.7344,184.5469 C1334.5156,184.5469 1334.3125,184.625 1334.125,184.8125 C1333.6719,185.2969 1333.6719,185.2969 1333.4844,185.3906 C1333.0625,185.6563 1332.375,185.7813 1331.6094,185.7813 C1329.5625,185.7813 1328.2656,184.6875 1328.2656,182.9844 L1328.2656,181.8906 C1328.2656,180.1094 1329.5156,178.7969 1331.25,178.7969 C1331.8281,178.7969 1332.4375,178.9531 1332.9063,179.2031 C1333.3906,179.4844 1333.5625,179.7031 1333.6563,180.1094 C1333.7188,180.5156 1333.75,180.6406 1333.8906,180.7656 C1334.0313,180.9063 1334.2656,181.0156 1334.4844,181.0156 C1334.75,181.0156 1335.0156,180.875 1335.1875,180.6563 C1335.2969,180.5 1335.3281,180.3125 1335.3281,179.8906 L1335.3281,178.4688 C1335.3281,178.0313 1335.3125,177.9063 1335.2188,177.75 C1335.0625,177.4844 1334.7813,177.3438 1334.4844,177.3438 C1334.1875,177.3438 1333.9844,177.4375 1333.7656,177.75 L1333.5938,177.6719 Z " fill="#000000"/><text fill="#000000" font-family="sans-serif" font-size="12" lengthAdjust="spacingAndGlyphs" textLength="94" x="1351.75" y="186.1543">GameController</text><line style="stroke:#A80036;stroke-width:1.5;" x1="1155" x2="1610" y1="198" y2="198"/><rect fill="none" height="6" style="stroke:#C82930;stroke-width:1.0;" width="6" x="1162" y="206"/><text fill="#000000" font-family="sans-serif" font-size="11" lengthAdjust="spacingAndGlyphs" textLength="272" x="1174" y="212.2104">SessionImplementation sessionImplementation</text><line style="stroke:#A80036;stroke-width:1.5;" x1="1155" x2="1610" y1="218.8047" y2="218.8047"/><ellipse cx="1165" cy="229.8047" fill="#84BE84" rx="3" ry="3" style="stroke:#038048;stroke-width:1.0;"/><text fill="#000000" font-family="sans-serif" font-size="11" lengthAdjust="spacingAndGlyphs" textLength="190" x="1174" y="233.0151">GameController(Session session)</text><ellipse cx="1165" cy="242.6094" fill="#84BE84" rx="3" ry="3" style="stroke:#038048;stroke-width:1.0;"/><text fill="#000000" font-family="sans-serif" font-size="11" lengthAdjust="spacingAndGlyphs" textLength="97" x="1174" y="245.8198">int getAttempts()</text><ellipse cx="1165" cy="255.4141" fill="#84BE84" rx="3" ry="3" style="stroke:#038048;stroke-width:1.0;"/><text fill="#000000" font-family="sans-serif" font-size="11" lengthAdjust="spacingAndGlyphs" textLength="431" x="1174" y="258.6245">void addProposedCombination(ProposedCombination proposedCombination)</text><ellipse cx="1165" cy="268.2188" fill="#84BE84" rx="3" ry="3" style="stroke:#038048;stroke-width:1.0;"/><text fill="#000000" font-family="sans-serif" font-size="11" lengthAdjust="spacingAndGlyphs" textLength="107" x="1174" y="271.4292">boolean isWinner()</text><ellipse cx="1165" cy="281.0234" fill="#84BE84" rx="3" ry="3" style="stroke:#038048;stroke-width:1.0;"/><text fill="#000000" font-family="sans-serif" font-size="11" lengthAdjust="spacingAndGlyphs" textLength="105" x="1174" y="284.2339">boolean isLooser()</text><ellipse cx="1165" cy="293.8281" fill="#84BE84" rx="3" ry="3" style="stroke:#038048;stroke-width:1.0;"/><text fill="#000000" font-family="sans-serif" font-size="11" lengthAdjust="spacingAndGlyphs" textLength="298" x="1174" y="297.0386">ProposedCombination getProposedCombination(int i)</text><ellipse cx="1165" cy="306.6328" fill="#84BE84" rx="3" ry="3" style="stroke:#038048;stroke-width:1.0;"/><text fill="#000000" font-family="sans-serif" font-size="11" lengthAdjust="spacingAndGlyphs" textLength="122" x="1174" y="309.8433">Result getResult(int i)</text><ellipse cx="1165" cy="319.4375" fill="#84BE84" rx="3" ry="3" style="stroke:#038048;stroke-width:1.0;"/><text fill="#000000" font-family="sans-serif" font-size="11" lengthAdjust="spacingAndGlyphs" textLength="116" x="1174" y="322.6479">void continueState()</text></a><!--MD5=[1a47bbf44ccee225df9b18c5b6629853]
class ResumeController--><a href="java:usantatecla.mastermind.controllers.ResumeController" target="_top" title="java:usantatecla.mastermind.controllers.ResumeController" xlink:actuate="onRequest" xlink:href="java:usantatecla.mastermind.controllers.ResumeController" xlink:show="new" xlink:title="java:usantatecla.mastermind.controllers.ResumeController" xlink:type="simple"><rect codeLine="49" fill="#FEFECE" filter="url(#ffsegmswne53y)" height="86.4141" id="ResumeController" style="stroke:#A80036;stroke-width:1.5;" width="282" x="501.5" y="453"/><ellipse cx="585.25" cy="469" fill="#A9DCDF" rx="11" ry="11" style="stroke:#A80036;stroke-width:1.0;"/><path d="M587.3281,470.8125 L587.7188,471.7969 L587.3281,471.7969 C586.875,471.7969 586.7656,471.8125 586.6094,471.9219 C586.3594,472.0781 586.2031,472.3594 586.2031,472.6563 C586.2031,472.9219 586.3438,473.1719 586.5625,473.3281 C586.7031,473.4531 586.9063,473.5 587.3281,473.5 L589.6875,473.5 C590.0469,473.5 590.2656,473.4688 590.4063,473.375 C590.6563,473.2344 590.8125,472.9375 590.8125,472.6563 C590.8125,472.375 590.6719,472.125 590.4531,471.9688 C590.2813,471.8281 590.125,471.7969 589.6563,471.7969 L586.2656,463.5938 L582.5938,463.5938 C582.1406,463.5938 582.0156,463.6094 581.8594,463.7031 C581.6094,463.875 581.4531,464.1563 581.4531,464.4375 C581.4531,464.7188 581.5938,464.9688 581.8125,465.1406 C581.9844,465.25 582.1563,465.2813 582.5938,465.2813 L583.6719,465.2813 L581.0313,471.7969 C580.6094,471.7969 580.4531,471.8125 580.2969,471.9219 C580.0469,472.0781 579.8906,472.3594 579.8906,472.6563 C579.8906,473.2188 580.2656,473.5 581.0156,473.5 L583.2813,473.5 C583.6406,473.5 583.8594,473.4688 583.9844,473.375 C584.25,473.2344 584.3906,472.9375 584.3906,472.6563 C584.3906,472.375 584.2656,472.125 584.0469,471.9531 C583.875,471.8281 583.7344,471.7969 583.2813,471.7969 L582.8906,471.7969 L583.2813,470.8125 L587.3281,470.8125 Z M586.625,469.1094 L583.9531,469.1094 L585.2969,465.8438 L586.625,469.1094 Z " fill="#000000"/><text fill="#000000" font-family="sans-serif" font-size="12" font-style="italic" lengthAdjust="spacingAndGlyphs" textLength="106" x="605.75" y="473.1543">ResumeController</text><line style="stroke:#A80036;stroke-width:1.5;" x1="502.5" x2="782.5" y1="485" y2="485"/><line style="stroke:#A80036;stroke-width:1.5;" x1="502.5" x2="782.5" y1="493" y2="493"/><ellipse cx="512.5" cy="504" fill="#84BE84" rx="3" ry="3" style="stroke:#038048;stroke-width:1.0;"/><text fill="#000000" font-family="sans-serif" font-size="11" lengthAdjust="spacingAndGlyphs" textLength="202" x="521.5" y="507.2104">ResumeController(Session session)</text><ellipse cx="512.5" cy="516.8047" fill="#84BE84" rx="3" ry="3" style="stroke:#038048;stroke-width:1.0;"/><text fill="#000000" font-family="sans-serif" font-size="11" font-style="italic" lengthAdjust="spacingAndGlyphs" textLength="185" x="521.5" y="520.0151">void resume(boolean newGame)</text><ellipse cx="512.5" cy="529.6094" fill="#84BE84" rx="3" ry="3" style="stroke:#038048;stroke-width:1.0;"/><text fill="#000000" font-family="sans-serif" font-size="11" lengthAdjust="spacingAndGlyphs" textLength="256" x="521.5" y="532.8198">void accept(ControllerVisitor controllerVisitor)</text></a><!--MD5=[aab9612c5d46aa221e996c7d0ed5d7ab]
class UndoController--><a href="java:usantatecla.mastermind.controllers.UndoController" target="_top" title="java:usantatecla.mastermind.controllers.UndoController" xlink:actuate="onRequest" xlink:href="java:usantatecla.mastermind.controllers.UndoController" xlink:show="new" xlink:title="java:usantatecla.mastermind.controllers.UndoController" xlink:type="simple"><rect codeLine="62" fill="#FEFECE" filter="url(#ffsegmswne53y)" height="99.2188" id="UndoController" style="stroke:#A80036;stroke-width:1.5;" width="298" x="1646.5" y="198"/><ellipse cx="1745.75" cy="214" fill="#ADD1B2" rx="11" ry="11" style="stroke:#A80036;stroke-width:1.0;"/><path d="M1748.0938,209.6719 C1747.1563,209.2344 1746.5625,209.0938 1745.6875,209.0938 C1743.0625,209.0938 1741.0625,211.1719 1741.0625,213.8906 L1741.0625,215.0156 C1741.0625,217.5938 1743.1719,219.4844 1746.0625,219.4844 C1747.2813,219.4844 1748.4375,219.1875 1749.1875,218.6406 C1749.7656,218.2344 1750.0938,217.7813 1750.0938,217.3906 C1750.0938,216.9375 1749.7031,216.5469 1749.2344,216.5469 C1749.0156,216.5469 1748.8125,216.625 1748.625,216.8125 C1748.1719,217.2969 1748.1719,217.2969 1747.9844,217.3906 C1747.5625,217.6563 1746.875,217.7813 1746.1094,217.7813 C1744.0625,217.7813 1742.7656,216.6875 1742.7656,214.9844 L1742.7656,213.8906 C1742.7656,212.1094 1744.0156,210.7969 1745.75,210.7969 C1746.3281,210.7969 1746.9375,210.9531 1747.4063,211.2031 C1747.8906,211.4844 1748.0625,211.7031 1748.1563,212.1094 C1748.2188,212.5156 1748.25,212.6406 1748.3906,212.7656 C1748.5313,212.9063 1748.7656,213.0156 1748.9844,213.0156 C1749.25,213.0156 1749.5156,212.875 1749.6875,212.6563 C1749.7969,212.5 1749.8281,212.3125 1749.8281,211.8906 L1749.8281,210.4688 C1749.8281,210.0313 1749.8125,209.9063 1749.7188,209.75 C1749.5625,209.4844 1749.2813,209.3438 1748.9844,209.3438 C1748.6875,209.3438 1748.4844,209.4375 1748.2656,209.75 L1748.0938,209.6719 Z " fill="#000000"/><text fill="#000000" font-family="sans-serif" font-size="12" lengthAdjust="spacingAndGlyphs" textLength="91" x="1766.25" y="218.1543">UndoController</text><line style="stroke:#A80036;stroke-width:1.5;" x1="1647.5" x2="1943.5" y1="230" y2="230"/><rect fill="none" height="6" style="stroke:#C82930;stroke-width:1.0;" width="6" x="1654.5" y="238"/><text fill="#000000" font-family="sans-serif" font-size="11" lengthAdjust="spacingAndGlyphs" textLength="272" x="1666.5" y="244.2104">SessionImplementation sessionImplementation</text><line style="stroke:#A80036;stroke-width:1.5;" x1="1647.5" x2="1943.5" y1="250.8047" y2="250.8047"/><ellipse cx="1657.5" cy="261.8047" fill="#84BE84" rx="3" ry="3" style="stroke:#038048;stroke-width:1.0;"/><text fill="#000000" font-family="sans-serif" font-size="11" lengthAdjust="spacingAndGlyphs" textLength="184" x="1666.5" y="265.0151">UndoController(Session session)</text><ellipse cx="1657.5" cy="274.6094" fill="#84BE84" rx="3" ry="3" style="stroke:#038048;stroke-width:1.0;"/><text fill="#000000" font-family="sans-serif" font-size="11" lengthAdjust="spacingAndGlyphs" textLength="64" x="1666.5" y="277.8198">void undo()</text><ellipse cx="1657.5" cy="287.4141" fill="#84BE84" rx="3" ry="3" style="stroke:#038048;stroke-width:1.0;"/><text fill="#000000" font-family="sans-serif" font-size="11" lengthAdjust="spacingAndGlyphs" textLength="111" x="1666.5" y="290.6245">boolean undoable()</text></a><!--MD5=[42fa18dda7351a0ae87d9497de925436]
class Logic--><a href="java:usantatecla.mastermind.controllers.Logic" target="_top" title="java:usantatecla.mastermind.controllers.Logic" xlink:actuate="onRequest" xlink:href="java:usantatecla.mastermind.controllers.Logic" xlink:show="new" xlink:title="java:usantatecla.mastermind.controllers.Logic" xlink:type="simple"><rect codeLine="71" fill="#FEFECE" filter="url(#ffsegmswne53y)" height="99.2188" id="Logic" style="stroke:#A80036;stroke-width:1.5;" width="353" x="1303" y="7"/><ellipse cx="1459.25" cy="23" fill="#ADD1B2" rx="11" ry="11" style="stroke:#A80036;stroke-width:1.0;"/><path d="M1461.5938,18.6719 C1460.6563,18.2344 1460.0625,18.0938 1459.1875,18.0938 C1456.5625,18.0938 1454.5625,20.1719 1454.5625,22.8906 L1454.5625,24.0156 C1454.5625,26.5938 1456.6719,28.4844 1459.5625,28.4844 C1460.7813,28.4844 1461.9375,28.1875 1462.6875,27.6406 C1463.2656,27.2344 1463.5938,26.7813 1463.5938,26.3906 C1463.5938,25.9375 1463.2031,25.5469 1462.7344,25.5469 C1462.5156,25.5469 1462.3125,25.625 1462.125,25.8125 C1461.6719,26.2969 1461.6719,26.2969 1461.4844,26.3906 C1461.0625,26.6563 1460.375,26.7813 1459.6094,26.7813 C1457.5625,26.7813 1456.2656,25.6875 1456.2656,23.9844 L1456.2656,22.8906 C1456.2656,21.1094 1457.5156,19.7969 1459.25,19.7969 C1459.8281,19.7969 1460.4375,19.9531 1460.9063,20.2031 C1461.3906,20.4844 1461.5625,20.7031 1461.6563,21.1094 C1461.7188,21.5156 1461.75,21.6406 1461.8906,21.7656 C1462.0313,21.9063 1462.2656,22.0156 1462.4844,22.0156 C1462.75,22.0156 1463.0156,21.875 1463.1875,21.6563 C1463.2969,21.5 1463.3281,21.3125 1463.3281,20.8906 L1463.3281,19.4688 C1463.3281,19.0313 1463.3125,18.9063 1463.2188,18.75 C1463.0625,18.4844 1462.7813,18.3438 1462.4844,18.3438 C1462.1875,18.3438 1461.9844,18.4375 1461.7656,18.75 L1461.5938,18.6719 Z " fill="#000000"/><text fill="#000000" font-family="sans-serif" font-size="12" lengthAdjust="spacingAndGlyphs" textLength="32" x="1479.75" y="27.1543">Logic</text><line style="stroke:#A80036;stroke-width:1.5;" x1="1304" x2="1655" y1="39" y2="39"/><polygon fill="none" points="1314,45,1318,49,1314,53,1310,49" style="stroke:#B38D22;stroke-width:1.0;"/><text fill="#000000" font-family="sans-serif" font-size="11" lengthAdjust="spacingAndGlyphs" textLength="92" x="1323" y="53.2104">Session session</text><polygon fill="none" points="1314,57.8047,1318,61.8047,1314,65.8047,1310,61.8047" style="stroke:#B38D22;stroke-width:1.0;"/><text fill="#000000" font-family="sans-serif" font-size="11" lengthAdjust="spacingAndGlyphs" textLength="327" x="1323" y="66.0151">Map&lt;StateValue,AcceptorController&gt; acceptorControllers</text><line style="stroke:#A80036;stroke-width:1.5;" x1="1304" x2="1655" y1="72.6094" y2="72.6094"/><polygon fill="#FFFF44" points="1314,78.6094,1318,82.6094,1314,86.6094,1310,82.6094" style="stroke:#B38D22;stroke-width:1.0;"/><text fill="#000000" font-family="sans-serif" font-size="11" lengthAdjust="spacingAndGlyphs" textLength="37" x="1323" y="86.8198">Logic()</text><ellipse cx="1314" cy="96.4141" fill="#84BE84" rx="3" ry="3" style="stroke:#038048;stroke-width:1.0;"/><text fill="#000000" font-family="sans-serif" font-size="11" lengthAdjust="spacingAndGlyphs" textLength="191" x="1323" y="99.6245">AcceptorController getController()</text></a><!--MD5=[202eb055b61e3635d6abeb6d1809ebdd]
class ControllerVisitor--><a href="java:usantatecla.mastermind.controllers.ControllerVisitor" target="_top" title="java:usantatecla.mastermind.controllers.ControllerVisitor" xlink:actuate="onRequest" xlink:href="java:usantatecla.mastermind.controllers.ControllerVisitor" xlink:show="new" xlink:title="java:usantatecla.mastermind.controllers.ControllerVisitor" xlink:type="simple"><rect codeLine="77" fill="#FEFECE" filter="url(#ffsegmswne53y)" height="86.4141" id="ControllerVisitor" style="stroke:#A80036;stroke-width:1.5;" width="276" x="1691.5" y="13.5"/><ellipse cx="1777.75" cy="29.5" fill="#B4A7E5" rx="11" ry="11" style="stroke:#A80036;stroke-width:1.0;"/><path d="M1778.7031,26.2813 L1780.4219,26.2813 C1780.8125,26.2813 1781,26.25 1781.125,26.1719 C1781.3906,26.0156 1781.5313,25.7344 1781.5313,25.4375 C1781.5313,25.1719 1781.4219,24.9063 1781.1875,24.7344 C1781.0156,24.625 1780.875,24.5938 1780.4219,24.5938 L1775.2813,24.5938 C1774.8438,24.5938 1774.7188,24.6094 1774.5625,24.7031 C1774.3125,24.8594 1774.1563,25.1563 1774.1563,25.4375 C1774.1563,25.7188 1774.2969,25.9688 1774.5156,26.1406 C1774.6719,26.25 1774.8594,26.2813 1775.2813,26.2813 L1777,26.2813 L1777,32.7969 L1775.2813,32.7969 C1774.8438,32.7969 1774.7188,32.8125 1774.5625,32.9219 C1774.3125,33.0781 1774.1563,33.3594 1774.1563,33.6563 C1774.1563,33.9063 1774.2969,34.1719 1774.5156,34.3281 C1774.6719,34.4531 1774.875,34.5 1775.2813,34.5 L1780.4219,34.5 C1781.1719,34.5 1781.5313,34.2188 1781.5313,33.6563 C1781.5313,33.375 1781.4219,33.125 1781.1875,32.9531 C1781.0156,32.8281 1780.875,32.7969 1780.4219,32.7969 L1778.7031,32.7969 L1778.7031,26.2813 Z " fill="#000000"/><text fill="#000000" font-family="sans-serif" font-size="12" font-style="italic" lengthAdjust="spacingAndGlyphs" textLength="95" x="1798.25" y="33.6543">ControllerVisitor</text><line style="stroke:#A80036;stroke-width:1.5;" x1="1692.5" x2="1966.5" y1="45.5" y2="45.5"/><line style="stroke:#A80036;stroke-width:1.5;" x1="1692.5" x2="1966.5" y1="53.5" y2="53.5"/><text fill="#000000" font-family="sans-serif" font-size="11" lengthAdjust="spacingAndGlyphs" textLength="225" x="1697.5" y="67.7104">void visit(StartController startController)</text><text fill="#000000" font-family="sans-serif" font-size="11" lengthAdjust="spacingAndGlyphs" textLength="220" x="1697.5" y="80.5151">void visit(PlayController playController)</text><text fill="#000000" font-family="sans-serif" font-size="11" lengthAdjust="spacingAndGlyphs" textLength="264" x="1697.5" y="93.3198">void visit(ResumeController resumeController)</text></a><!--MD5=[47c371471411cfedeee61b1a5bdaee47]
class StartController--><a href="java:usantatecla.mastermind.controllers.StartController" target="_top" title="java:usantatecla.mastermind.controllers.StartController" xlink:actuate="onRequest" xlink:href="java:usantatecla.mastermind.controllers.StartController" xlink:show="new" xlink:title="java:usantatecla.mastermind.controllers.StartController" xlink:type="simple"><rect codeLine="82" fill="#FEFECE" filter="url(#ffsegmswne53y)" height="86.4141" id="StartController" style="stroke:#A80036;stroke-width:1.5;" width="282" x="818.5" y="453"/><ellipse cx="911.25" cy="469" fill="#A9DCDF" rx="11" ry="11" style="stroke:#A80036;stroke-width:1.0;"/><path d="M913.3281,470.8125 L913.7188,471.7969 L913.3281,471.7969 C912.875,471.7969 912.7656,471.8125 912.6094,471.9219 C912.3594,472.0781 912.2031,472.3594 912.2031,472.6563 C912.2031,472.9219 912.3438,473.1719 912.5625,473.3281 C912.7031,473.4531 912.9063,473.5 913.3281,473.5 L915.6875,473.5 C916.0469,473.5 916.2656,473.4688 916.4063,473.375 C916.6563,473.2344 916.8125,472.9375 916.8125,472.6563 C916.8125,472.375 916.6719,472.125 916.4531,471.9688 C916.2813,471.8281 916.125,471.7969 915.6563,471.7969 L912.2656,463.5938 L908.5938,463.5938 C908.1406,463.5938 908.0156,463.6094 907.8594,463.7031 C907.6094,463.875 907.4531,464.1563 907.4531,464.4375 C907.4531,464.7188 907.5938,464.9688 907.8125,465.1406 C907.9844,465.25 908.1563,465.2813 908.5938,465.2813 L909.6719,465.2813 L907.0313,471.7969 C906.6094,471.7969 906.4531,471.8125 906.2969,471.9219 C906.0469,472.0781 905.8906,472.3594 905.8906,472.6563 C905.8906,473.2188 906.2656,473.5 907.0156,473.5 L909.2813,473.5 C909.6406,473.5 909.8594,473.4688 909.9844,473.375 C910.25,473.2344 910.3906,472.9375 910.3906,472.6563 C910.3906,472.375 910.2656,472.125 910.0469,471.9531 C909.875,471.8281 909.7344,471.7969 909.2813,471.7969 L908.8906,471.7969 L909.2813,470.8125 L913.3281,470.8125 Z M912.625,469.1094 L909.9531,469.1094 L911.2969,465.8438 L912.625,469.1094 Z " fill="#000000"/><text fill="#000000" font-family="sans-serif" font-size="12" font-style="italic" lengthAdjust="spacingAndGlyphs" textLength="88" x="931.75" y="473.1543">StartController</text><line style="stroke:#A80036;stroke-width:1.5;" x1="819.5" x2="1099.5" y1="485" y2="485"/><line style="stroke:#A80036;stroke-width:1.5;" x1="819.5" x2="1099.5" y1="493" y2="493"/><ellipse cx="829.5" cy="504" fill="#84BE84" rx="3" ry="3" style="stroke:#038048;stroke-width:1.0;"/><text fill="#000000" font-family="sans-serif" font-size="11" lengthAdjust="spacingAndGlyphs" textLength="182" x="838.5" y="507.2104">StartController(Session session)</text><ellipse cx="829.5" cy="516.8047" fill="#84BE84" rx="3" ry="3" style="stroke:#038048;stroke-width:1.0;"/><text fill="#000000" font-family="sans-serif" font-size="11" font-style="italic" lengthAdjust="spacingAndGlyphs" textLength="62" x="838.5" y="520.0151">void start()</text><ellipse cx="829.5" cy="529.6094" fill="#84BE84" rx="3" ry="3" style="stroke:#038048;stroke-width:1.0;"/><text fill="#000000" font-family="sans-serif" font-size="11" lengthAdjust="spacingAndGlyphs" textLength="256" x="838.5" y="532.8198">void accept(ControllerVisitor controllerVisitor)</text></a><!--MD5=[b38675d2d1f25cd0a50ac92533c883e8]
reverse link AcceptorController to PlayController--><path codeLine="18" d="M565.726,295.113 C521.976,321.675 465.259,356.111 411.26,388.896 " fill="none" id="AcceptorController-backto-PlayController" style="stroke:#A80036;stroke-width:1.0;"/><polygon fill="none" points="562.301,289.003,583.029,284.607,569.566,300.97,562.301,289.003" style="stroke:#A80036;stroke-width:1.0;"/><!--MD5=[30206d8ab718dc22cce9998c8e604def]
reverse link Controller to RedoController--><path codeLine="27" d="M1114.39,113.563 C1085.23,140.32 1050.67,172.033 1022.61,197.773 " fill="none" id="Controller-backto-RedoController" style="stroke:#A80036;stroke-width:1.0;"/><polygon fill="none" points="1110.06,108.043,1129.53,99.68,1119.52,118.359,1110.06,108.043" style="stroke:#A80036;stroke-width:1.0;"/><!--MD5=[1f4d4c9fb57d20e6842437295b0abf30]
reverse link Controller to GameController--><path codeLine="41" d="M1236.58,113.272 C1254.58,129.7 1274.64,148.017 1293.98,165.681 " fill="none" id="Controller-backto-GameController" style="stroke:#A80036;stroke-width:1.0;"/><polygon fill="none" points="1231.75,118.335,1221.7,99.68,1241.19,107.996,1231.75,118.335" style="stroke:#A80036;stroke-width:1.0;"/><!--MD5=[dabe437983e1e64e0ebdec435a796ba0]
reverse link Controller to AcceptorController--><path codeLine="48" d="M1063.25,84.412 C988.263,103.781 888.059,132.36 802.5,166 C770.378,178.63 736.031,195.441 707.428,210.434 " fill="none" id="Controller-backto-AcceptorController" style="stroke:#A80036;stroke-width:1.0;"/><polygon fill="none" points="1061.62,77.606,1082.73,79.443,1065.08,91.171,1061.62,77.606" style="stroke:#A80036;stroke-width:1.0;"/><!--MD5=[6f64ab3559b40c824034af7062de7346]
reverse link AcceptorController to ResumeController--><path codeLine="56" d="M642.5,304.832 C642.5,349.78 642.5,411.768 642.5,452.589 " fill="none" id="AcceptorController-backto-ResumeController" style="stroke:#A80036;stroke-width:1.0;"/><polygon fill="none" points="635.5,304.607,642.5,284.607,649.5,304.607,635.5,304.607" style="stroke:#A80036;stroke-width:1.0;"/><!--MD5=[5344b5a2a57f55ab983fda367ecdb5ef]
reverse link Controller to UndoController--><path codeLine="70" d="M1285.2,105.91 C1285.3,105.94 1285.4,105.97 1285.5,106 C1433.61,150.879 1481.17,118.616 1628.5,166 C1654.54,174.376 1681.7,186.065 1706.37,197.943 " fill="none" id="Controller-backto-UndoController" style="stroke:#A80036;stroke-width:1.0;"/><polygon fill="none" points="1283.12,112.594,1266.4,99.579,1287.59,99.326,1283.12,112.594" style="stroke:#A80036;stroke-width:1.0;"/><!--MD5=[ea396b2c805c15be0f5987f66b06b697]
reverse link AcceptorController to StartController--><path codeLine="89" d="M704.984,297.087 C763.373,342.491 849.659,409.588 905.233,452.802 " fill="none" id="AcceptorController-backto-StartController" style="stroke:#A80036;stroke-width:1.0;"/><polygon fill="none" points="700.425,302.41,688.934,284.607,709.019,291.358,700.425,302.41" style="stroke:#A80036;stroke-width:1.0;"/><!--MD5=[7e7b90db8746c5d1fd879876a734a9ae]
@startuml
abstract class PlayController [[java:usantatecla.mastermind.controllers.PlayController]] {
	+PlayController(Session session)
	+void accept(ControllerVisitor controllerVisitor)
	+{abstract}void undo()
	+{abstract}void redo()
	+{abstract}boolean undoable()
	+{abstract}boolean redoable()
	+{abstract}boolean isWinner()
	+{abstract}boolean isLooser()
	+{abstract}int getAttempts()
	+{abstract}ProposedCombination getProposedCombination(int i)
	+{abstract}Result getResult(int i)
	+{abstract}void addProposedCombination(ProposedCombination proposedCombination)
	+{abstract}void continueState()
}
class AcceptorController [[java:usantatecla.mastermind.controllers.AcceptorController]] {
}
AcceptorController <|- - PlayController
class RedoController [[java:usantatecla.mastermind.controllers.RedoController]] {
	-SessionImplementation sessionImplementation
	+RedoController(Session session)
	+void redo()
	+boolean redoable()
}
class Controller [[java:usantatecla.mastermind.controllers.Controller]] {
}
Controller <|- - RedoController
class GameController [[java:usantatecla.mastermind.controllers.GameController]] {
	-SessionImplementation sessionImplementation
	+GameController(Session session)
	+int getAttempts()
	+void addProposedCombination(ProposedCombination proposedCombination)
	+boolean isWinner()
	+boolean isLooser()
	+ProposedCombination getProposedCombination(int i)
	+Result getResult(int i)
	+void continueState()
}
class Controller [[java:usantatecla.mastermind.controllers.Controller]] {
}
Controller <|- - GameController
abstract class AcceptorController [[java:usantatecla.mastermind.controllers.AcceptorController]] {
	~AcceptorController(Session session)
	+{abstract}void accept(ControllerVisitor controllerVisitor)
}
class Controller [[java:usantatecla.mastermind.controllers.Controller]] {
}
Controller <|- - AcceptorController
abstract class ResumeController [[java:usantatecla.mastermind.controllers.ResumeController]] {
	+ResumeController(Session session)
	+{abstract}void resume(boolean newGame)
	+void accept(ControllerVisitor controllerVisitor)
}
class AcceptorController [[java:usantatecla.mastermind.controllers.AcceptorController]] {
}
AcceptorController <|- - ResumeController
abstract class Controller [[java:usantatecla.mastermind.controllers.Controller]] {
	#Session session
	~Controller(Session session)
	+StateValue getValueState()
}
class UndoController [[java:usantatecla.mastermind.controllers.UndoController]] {
	-SessionImplementation sessionImplementation
	+UndoController(Session session)
	+void undo()
	+boolean undoable()
}
class Controller [[java:usantatecla.mastermind.controllers.Controller]] {
}
Controller <|- - UndoController
class Logic [[java:usantatecla.mastermind.controllers.Logic]] {
	#Session session
	#Map<StateValue,AcceptorController> acceptorControllers
	#Logic()
	+AcceptorController getController()
}
interface ControllerVisitor [[java:usantatecla.mastermind.controllers.ControllerVisitor]] {
	void visit(StartController startController)
	void visit(PlayController playController)
	void visit(ResumeController resumeController)
}
abstract class StartController [[java:usantatecla.mastermind.controllers.StartController]] {
	+StartController(Session session)
	+{abstract}void start()
	+void accept(ControllerVisitor controllerVisitor)
}
class AcceptorController [[java:usantatecla.mastermind.controllers.AcceptorController]] {
}
AcceptorController <|- - StartController
@enduml

PlantUML version 1.2020.22(Sun Dec 06 09:36:27 UTC 2020)
(GPL source distribution)
Java Runtime: Java(TM) SE Runtime Environment
JVM: Java HotSpot(TM) 64-Bit Server VM
Default Encoding: UTF-8
Language: en
Country: US
--></g></svg>