<?xml version="1.0" encoding="UTF-8" standalone="no"?><svg xmlns="http://www.w3.org/2000/svg" xmlns:xlink="http://www.w3.org/1999/xlink" contentScriptType="application/ecmascript" contentStyleType="text/css" height="446px" preserveAspectRatio="none" style="width:745px;height:446px;" version="1.1" viewBox="0 0 745 446" width="745px" zoomAndPan="magnify"><defs><filter height="300%" id="fr51vpu8gvwdw" width="300%" x="-1" y="-1"><feGaussianBlur result="blurOut" stdDeviation="2.0"/><feColorMatrix in="blurOut" result="blurOut2" type="matrix" values="0 0 0 0 0 0 0 0 0 0 0 0 0 0 0 0 0 0 .4 0"/><feOffset dx="4.0" dy="4.0" in="blurOut2" result="blurOut3"/><feBlend in="SourceGraphic" in2="blurOut3" mode="normal"/></filter></defs><g><!--MD5=[30a4e08132f89f345abcdd9fb1a59598]
class LogicImplementationServer--><a href="java:usantatecla.mastermind.distributed.LogicImplementationServer" target="_top" title="java:usantatecla.mastermind.distributed.LogicImplementationServer" xlink:actuate="onRequest" xlink:href="java:usantatecla.mastermind.distributed.LogicImplementationServer" xlink:show="new" xlink:title="java:usantatecla.mastermind.distributed.LogicImplementationServer" xlink:type="simple"><rect codeLine="22" fill="#FEFECE" filter="url(#fr51vpu8gvwdw)" height="60.8047" id="LogicImplementationServer" style="stroke:#A80036;stroke-width:1.5;" width="398" x="18" y="195.5"/><ellipse cx="130.25" cy="211.5" fill="#ADD1B2" rx="11" ry="11" style="stroke:#A80036;stroke-width:1.0;"/><path d="M132.5938,207.1719 C131.6563,206.7344 131.0625,206.5938 130.1875,206.5938 C127.5625,206.5938 125.5625,208.6719 125.5625,211.3906 L125.5625,212.5156 C125.5625,215.0938 127.6719,216.9844 130.5625,216.9844 C131.7813,216.9844 132.9375,216.6875 133.6875,216.1406 C134.2656,215.7344 134.5938,215.2813 134.5938,214.8906 C134.5938,214.4375 134.2031,214.0469 133.7344,214.0469 C133.5156,214.0469 133.3125,214.125 133.125,214.3125 C132.6719,214.7969 132.6719,214.7969 132.4844,214.8906 C132.0625,215.1563 131.375,215.2813 130.6094,215.2813 C128.5625,215.2813 127.2656,214.1875 127.2656,212.4844 L127.2656,211.3906 C127.2656,209.6094 128.5156,208.2969 130.25,208.2969 C130.8281,208.2969 131.4375,208.4531 131.9063,208.7031 C132.3906,208.9844 132.5625,209.2031 132.6563,209.6094 C132.7188,210.0156 132.75,210.1406 132.8906,210.2656 C133.0313,210.4063 133.2656,210.5156 133.4844,210.5156 C133.75,210.5156 134.0156,210.375 134.1875,210.1563 C134.2969,210 134.3281,209.8125 134.3281,209.3906 L134.3281,207.9688 C134.3281,207.5313 134.3125,207.4063 134.2188,207.25 C134.0625,206.9844 133.7813,206.8438 133.4844,206.8438 C133.1875,206.8438 132.9844,206.9375 132.7656,207.25 L132.5938,207.1719 Z " fill="#000000"/><text fill="#000000" font-family="sans-serif" font-size="12" lengthAdjust="spacingAndGlyphs" textLength="165" x="150.75" y="215.6543">LogicImplementationServer</text><line style="stroke:#A80036;stroke-width:1.5;" x1="19" x2="415" y1="227.5" y2="227.5"/><line style="stroke:#A80036;stroke-width:1.5;" x1="19" x2="415" y1="235.5" y2="235.5"/><ellipse cx="29" cy="246.5" fill="#84BE84" rx="3" ry="3" style="stroke:#038048;stroke-width:1.0;"/><text fill="#000000" font-family="sans-serif" font-size="11" lengthAdjust="spacingAndGlyphs" textLength="372" x="38" y="249.7104">void createDispatchers(DispatcherPrototype dispatcherPrototype)</text></a><!--MD5=[1ccaea6389522240d1d424d636be96b4]
class LogicImplementation--><a href="java:usantatecla.mastermind.controllers.implementation.LogicImplementation" target="_top" title="java:usantatecla.mastermind.controllers.implementation.LogicImplementation" xlink:actuate="onRequest" xlink:href="java:usantatecla.mastermind.controllers.implementation.LogicImplementation" xlink:show="new" xlink:title="java:usantatecla.mastermind.controllers.implementation.LogicImplementation" xlink:type="simple"><rect codeLine="4" fill="#FEFECE" filter="url(#fr51vpu8gvwdw)" height="48" id="LogicImplementation" style="stroke:#A80036;stroke-width:1.5;" width="156" x="7" y="32.5"/><ellipse cx="22" cy="48.5" fill="#ADD1B2" rx="11" ry="11" style="stroke:#A80036;stroke-width:1.0;"/><path d="M24.3438,44.1719 C23.4063,43.7344 22.8125,43.5938 21.9375,43.5938 C19.3125,43.5938 17.3125,45.6719 17.3125,48.3906 L17.3125,49.5156 C17.3125,52.0938 19.4219,53.9844 22.3125,53.9844 C23.5313,53.9844 24.6875,53.6875 25.4375,53.1406 C26.0156,52.7344 26.3438,52.2813 26.3438,51.8906 C26.3438,51.4375 25.9531,51.0469 25.4844,51.0469 C25.2656,51.0469 25.0625,51.125 24.875,51.3125 C24.4219,51.7969 24.4219,51.7969 24.2344,51.8906 C23.8125,52.1563 23.125,52.2813 22.3594,52.2813 C20.3125,52.2813 19.0156,51.1875 19.0156,49.4844 L19.0156,48.3906 C19.0156,46.6094 20.2656,45.2969 22,45.2969 C22.5781,45.2969 23.1875,45.4531 23.6563,45.7031 C24.1406,45.9844 24.3125,46.2031 24.4063,46.6094 C24.4688,47.0156 24.5,47.1406 24.6406,47.2656 C24.7813,47.4063 25.0156,47.5156 25.2344,47.5156 C25.5,47.5156 25.7656,47.375 25.9375,47.1563 C26.0469,47 26.0781,46.8125 26.0781,46.3906 L26.0781,44.9688 C26.0781,44.5313 26.0625,44.4063 25.9688,44.25 C25.8125,43.9844 25.5313,43.8438 25.2344,43.8438 C24.9375,43.8438 24.7344,43.9375 24.5156,44.25 L24.3438,44.1719 Z " fill="#000000"/><text fill="#000000" font-family="sans-serif" font-size="12" lengthAdjust="spacingAndGlyphs" textLength="124" x="36" y="52.6543">LogicImplementation</text><line style="stroke:#A80036;stroke-width:1.5;" x1="8" x2="162" y1="64.5" y2="64.5"/><line style="stroke:#A80036;stroke-width:1.5;" x1="8" x2="162" y1="72.5" y2="72.5"/></a><!--MD5=[fe052c315416e41c4768ed060a24f34e]
class LogicProxy--><a href="java:usantatecla.mastermind.distributed.LogicProxy" target="_top" title="java:usantatecla.mastermind.distributed.LogicProxy" xlink:actuate="onRequest" xlink:href="java:usantatecla.mastermind.distributed.LogicProxy" xlink:show="new" xlink:title="java:usantatecla.mastermind.distributed.LogicProxy" xlink:type="simple"><rect codeLine="30" fill="#FEFECE" filter="url(#fr51vpu8gvwdw)" height="86.4141" id="LogicProxy" style="stroke:#A80036;stroke-width:1.5;" width="97" x="507.5" y="346"/><ellipse cx="522.5" cy="362" fill="#ADD1B2" rx="11" ry="11" style="stroke:#A80036;stroke-width:1.0;"/><path d="M524.8438,357.6719 C523.9063,357.2344 523.3125,357.0938 522.4375,357.0938 C519.8125,357.0938 517.8125,359.1719 517.8125,361.8906 L517.8125,363.0156 C517.8125,365.5938 519.9219,367.4844 522.8125,367.4844 C524.0313,367.4844 525.1875,367.1875 525.9375,366.6406 C526.5156,366.2344 526.8438,365.7813 526.8438,365.3906 C526.8438,364.9375 526.4531,364.5469 525.9844,364.5469 C525.7656,364.5469 525.5625,364.625 525.375,364.8125 C524.9219,365.2969 524.9219,365.2969 524.7344,365.3906 C524.3125,365.6563 523.625,365.7813 522.8594,365.7813 C520.8125,365.7813 519.5156,364.6875 519.5156,362.9844 L519.5156,361.8906 C519.5156,360.1094 520.7656,358.7969 522.5,358.7969 C523.0781,358.7969 523.6875,358.9531 524.1563,359.2031 C524.6406,359.4844 524.8125,359.7031 524.9063,360.1094 C524.9688,360.5156 525,360.6406 525.1406,360.7656 C525.2813,360.9063 525.5156,361.0156 525.7344,361.0156 C526,361.0156 526.2656,360.875 526.4375,360.6563 C526.5469,360.5 526.5781,360.3125 526.5781,359.8906 L526.5781,358.4688 C526.5781,358.0313 526.5625,357.9063 526.4688,357.75 C526.3125,357.4844 526.0313,357.3438 525.7344,357.3438 C525.4375,357.3438 525.2344,357.4375 525.0156,357.75 L524.8438,357.6719 Z " fill="#000000"/><text fill="#000000" font-family="sans-serif" font-size="12" lengthAdjust="spacingAndGlyphs" textLength="65" x="536.5" y="366.1543">LogicProxy</text><line style="stroke:#A80036;stroke-width:1.5;" x1="508.5" x2="603.5" y1="378" y2="378"/><rect fill="none" height="6" style="stroke:#C82930;stroke-width:1.0;" width="6" x="515.5" y="386"/><text fill="#000000" font-family="sans-serif" font-size="11" lengthAdjust="spacingAndGlyphs" textLength="61" x="527.5" y="392.2104">TCPIP tcpip</text><line style="stroke:#A80036;stroke-width:1.5;" x1="508.5" x2="603.5" y1="398.8047" y2="398.8047"/><ellipse cx="518.5" cy="409.8047" fill="#84BE84" rx="3" ry="3" style="stroke:#038048;stroke-width:1.0;"/><text fill="#000000" font-family="sans-serif" font-size="11" lengthAdjust="spacingAndGlyphs" textLength="68" x="527.5" y="413.0151">LogicProxy()</text><ellipse cx="518.5" cy="422.6094" fill="#84BE84" rx="3" ry="3" style="stroke:#038048;stroke-width:1.0;"/><text fill="#000000" font-family="sans-serif" font-size="11" lengthAdjust="spacingAndGlyphs" textLength="66" x="527.5" y="425.8198">void close()</text></a><!--MD5=[42fa18dda7351a0ae87d9497de925436]
class Logic--><a href="java:usantatecla.mastermind.controllers.Logic" target="_top" title="java:usantatecla.mastermind.controllers.Logic" xlink:actuate="onRequest" xlink:href="java:usantatecla.mastermind.controllers.Logic" xlink:show="new" xlink:title="java:usantatecla.mastermind.controllers.Logic" xlink:type="simple"><rect codeLine="13" fill="#FEFECE" filter="url(#fr51vpu8gvwdw)" height="48" id="Logic" style="stroke:#A80036;stroke-width:1.5;" width="64" x="473" y="202"/><ellipse cx="488" cy="218" fill="#ADD1B2" rx="11" ry="11" style="stroke:#A80036;stroke-width:1.0;"/><path d="M490.3438,213.6719 C489.4063,213.2344 488.8125,213.0938 487.9375,213.0938 C485.3125,213.0938 483.3125,215.1719 483.3125,217.8906 L483.3125,219.0156 C483.3125,221.5938 485.4219,223.4844 488.3125,223.4844 C489.5313,223.4844 490.6875,223.1875 491.4375,222.6406 C492.0156,222.2344 492.3438,221.7813 492.3438,221.3906 C492.3438,220.9375 491.9531,220.5469 491.4844,220.5469 C491.2656,220.5469 491.0625,220.625 490.875,220.8125 C490.4219,221.2969 490.4219,221.2969 490.2344,221.3906 C489.8125,221.6563 489.125,221.7813 488.3594,221.7813 C486.3125,221.7813 485.0156,220.6875 485.0156,218.9844 L485.0156,217.8906 C485.0156,216.1094 486.2656,214.7969 488,214.7969 C488.5781,214.7969 489.1875,214.9531 489.6563,215.2031 C490.1406,215.4844 490.3125,215.7031 490.4063,216.1094 C490.4688,216.5156 490.5,216.6406 490.6406,216.7656 C490.7813,216.9063 491.0156,217.0156 491.2344,217.0156 C491.5,217.0156 491.7656,216.875 491.9375,216.6563 C492.0469,216.5 492.0781,216.3125 492.0781,215.8906 L492.0781,214.4688 C492.0781,214.0313 492.0625,213.9063 491.9688,213.75 C491.8125,213.4844 491.5313,213.3438 491.2344,213.3438 C490.9375,213.3438 490.7344,213.4375 490.5156,213.75 L490.3438,213.6719 Z " fill="#000000"/><text fill="#000000" font-family="sans-serif" font-size="12" lengthAdjust="spacingAndGlyphs" textLength="32" x="502" y="222.1543">Logic</text><line style="stroke:#A80036;stroke-width:1.5;" x1="474" x2="536" y1="234" y2="234"/><line style="stroke:#A80036;stroke-width:1.5;" x1="474" x2="536" y1="242" y2="242"/></a><!--MD5=[6b6c8aa0b8bbaf2a05e6c6c215620c83]
class MastermindServer--><a href="java:usantatecla.mastermind.distributed.MastermindServer" target="_top" title="java:usantatecla.mastermind.distributed.MastermindServer" xlink:actuate="onRequest" xlink:href="java:usantatecla.mastermind.distributed.MastermindServer" xlink:show="new" xlink:title="java:usantatecla.mastermind.distributed.MastermindServer" xlink:type="simple"><rect codeLine="16" fill="#FEFECE" filter="url(#fr51vpu8gvwdw)" height="99.2188" id="MastermindServer" style="stroke:#A80036;stroke-width:1.5;" width="258" x="198" y="7"/><ellipse cx="267.25" cy="23" fill="#ADD1B2" rx="11" ry="11" style="stroke:#A80036;stroke-width:1.0;"/><path d="M269.5938,18.6719 C268.6563,18.2344 268.0625,18.0938 267.1875,18.0938 C264.5625,18.0938 262.5625,20.1719 262.5625,22.8906 L262.5625,24.0156 C262.5625,26.5938 264.6719,28.4844 267.5625,28.4844 C268.7813,28.4844 269.9375,28.1875 270.6875,27.6406 C271.2656,27.2344 271.5938,26.7813 271.5938,26.3906 C271.5938,25.9375 271.2031,25.5469 270.7344,25.5469 C270.5156,25.5469 270.3125,25.625 270.125,25.8125 C269.6719,26.2969 269.6719,26.2969 269.4844,26.3906 C269.0625,26.6563 268.375,26.7813 267.6094,26.7813 C265.5625,26.7813 264.2656,25.6875 264.2656,23.9844 L264.2656,22.8906 C264.2656,21.1094 265.5156,19.7969 267.25,19.7969 C267.8281,19.7969 268.4375,19.9531 268.9063,20.2031 C269.3906,20.4844 269.5625,20.7031 269.6563,21.1094 C269.7188,21.5156 269.75,21.6406 269.8906,21.7656 C270.0313,21.9063 270.2656,22.0156 270.4844,22.0156 C270.75,22.0156 271.0156,21.875 271.1875,21.6563 C271.2969,21.5 271.3281,21.3125 271.3281,20.8906 L271.3281,19.4688 C271.3281,19.0313 271.3125,18.9063 271.2188,18.75 C271.0625,18.4844 270.7813,18.3438 270.4844,18.3438 C270.1875,18.3438 269.9844,18.4375 269.7656,18.75 L269.5938,18.6719 Z " fill="#000000"/><text fill="#000000" font-family="sans-serif" font-size="12" lengthAdjust="spacingAndGlyphs" textLength="111" x="287.75" y="27.1543">MastermindServer</text><line style="stroke:#A80036;stroke-width:1.5;" x1="199" x2="455" y1="39" y2="39"/><rect fill="none" height="6" style="stroke:#C82930;stroke-width:1.0;" width="6" x="206" y="47"/><text fill="#000000" font-family="sans-serif" font-size="11" lengthAdjust="spacingAndGlyphs" textLength="232" x="218" y="53.2104">DispatcherPrototype dispatcherPrototype</text><line style="stroke:#A80036;stroke-width:1.5;" x1="199" x2="455" y1="59.8047" y2="59.8047"/><rect fill="#F24D5C" height="6" style="stroke:#C82930;stroke-width:1.0;" width="6" x="206" y="67.8047"/><text fill="#000000" font-family="sans-serif" font-size="11" lengthAdjust="spacingAndGlyphs" textLength="113" x="218" y="74.0151">MastermindServer()</text><rect fill="#F24D5C" height="6" style="stroke:#C82930;stroke-width:1.0;" width="6" x="206" y="80.6094"/><text fill="#000000" font-family="sans-serif" font-size="11" lengthAdjust="spacingAndGlyphs" textLength="69" x="218" y="86.8198">void serve()</text><ellipse cx="209" cy="96.4141" fill="#84BE84" rx="3" ry="3" style="stroke:#038048;stroke-width:1.0;"/><text fill="#000000" font-family="sans-serif" font-size="11" lengthAdjust="spacingAndGlyphs" text-decoration="underline" textLength="133" x="218" y="99.6245">void main(String[] args)</text></a><!--MD5=[36f18920ca5011e283121c2d2fc94edb]
class MastermindClient--><a href="java:usantatecla.mastermind.distributed.MastermindClient" target="_top" title="java:usantatecla.mastermind.distributed.MastermindClient" xlink:actuate="onRequest" xlink:href="java:usantatecla.mastermind.distributed.MastermindClient" xlink:show="new" xlink:title="java:usantatecla.mastermind.distributed.MastermindClient" xlink:type="simple"><rect codeLine="25" fill="#FEFECE" filter="url(#fr51vpu8gvwdw)" height="86.4141" id="MastermindClient" style="stroke:#A80036;stroke-width:1.5;" width="159" x="572.5" y="183"/><ellipse cx="598.3" cy="199" fill="#ADD1B2" rx="11" ry="11" style="stroke:#A80036;stroke-width:1.0;"/><path d="M600.6438,194.6719 C599.7063,194.2344 599.1125,194.0938 598.2375,194.0938 C595.6125,194.0938 593.6125,196.1719 593.6125,198.8906 L593.6125,200.0156 C593.6125,202.5938 595.7219,204.4844 598.6125,204.4844 C599.8313,204.4844 600.9875,204.1875 601.7375,203.6406 C602.3156,203.2344 602.6438,202.7813 602.6438,202.3906 C602.6438,201.9375 602.2531,201.5469 601.7844,201.5469 C601.5656,201.5469 601.3625,201.625 601.175,201.8125 C600.7219,202.2969 600.7219,202.2969 600.5344,202.3906 C600.1125,202.6563 599.425,202.7813 598.6594,202.7813 C596.6125,202.7813 595.3156,201.6875 595.3156,199.9844 L595.3156,198.8906 C595.3156,197.1094 596.5656,195.7969 598.3,195.7969 C598.8781,195.7969 599.4875,195.9531 599.9563,196.2031 C600.4406,196.4844 600.6125,196.7031 600.7063,197.1094 C600.7688,197.5156 600.8,197.6406 600.9406,197.7656 C601.0813,197.9063 601.3156,198.0156 601.5344,198.0156 C601.8,198.0156 602.0656,197.875 602.2375,197.6563 C602.3469,197.5 602.3781,197.3125 602.3781,196.8906 L602.3781,195.4688 C602.3781,195.0313 602.3625,194.9063 602.2688,194.75 C602.1125,194.4844 601.8313,194.3438 601.5344,194.3438 C601.2375,194.3438 601.0344,194.4375 600.8156,194.75 L600.6438,194.6719 Z " fill="#000000"/><text fill="#000000" font-family="sans-serif" font-size="12" lengthAdjust="spacingAndGlyphs" textLength="103" x="614.7" y="203.1543">MastermindClient</text><line style="stroke:#A80036;stroke-width:1.5;" x1="573.5" x2="730.5" y1="215" y2="215"/><line style="stroke:#A80036;stroke-width:1.5;" x1="573.5" x2="730.5" y1="223" y2="223"/><polygon fill="#FFFF44" points="583.5,229,587.5,233,583.5,237,579.5,233" style="stroke:#B38D22;stroke-width:1.0;"/><text fill="#000000" font-family="sans-serif" font-size="11" lengthAdjust="spacingAndGlyphs" textLength="107" x="592.5" y="237.2104">Logic createLogic()</text><polygon fill="#FFFF44" points="583.5,241.8047,587.5,245.8047,583.5,249.8047,579.5,245.8047" style="stroke:#B38D22;stroke-width:1.0;"/><text fill="#000000" font-family="sans-serif" font-size="11" lengthAdjust="spacingAndGlyphs" textLength="60" x="592.5" y="250.0151">void play()</text><ellipse cx="583.5" cy="259.6094" fill="#84BE84" rx="3" ry="3" style="stroke:#038048;stroke-width:1.0;"/><text fill="#000000" font-family="sans-serif" font-size="11" lengthAdjust="spacingAndGlyphs" text-decoration="underline" textLength="133" x="592.5" y="262.8198">void main(String[] args)</text></a><!--MD5=[7283a9eed84464550b6d5ebf39c68b05]
class Mastermind--><a href="java:usantatecla.mastermind.Mastermind" target="_top" title="java:usantatecla.mastermind.Mastermind" xlink:actuate="onRequest" xlink:href="java:usantatecla.mastermind.Mastermind" xlink:show="new" xlink:title="java:usantatecla.mastermind.Mastermind" xlink:type="simple"><rect codeLine="33" fill="#FEFECE" filter="url(#fr51vpu8gvwdw)" height="48" id="Mastermind" style="stroke:#A80036;stroke-width:1.5;" width="102" x="601" y="32.5"/><ellipse cx="616" cy="48.5" fill="#ADD1B2" rx="11" ry="11" style="stroke:#A80036;stroke-width:1.0;"/><path d="M618.3438,44.1719 C617.4063,43.7344 616.8125,43.5938 615.9375,43.5938 C613.3125,43.5938 611.3125,45.6719 611.3125,48.3906 L611.3125,49.5156 C611.3125,52.0938 613.4219,53.9844 616.3125,53.9844 C617.5313,53.9844 618.6875,53.6875 619.4375,53.1406 C620.0156,52.7344 620.3438,52.2813 620.3438,51.8906 C620.3438,51.4375 619.9531,51.0469 619.4844,51.0469 C619.2656,51.0469 619.0625,51.125 618.875,51.3125 C618.4219,51.7969 618.4219,51.7969 618.2344,51.8906 C617.8125,52.1563 617.125,52.2813 616.3594,52.2813 C614.3125,52.2813 613.0156,51.1875 613.0156,49.4844 L613.0156,48.3906 C613.0156,46.6094 614.2656,45.2969 616,45.2969 C616.5781,45.2969 617.1875,45.4531 617.6563,45.7031 C618.1406,45.9844 618.3125,46.2031 618.4063,46.6094 C618.4688,47.0156 618.5,47.1406 618.6406,47.2656 C618.7813,47.4063 619.0156,47.5156 619.2344,47.5156 C619.5,47.5156 619.7656,47.375 619.9375,47.1563 C620.0469,47 620.0781,46.8125 620.0781,46.3906 L620.0781,44.9688 C620.0781,44.5313 620.0625,44.4063 619.9688,44.25 C619.8125,43.9844 619.5313,43.8438 619.2344,43.8438 C618.9375,43.8438 618.7344,43.9375 618.5156,44.25 L618.3438,44.1719 Z " fill="#000000"/><text fill="#000000" font-family="sans-serif" font-size="12" lengthAdjust="spacingAndGlyphs" textLength="70" x="630" y="52.6543">Mastermind</text><line style="stroke:#A80036;stroke-width:1.5;" x1="602" x2="702" y1="64.5" y2="64.5"/><line style="stroke:#A80036;stroke-width:1.5;" x1="602" x2="702" y1="72.5" y2="72.5"/></a><!--MD5=[f5a0a48c3dd0b4d2d3d53fe07a882a4a]
reverse link LogicImplementation to LogicImplementationServer--><path codeLine="6" d="M115.892,96.7 C139.679,126.885 172.049,167.959 193.691,195.422 " fill="none" id="LogicImplementation-backto-LogicImplementationServer" style="stroke:#A80036;stroke-width:1.0;"/><polygon fill="none" points="110.235,100.831,103.354,80.79,121.231,92.166,110.235,100.831" style="stroke:#A80036;stroke-width:1.0;"/><!--MD5=[7aedc702bc95bc1acdb820fcb2018571]
reverse link Logic to LogicProxy--><path codeLine="15" d="M518.451,269.462 C525.936,293.091 535.219,322.396 542.682,345.957 " fill="none" id="Logic-backto-LogicProxy" style="stroke:#A80036;stroke-width:1.0;"/><polygon fill="none" points="511.674,271.248,512.307,250.067,525.02,267.02,511.674,271.248" style="stroke:#A80036;stroke-width:1.0;"/><!--MD5=[0df6af0840bd520859ede13c6231ebd3]
link MastermindServer to LogicImplementationServer--><path codeLine="24" d="M294.888,106.398 C277.098,133.488 255.419,166.498 239.454,190.808 " fill="none" id="MastermindServer-to-LogicImplementationServer" style="stroke:#A80036;stroke-width:1.0;"/><polygon fill="#A80036" points="236.542,195.243,244.826,189.9161,239.2867,191.0637,238.1391,185.5245,236.542,195.243" style="stroke:#A80036;stroke-width:1.0;"/><text fill="#000000" font-family="sans-serif" font-size="13" lengthAdjust="spacingAndGlyphs" textLength="29" x="277" y="149.0669">logic</text><text fill="#000000" font-family="sans-serif" font-size="13" lengthAdjust="spacingAndGlyphs" textLength="8" x="231.7475" y="184.4532">1</text><!--MD5=[b2cb91b8a793ac5761ef850e2e354b65]
link MastermindClient to LogicProxy--><path codeLine="32" d="M626.777,269.301 C613.549,291.486 597.315,318.711 583.734,341.4883 " fill="none" id="MastermindClient-to-LogicProxy" style="stroke:#A80036;stroke-width:1.0;"/><polygon fill="#A80036" points="581.054,345.9817,589.099,340.3003,583.6148,341.6873,582.2279,336.2031,581.054,345.9817" style="stroke:#A80036;stroke-width:1.0;"/><text fill="#000000" font-family="sans-serif" font-size="13" lengthAdjust="spacingAndGlyphs" textLength="66" x="608" y="312.0669">logicProxy</text><text fill="#000000" font-family="sans-serif" font-size="13" lengthAdjust="spacingAndGlyphs" textLength="8" x="576.4095" y="334.9752">1</text><!--MD5=[4e23d0ff734cf0f863c454a3be127a59]
reverse link Mastermind to MastermindClient--><path codeLine="35" d="M652,100.995 C652,126.234 652,157.872 652,182.875 " fill="none" id="Mastermind-backto-MastermindClient" style="stroke:#A80036;stroke-width:1.0;"/><polygon fill="none" points="645,100.79,652,80.79,659,100.79,645,100.79" style="stroke:#A80036;stroke-width:1.0;"/><!--MD5=[3da20950fed8eea96790c038da5dddcc]
@startuml
class LogicImplementationServer [[java:usantatecla.mastermind.distributed.LogicImplementationServer]] {
	+void createDispatchers(DispatcherPrototype dispatcherPrototype)
}
class LogicImplementation [[java:usantatecla.mastermind.controllers.implementation.LogicImplementation]] {
}
LogicImplementation <|- - LogicImplementationServer

class LogicProxy [[java:usantatecla.mastermind.distributed.LogicProxy]] {
	-TCPIP tcpip
	+LogicProxy()
	+void close()
}
class Logic [[java:usantatecla.mastermind.controllers.Logic]] {
}
Logic <|- - LogicProxy
class MastermindServer [[java:usantatecla.mastermind.distributed.MastermindServer]] {
	-DispatcherPrototype dispatcherPrototype
	-MastermindServer()
	-void serve()
	+{static}void main(String[] args)
}
class LogicImplementationServer [[java:usantatecla.mastermind.distributed.LogicImplementationServer]] {
}
MastermindServer - -> "1" LogicImplementationServer : logic
class MastermindClient [[java:usantatecla.mastermind.distributed.MastermindClient]] {
	#Logic createLogic()
	#void play()
	+{static}void main(String[] args)
}
class LogicProxy [[java:usantatecla.mastermind.distributed.LogicProxy]] {
}
MastermindClient - -> "1" LogicProxy : logicProxy
class Mastermind [[java:usantatecla.mastermind.Mastermind]] {
}
Mastermind <|- - MastermindClient
@enduml

PlantUML version 1.2020.22(Sun Dec 06 09:36:27 UTC 2020)
(GPL source distribution)
Java Runtime: Java(TM) SE Runtime Environment
JVM: Java HotSpot(TM) 64-Bit Server VM
Default Encoding: UTF-8
Language: en
Country: US
--></g></svg>