<?xml version="1.0" encoding="UTF-8" standalone="no"?><svg xmlns="http://www.w3.org/2000/svg" xmlns:xlink="http://www.w3.org/1999/xlink" contentScriptType="application/ecmascript" contentStyleType="text/css" height="574px" preserveAspectRatio="none" style="width:1209px;height:574px;" version="1.1" viewBox="0 0 1209 574" width="1209px" zoomAndPan="magnify"><defs><filter height="300%" id="f65ykjg46myig" width="300%" x="-1" y="-1"><feGaussianBlur result="blurOut" stdDeviation="2.0"/><feColorMatrix in="blurOut" result="blurOut2" type="matrix" values="0 0 0 0 0 0 0 0 0 0 0 0 0 0 0 0 0 0 .4 0"/><feOffset dx="4.0" dy="4.0" in="blurOut2" result="blurOut3"/><feBlend in="SourceGraphic" in2="blurOut3" mode="normal"/></filter></defs><g><!--MD5=[50ec68aa5633d5a6e3b2734b9039b9bc]
cluster mastermind.controllers.implementation--><polygon fill="#FFFFFF" filter="url(#f65ykjg46myig)" points="16,138,348,138,355,160.2969,1192,160.2969,1192,567,16,567,16,138" style="stroke:#000000;stroke-width:1.5;"/><line style="stroke:#000000;stroke-width:1.5;" x1="16" x2="355" y1="160.2969" y2="160.2969"/><text fill="#000000" font-family="sans-serif" font-size="14" font-weight="bold" lengthAdjust="spacingAndGlyphs" textLength="326" x="20" y="152.9951">mastermind.controllers.implementation</text><!--MD5=[f4a8416df5d5f7c80a7d3a30f9e0f7a6]
cluster mastermind.controllers--><polygon fill="#FFFFFF" filter="url(#f65ykjg46myig)" points="129,6,327,6,334,28.2969,704,28.2969,704,105,129,105,129,6" style="stroke:#000000;stroke-width:1.5;"/><line style="stroke:#000000;stroke-width:1.5;" x1="129" x2="334" y1="28.2969" y2="28.2969"/><text fill="#000000" font-family="sans-serif" font-size="14" font-weight="bold" lengthAdjust="spacingAndGlyphs" textLength="192" x="133" y="20.9951">mastermind.controllers</text><!--MD5=[1ccaea6389522240d1d424d636be96b4]
class LogicImplementation--><a href="java:usantatecla.mastermind.controllers.implementation.LogicImplementation" target="_top" title="java:usantatecla.mastermind.controllers.implementation.LogicImplementation" xlink:actuate="onRequest" xlink:href="java:usantatecla.mastermind.controllers.implementation.LogicImplementation" xlink:show="new" xlink:title="java:usantatecla.mastermind.controllers.implementation.LogicImplementation" xlink:type="simple"><rect codeLine="2" fill="#FEFECE" filter="url(#f65ykjg46myig)" height="60.8047" id="LogicImplementation" style="stroke:#A80036;stroke-width:1.5;" width="156" x="503" y="173"/><ellipse cx="518" cy="189" fill="#ADD1B2" rx="11" ry="11" style="stroke:#A80036;stroke-width:1.0;"/><path d="M520.3438,184.6719 C519.4063,184.2344 518.8125,184.0938 517.9375,184.0938 C515.3125,184.0938 513.3125,186.1719 513.3125,188.8906 L513.3125,190.0156 C513.3125,192.5938 515.4219,194.4844 518.3125,194.4844 C519.5313,194.4844 520.6875,194.1875 521.4375,193.6406 C522.0156,193.2344 522.3438,192.7813 522.3438,192.3906 C522.3438,191.9375 521.9531,191.5469 521.4844,191.5469 C521.2656,191.5469 521.0625,191.625 520.875,191.8125 C520.4219,192.2969 520.4219,192.2969 520.2344,192.3906 C519.8125,192.6563 519.125,192.7813 518.3594,192.7813 C516.3125,192.7813 515.0156,191.6875 515.0156,189.9844 L515.0156,188.8906 C515.0156,187.1094 516.2656,185.7969 518,185.7969 C518.5781,185.7969 519.1875,185.9531 519.6563,186.2031 C520.1406,186.4844 520.3125,186.7031 520.4063,187.1094 C520.4688,187.5156 520.5,187.6406 520.6406,187.7656 C520.7813,187.9063 521.0156,188.0156 521.2344,188.0156 C521.5,188.0156 521.7656,187.875 521.9375,187.6563 C522.0469,187.5 522.0781,187.3125 522.0781,186.8906 L522.0781,185.4688 C522.0781,185.0313 522.0625,184.9063 521.9688,184.75 C521.8125,184.4844 521.5313,184.3438 521.2344,184.3438 C520.9375,184.3438 520.7344,184.4375 520.5156,184.75 L520.3438,184.6719 Z " fill="#000000"/><text fill="#000000" font-family="sans-serif" font-size="12" lengthAdjust="spacingAndGlyphs" textLength="124" x="532" y="193.1543">LogicImplementation</text><line style="stroke:#A80036;stroke-width:1.5;" x1="504" x2="658" y1="205" y2="205"/><line style="stroke:#A80036;stroke-width:1.5;" x1="504" x2="658" y1="213" y2="213"/><ellipse cx="514" cy="224" fill="#84BE84" rx="3" ry="3" style="stroke:#038048;stroke-width:1.0;"/><text fill="#000000" font-family="sans-serif" font-size="11" lengthAdjust="spacingAndGlyphs" textLength="127" x="523" y="227.2104">LogicImplementation()</text></a><!--MD5=[cb75e471c0a6139a0b8fee8ce5ebd22d]
class StartControllerImplementation--><a href="java:usantatecla.mastermind.controllers.implementation.StartControllerImplementation" target="_top" title="java:usantatecla.mastermind.controllers.implementation.StartControllerImplementation" xlink:actuate="onRequest" xlink:href="java:usantatecla.mastermind.controllers.implementation.StartControllerImplementation" xlink:show="new" xlink:title="java:usantatecla.mastermind.controllers.implementation.StartControllerImplementation" xlink:type="simple"><rect codeLine="19" fill="#FEFECE" filter="url(#f65ykjg46myig)" height="86.4141" id="StartControllerImplementation" style="stroke:#A80036;stroke-width:1.5;" width="298" x="878" y="388"/><ellipse cx="933.25" cy="404" fill="#ADD1B2" rx="11" ry="11" style="stroke:#A80036;stroke-width:1.0;"/><path d="M935.5938,399.6719 C934.6563,399.2344 934.0625,399.0938 933.1875,399.0938 C930.5625,399.0938 928.5625,401.1719 928.5625,403.8906 L928.5625,405.0156 C928.5625,407.5938 930.6719,409.4844 933.5625,409.4844 C934.7813,409.4844 935.9375,409.1875 936.6875,408.6406 C937.2656,408.2344 937.5938,407.7813 937.5938,407.3906 C937.5938,406.9375 937.2031,406.5469 936.7344,406.5469 C936.5156,406.5469 936.3125,406.625 936.125,406.8125 C935.6719,407.2969 935.6719,407.2969 935.4844,407.3906 C935.0625,407.6563 934.375,407.7813 933.6094,407.7813 C931.5625,407.7813 930.2656,406.6875 930.2656,404.9844 L930.2656,403.8906 C930.2656,402.1094 931.5156,400.7969 933.25,400.7969 C933.8281,400.7969 934.4375,400.9531 934.9063,401.2031 C935.3906,401.4844 935.5625,401.7031 935.6563,402.1094 C935.7188,402.5156 935.75,402.6406 935.8906,402.7656 C936.0313,402.9063 936.2656,403.0156 936.4844,403.0156 C936.75,403.0156 937.0156,402.875 937.1875,402.6563 C937.2969,402.5 937.3281,402.3125 937.3281,401.8906 L937.3281,400.4688 C937.3281,400.0313 937.3125,399.9063 937.2188,399.75 C937.0625,399.4844 936.7813,399.3438 936.4844,399.3438 C936.1875,399.3438 935.9844,399.4375 935.7656,399.75 L935.5938,399.6719 Z " fill="#000000"/><text fill="#000000" font-family="sans-serif" font-size="12" lengthAdjust="spacingAndGlyphs" textLength="179" x="953.75" y="408.1543">StartControllerImplementation</text><line style="stroke:#A80036;stroke-width:1.5;" x1="879" x2="1175" y1="420" y2="420"/><polygon fill="none" points="889,427,885,433,893,433" style="stroke:#1963A0;stroke-width:1.0;"/><text fill="#000000" font-family="sans-serif" font-size="11" lengthAdjust="spacingAndGlyphs" textLength="272" x="898" y="434.2104">SessionImplementation sessionImplementation</text><line style="stroke:#A80036;stroke-width:1.5;" x1="879" x2="1175" y1="440.8047" y2="440.8047"/><ellipse cx="889" cy="451.8047" fill="#84BE84" rx="3" ry="3" style="stroke:#038048;stroke-width:1.0;"/><text fill="#000000" font-family="sans-serif" font-size="11" lengthAdjust="spacingAndGlyphs" textLength="272" x="898" y="455.0151">StartControllerImplementation(Session session)</text><ellipse cx="889" cy="464.6094" fill="#84BE84" rx="3" ry="3" style="stroke:#038048;stroke-width:1.0;"/><text fill="#000000" font-family="sans-serif" font-size="11" lengthAdjust="spacingAndGlyphs" textLength="61" x="898" y="467.8198">void start()</text></a><!--MD5=[cfa01b4e8f6f81ae52744397ce0075e7]
class PlayControllerImplementation--><a href="java:usantatecla.mastermind.controllers.implementation.PlayControllerImplementation" target="_top" title="java:usantatecla.mastermind.controllers.implementation.PlayControllerImplementation" xlink:actuate="onRequest" xlink:href="java:usantatecla.mastermind.controllers.implementation.PlayControllerImplementation" xlink:show="new" xlink:title="java:usantatecla.mastermind.controllers.implementation.PlayControllerImplementation" xlink:type="simple"><rect codeLine="24" fill="#FEFECE" filter="url(#f65ykjg46myig)" height="240.0703" id="PlayControllerImplementation" style="stroke:#A80036;stroke-width:1.5;" width="457" x="385.5" y="311"/><ellipse cx="522.75" cy="327" fill="#ADD1B2" rx="11" ry="11" style="stroke:#A80036;stroke-width:1.0;"/><path d="M525.0938,322.6719 C524.1563,322.2344 523.5625,322.0938 522.6875,322.0938 C520.0625,322.0938 518.0625,324.1719 518.0625,326.8906 L518.0625,328.0156 C518.0625,330.5938 520.1719,332.4844 523.0625,332.4844 C524.2813,332.4844 525.4375,332.1875 526.1875,331.6406 C526.7656,331.2344 527.0938,330.7813 527.0938,330.3906 C527.0938,329.9375 526.7031,329.5469 526.2344,329.5469 C526.0156,329.5469 525.8125,329.625 525.625,329.8125 C525.1719,330.2969 525.1719,330.2969 524.9844,330.3906 C524.5625,330.6563 523.875,330.7813 523.1094,330.7813 C521.0625,330.7813 519.7656,329.6875 519.7656,327.9844 L519.7656,326.8906 C519.7656,325.1094 521.0156,323.7969 522.75,323.7969 C523.3281,323.7969 523.9375,323.9531 524.4063,324.2031 C524.8906,324.4844 525.0625,324.7031 525.1563,325.1094 C525.2188,325.5156 525.25,325.6406 525.3906,325.7656 C525.5313,325.9063 525.7656,326.0156 525.9844,326.0156 C526.25,326.0156 526.5156,325.875 526.6875,325.6563 C526.7969,325.5 526.8281,325.3125 526.8281,324.8906 L526.8281,323.4688 C526.8281,323.0313 526.8125,322.9063 526.7188,322.75 C526.5625,322.4844 526.2813,322.3438 525.9844,322.3438 C525.6875,322.3438 525.4844,322.4375 525.2656,322.75 L525.0938,322.6719 Z " fill="#000000"/><text fill="#000000" font-family="sans-serif" font-size="12" lengthAdjust="spacingAndGlyphs" textLength="174" x="543.25" y="331.1543">PlayControllerImplementation</text><line style="stroke:#A80036;stroke-width:1.5;" x1="386.5" x2="841.5" y1="343" y2="343"/><rect fill="none" height="6" style="stroke:#C82930;stroke-width:1.0;" width="6" x="393.5" y="351"/><text fill="#000000" font-family="sans-serif" font-size="11" lengthAdjust="spacingAndGlyphs" textLength="182" x="405.5" y="357.2104">GameController gameController</text><rect fill="none" height="6" style="stroke:#C82930;stroke-width:1.0;" width="6" x="393.5" y="363.8047"/><text fill="#000000" font-family="sans-serif" font-size="11" lengthAdjust="spacingAndGlyphs" textLength="171" x="405.5" y="370.0151">UndoController undoController</text><rect fill="none" height="6" style="stroke:#C82930;stroke-width:1.0;" width="6" x="393.5" y="376.6094"/><text fill="#000000" font-family="sans-serif" font-size="11" lengthAdjust="spacingAndGlyphs" textLength="169" x="405.5" y="382.8198">RedoController redoController</text><line style="stroke:#A80036;stroke-width:1.5;" x1="386.5" x2="841.5" y1="389.4141" y2="389.4141"/><ellipse cx="396.5" cy="400.4141" fill="#84BE84" rx="3" ry="3" style="stroke:#038048;stroke-width:1.0;"/><text fill="#000000" font-family="sans-serif" font-size="11" lengthAdjust="spacingAndGlyphs" textLength="268" x="405.5" y="403.6245">PlayControllerImplementation(Session session)</text><ellipse cx="396.5" cy="413.2188" fill="#84BE84" rx="3" ry="3" style="stroke:#038048;stroke-width:1.0;"/><text fill="#000000" font-family="sans-serif" font-size="11" lengthAdjust="spacingAndGlyphs" textLength="64" x="405.5" y="416.4292">void undo()</text><ellipse cx="396.5" cy="426.0234" fill="#84BE84" rx="3" ry="3" style="stroke:#038048;stroke-width:1.0;"/><text fill="#000000" font-family="sans-serif" font-size="11" lengthAdjust="spacingAndGlyphs" textLength="62" x="405.5" y="429.2339">void redo()</text><ellipse cx="396.5" cy="438.8281" fill="#84BE84" rx="3" ry="3" style="stroke:#038048;stroke-width:1.0;"/><text fill="#000000" font-family="sans-serif" font-size="11" lengthAdjust="spacingAndGlyphs" textLength="111" x="405.5" y="442.0386">boolean undoable()</text><ellipse cx="396.5" cy="451.6328" fill="#84BE84" rx="3" ry="3" style="stroke:#038048;stroke-width:1.0;"/><text fill="#000000" font-family="sans-serif" font-size="11" lengthAdjust="spacingAndGlyphs" textLength="109" x="405.5" y="454.8433">boolean redoable()</text><ellipse cx="396.5" cy="464.4375" fill="#84BE84" rx="3" ry="3" style="stroke:#038048;stroke-width:1.0;"/><text fill="#000000" font-family="sans-serif" font-size="11" lengthAdjust="spacingAndGlyphs" textLength="107" x="405.5" y="467.6479">boolean isWinner()</text><ellipse cx="396.5" cy="477.2422" fill="#84BE84" rx="3" ry="3" style="stroke:#038048;stroke-width:1.0;"/><text fill="#000000" font-family="sans-serif" font-size="11" lengthAdjust="spacingAndGlyphs" textLength="105" x="405.5" y="480.4526">boolean isLooser()</text><ellipse cx="396.5" cy="490.0469" fill="#84BE84" rx="3" ry="3" style="stroke:#038048;stroke-width:1.0;"/><text fill="#000000" font-family="sans-serif" font-size="11" lengthAdjust="spacingAndGlyphs" textLength="97" x="405.5" y="493.2573">int getAttempts()</text><ellipse cx="396.5" cy="502.8516" fill="#84BE84" rx="3" ry="3" style="stroke:#038048;stroke-width:1.0;"/><text fill="#000000" font-family="sans-serif" font-size="11" lengthAdjust="spacingAndGlyphs" textLength="298" x="405.5" y="506.062">ProposedCombination getProposedCombination(int i)</text><ellipse cx="396.5" cy="515.6563" fill="#84BE84" rx="3" ry="3" style="stroke:#038048;stroke-width:1.0;"/><text fill="#000000" font-family="sans-serif" font-size="11" lengthAdjust="spacingAndGlyphs" textLength="122" x="405.5" y="518.8667">Result getResult(int i)</text><ellipse cx="396.5" cy="528.4609" fill="#84BE84" rx="3" ry="3" style="stroke:#038048;stroke-width:1.0;"/><text fill="#000000" font-family="sans-serif" font-size="11" lengthAdjust="spacingAndGlyphs" textLength="431" x="405.5" y="531.6714">void addProposedCombination(ProposedCombination proposedCombination)</text><ellipse cx="396.5" cy="541.2656" fill="#84BE84" rx="3" ry="3" style="stroke:#038048;stroke-width:1.0;"/><text fill="#000000" font-family="sans-serif" font-size="11" lengthAdjust="spacingAndGlyphs" textLength="116" x="405.5" y="544.4761">void continueState()</text></a><!--MD5=[ccab7110a6272649747b6914975fc7d8]
class ResumeControllerImplementation--><a href="java:usantatecla.mastermind.controllers.implementation.ResumeControllerImplementation" target="_top" title="java:usantatecla.mastermind.controllers.implementation.ResumeControllerImplementation" xlink:actuate="onRequest" xlink:href="java:usantatecla.mastermind.controllers.implementation.ResumeControllerImplementation" xlink:show="new" xlink:title="java:usantatecla.mastermind.controllers.implementation.ResumeControllerImplementation" xlink:type="simple"><rect codeLine="14" fill="#FEFECE" filter="url(#f65ykjg46myig)" height="86.4141" id="ResumeControllerImplementation" style="stroke:#A80036;stroke-width:1.5;" width="318" x="32" y="388"/><ellipse cx="87.25" cy="404" fill="#ADD1B2" rx="11" ry="11" style="stroke:#A80036;stroke-width:1.0;"/><path d="M89.5938,399.6719 C88.6563,399.2344 88.0625,399.0938 87.1875,399.0938 C84.5625,399.0938 82.5625,401.1719 82.5625,403.8906 L82.5625,405.0156 C82.5625,407.5938 84.6719,409.4844 87.5625,409.4844 C88.7813,409.4844 89.9375,409.1875 90.6875,408.6406 C91.2656,408.2344 91.5938,407.7813 91.5938,407.3906 C91.5938,406.9375 91.2031,406.5469 90.7344,406.5469 C90.5156,406.5469 90.3125,406.625 90.125,406.8125 C89.6719,407.2969 89.6719,407.2969 89.4844,407.3906 C89.0625,407.6563 88.375,407.7813 87.6094,407.7813 C85.5625,407.7813 84.2656,406.6875 84.2656,404.9844 L84.2656,403.8906 C84.2656,402.1094 85.5156,400.7969 87.25,400.7969 C87.8281,400.7969 88.4375,400.9531 88.9063,401.2031 C89.3906,401.4844 89.5625,401.7031 89.6563,402.1094 C89.7188,402.5156 89.75,402.6406 89.8906,402.7656 C90.0313,402.9063 90.2656,403.0156 90.4844,403.0156 C90.75,403.0156 91.0156,402.875 91.1875,402.6563 C91.2969,402.5 91.3281,402.3125 91.3281,401.8906 L91.3281,400.4688 C91.3281,400.0313 91.3125,399.9063 91.2188,399.75 C91.0625,399.4844 90.7813,399.3438 90.4844,399.3438 C90.1875,399.3438 89.9844,399.4375 89.7656,399.75 L89.5938,399.6719 Z " fill="#000000"/><text fill="#000000" font-family="sans-serif" font-size="12" lengthAdjust="spacingAndGlyphs" textLength="199" x="107.75" y="408.1543">ResumeControllerImplementation</text><line style="stroke:#A80036;stroke-width:1.5;" x1="33" x2="349" y1="420" y2="420"/><rect fill="none" height="6" style="stroke:#C82930;stroke-width:1.0;" width="6" x="40" y="428"/><text fill="#000000" font-family="sans-serif" font-size="11" lengthAdjust="spacingAndGlyphs" textLength="272" x="52" y="434.2104">SessionImplementation sessionImplementation</text><line style="stroke:#A80036;stroke-width:1.5;" x1="33" x2="349" y1="440.8047" y2="440.8047"/><ellipse cx="43" cy="451.8047" fill="#84BE84" rx="3" ry="3" style="stroke:#038048;stroke-width:1.0;"/><text fill="#000000" font-family="sans-serif" font-size="11" lengthAdjust="spacingAndGlyphs" textLength="292" x="52" y="455.0151">ResumeControllerImplementation(Session session)</text><ellipse cx="43" cy="464.6094" fill="#84BE84" rx="3" ry="3" style="stroke:#038048;stroke-width:1.0;"/><text fill="#000000" font-family="sans-serif" font-size="11" lengthAdjust="spacingAndGlyphs" textLength="189" x="52" y="467.8198">void resume(boolean newGame)</text></a><!--MD5=[1a47bbf44ccee225df9b18c5b6629853]
class ResumeController--><a href="java:usantatecla.mastermind.controllers.ResumeController" target="_top" title="java:usantatecla.mastermind.controllers.ResumeController" xlink:actuate="onRequest" xlink:href="java:usantatecla.mastermind.controllers.ResumeController" xlink:show="new" xlink:title="java:usantatecla.mastermind.controllers.ResumeController" xlink:type="simple"><rect codeLine="44" fill="#FEFECE" filter="url(#f65ykjg46myig)" height="48" id="ResumeController" style="stroke:#A80036;stroke-width:1.5;" width="139" x="145.5" y="41"/><ellipse cx="160.5" cy="57" fill="#ADD1B2" rx="11" ry="11" style="stroke:#A80036;stroke-width:1.0;"/><path d="M162.8438,52.6719 C161.9063,52.2344 161.3125,52.0938 160.4375,52.0938 C157.8125,52.0938 155.8125,54.1719 155.8125,56.8906 L155.8125,58.0156 C155.8125,60.5938 157.9219,62.4844 160.8125,62.4844 C162.0313,62.4844 163.1875,62.1875 163.9375,61.6406 C164.5156,61.2344 164.8438,60.7813 164.8438,60.3906 C164.8438,59.9375 164.4531,59.5469 163.9844,59.5469 C163.7656,59.5469 163.5625,59.625 163.375,59.8125 C162.9219,60.2969 162.9219,60.2969 162.7344,60.3906 C162.3125,60.6563 161.625,60.7813 160.8594,60.7813 C158.8125,60.7813 157.5156,59.6875 157.5156,57.9844 L157.5156,56.8906 C157.5156,55.1094 158.7656,53.7969 160.5,53.7969 C161.0781,53.7969 161.6875,53.9531 162.1563,54.2031 C162.6406,54.4844 162.8125,54.7031 162.9063,55.1094 C162.9688,55.5156 163,55.6406 163.1406,55.7656 C163.2813,55.9063 163.5156,56.0156 163.7344,56.0156 C164,56.0156 164.2656,55.875 164.4375,55.6563 C164.5469,55.5 164.5781,55.3125 164.5781,54.8906 L164.5781,53.4688 C164.5781,53.0313 164.5625,52.9063 164.4688,52.75 C164.3125,52.4844 164.0313,52.3438 163.7344,52.3438 C163.4375,52.3438 163.2344,52.4375 163.0156,52.75 L162.8438,52.6719 Z " fill="#000000"/><text fill="#000000" font-family="sans-serif" font-size="12" lengthAdjust="spacingAndGlyphs" textLength="107" x="174.5" y="61.1543">ResumeController</text><line style="stroke:#A80036;stroke-width:1.5;" x1="146.5" x2="283.5" y1="73" y2="73"/><line style="stroke:#A80036;stroke-width:1.5;" x1="146.5" x2="283.5" y1="81" y2="81"/></a><!--MD5=[cc8600b868f8dfab2c8d497bce62f90a]
class PlayController--><a href="java:usantatecla.mastermind.controllers.PlayController" target="_top" title="java:usantatecla.mastermind.controllers.PlayController" xlink:actuate="onRequest" xlink:href="java:usantatecla.mastermind.controllers.PlayController" xlink:show="new" xlink:title="java:usantatecla.mastermind.controllers.PlayController" xlink:type="simple"><rect codeLine="45" fill="#FEFECE" filter="url(#f65ykjg46myig)" height="48" id="PlayController" style="stroke:#A80036;stroke-width:1.5;" width="114" x="320" y="41"/><ellipse cx="335" cy="57" fill="#ADD1B2" rx="11" ry="11" style="stroke:#A80036;stroke-width:1.0;"/><path d="M337.3438,52.6719 C336.4063,52.2344 335.8125,52.0938 334.9375,52.0938 C332.3125,52.0938 330.3125,54.1719 330.3125,56.8906 L330.3125,58.0156 C330.3125,60.5938 332.4219,62.4844 335.3125,62.4844 C336.5313,62.4844 337.6875,62.1875 338.4375,61.6406 C339.0156,61.2344 339.3438,60.7813 339.3438,60.3906 C339.3438,59.9375 338.9531,59.5469 338.4844,59.5469 C338.2656,59.5469 338.0625,59.625 337.875,59.8125 C337.4219,60.2969 337.4219,60.2969 337.2344,60.3906 C336.8125,60.6563 336.125,60.7813 335.3594,60.7813 C333.3125,60.7813 332.0156,59.6875 332.0156,57.9844 L332.0156,56.8906 C332.0156,55.1094 333.2656,53.7969 335,53.7969 C335.5781,53.7969 336.1875,53.9531 336.6563,54.2031 C337.1406,54.4844 337.3125,54.7031 337.4063,55.1094 C337.4688,55.5156 337.5,55.6406 337.6406,55.7656 C337.7813,55.9063 338.0156,56.0156 338.2344,56.0156 C338.5,56.0156 338.7656,55.875 338.9375,55.6563 C339.0469,55.5 339.0781,55.3125 339.0781,54.8906 L339.0781,53.4688 C339.0781,53.0313 339.0625,52.9063 338.9688,52.75 C338.8125,52.4844 338.5313,52.3438 338.2344,52.3438 C337.9375,52.3438 337.7344,52.4375 337.5156,52.75 L337.3438,52.6719 Z " fill="#000000"/><text fill="#000000" font-family="sans-serif" font-size="12" lengthAdjust="spacingAndGlyphs" textLength="82" x="349" y="61.1543">PlayController</text><line style="stroke:#A80036;stroke-width:1.5;" x1="321" x2="433" y1="73" y2="73"/><line style="stroke:#A80036;stroke-width:1.5;" x1="321" x2="433" y1="81" y2="81"/></a><!--MD5=[47c371471411cfedeee61b1a5bdaee47]
class StartController--><a href="java:usantatecla.mastermind.controllers.StartController" target="_top" title="java:usantatecla.mastermind.controllers.StartController" xlink:actuate="onRequest" xlink:href="java:usantatecla.mastermind.controllers.StartController" xlink:show="new" xlink:title="java:usantatecla.mastermind.controllers.StartController" xlink:type="simple"><rect codeLine="46" fill="#FEFECE" filter="url(#f65ykjg46myig)" height="48" id="StartController" style="stroke:#A80036;stroke-width:1.5;" width="119" x="568.5" y="41"/><ellipse cx="583.5" cy="57" fill="#ADD1B2" rx="11" ry="11" style="stroke:#A80036;stroke-width:1.0;"/><path d="M585.8438,52.6719 C584.9063,52.2344 584.3125,52.0938 583.4375,52.0938 C580.8125,52.0938 578.8125,54.1719 578.8125,56.8906 L578.8125,58.0156 C578.8125,60.5938 580.9219,62.4844 583.8125,62.4844 C585.0313,62.4844 586.1875,62.1875 586.9375,61.6406 C587.5156,61.2344 587.8438,60.7813 587.8438,60.3906 C587.8438,59.9375 587.4531,59.5469 586.9844,59.5469 C586.7656,59.5469 586.5625,59.625 586.375,59.8125 C585.9219,60.2969 585.9219,60.2969 585.7344,60.3906 C585.3125,60.6563 584.625,60.7813 583.8594,60.7813 C581.8125,60.7813 580.5156,59.6875 580.5156,57.9844 L580.5156,56.8906 C580.5156,55.1094 581.7656,53.7969 583.5,53.7969 C584.0781,53.7969 584.6875,53.9531 585.1563,54.2031 C585.6406,54.4844 585.8125,54.7031 585.9063,55.1094 C585.9688,55.5156 586,55.6406 586.1406,55.7656 C586.2813,55.9063 586.5156,56.0156 586.7344,56.0156 C587,56.0156 587.2656,55.875 587.4375,55.6563 C587.5469,55.5 587.5781,55.3125 587.5781,54.8906 L587.5781,53.4688 C587.5781,53.0313 587.5625,52.9063 587.4688,52.75 C587.3125,52.4844 587.0313,52.3438 586.7344,52.3438 C586.4375,52.3438 586.2344,52.4375 586.0156,52.75 L585.8438,52.6719 Z " fill="#000000"/><text fill="#000000" font-family="sans-serif" font-size="12" lengthAdjust="spacingAndGlyphs" textLength="87" x="597.5" y="61.1543">StartController</text><line style="stroke:#A80036;stroke-width:1.5;" x1="569.5" x2="686.5" y1="73" y2="73"/><line style="stroke:#A80036;stroke-width:1.5;" x1="569.5" x2="686.5" y1="81" y2="81"/></a><!--MD5=[42fa18dda7351a0ae87d9497de925436]
class Logic--><a href="java:usantatecla.mastermind.controllers.Logic" target="_top" title="java:usantatecla.mastermind.controllers.Logic" xlink:actuate="onRequest" xlink:href="java:usantatecla.mastermind.controllers.Logic" xlink:show="new" xlink:title="java:usantatecla.mastermind.controllers.Logic" xlink:type="simple"><rect codeLine="47" fill="#FEFECE" filter="url(#f65ykjg46myig)" height="48" id="Logic" style="stroke:#A80036;stroke-width:1.5;" width="64" x="469" y="41"/><ellipse cx="484" cy="57" fill="#ADD1B2" rx="11" ry="11" style="stroke:#A80036;stroke-width:1.0;"/><path d="M486.3438,52.6719 C485.4063,52.2344 484.8125,52.0938 483.9375,52.0938 C481.3125,52.0938 479.3125,54.1719 479.3125,56.8906 L479.3125,58.0156 C479.3125,60.5938 481.4219,62.4844 484.3125,62.4844 C485.5313,62.4844 486.6875,62.1875 487.4375,61.6406 C488.0156,61.2344 488.3438,60.7813 488.3438,60.3906 C488.3438,59.9375 487.9531,59.5469 487.4844,59.5469 C487.2656,59.5469 487.0625,59.625 486.875,59.8125 C486.4219,60.2969 486.4219,60.2969 486.2344,60.3906 C485.8125,60.6563 485.125,60.7813 484.3594,60.7813 C482.3125,60.7813 481.0156,59.6875 481.0156,57.9844 L481.0156,56.8906 C481.0156,55.1094 482.2656,53.7969 484,53.7969 C484.5781,53.7969 485.1875,53.9531 485.6563,54.2031 C486.1406,54.4844 486.3125,54.7031 486.4063,55.1094 C486.4688,55.5156 486.5,55.6406 486.6406,55.7656 C486.7813,55.9063 487.0156,56.0156 487.2344,56.0156 C487.5,56.0156 487.7656,55.875 487.9375,55.6563 C488.0469,55.5 488.0781,55.3125 488.0781,54.8906 L488.0781,53.4688 C488.0781,53.0313 488.0625,52.9063 487.9688,52.75 C487.8125,52.4844 487.5313,52.3438 487.2344,52.3438 C486.9375,52.3438 486.7344,52.4375 486.5156,52.75 L486.3438,52.6719 Z " fill="#000000"/><text fill="#000000" font-family="sans-serif" font-size="12" lengthAdjust="spacingAndGlyphs" textLength="32" x="498" y="61.1543">Logic</text><line style="stroke:#A80036;stroke-width:1.5;" x1="470" x2="532" y1="73" y2="73"/><line style="stroke:#A80036;stroke-width:1.5;" x1="470" x2="532" y1="81" y2="81"/></a><!--MD5=[f708d299e3539ebe25e2835de7944598]
link LogicImplementation to StartControllerImplementation--><path codeLine="7" d="M659.15,221.106 C698.763,230.972 747.027,245.253 788,264 C856.897,295.523 927.095,347.083 973.424,384.385 " fill="none" id="LogicImplementation-to-StartControllerImplementation" style="stroke:#A80036;stroke-width:1.0;"/><polygon fill="#A80036" points="977.553,387.722,973.0677,378.9537,973.6643,384.5791,968.039,385.1756,977.553,387.722" style="stroke:#A80036;stroke-width:1.0;"/><text fill="#000000" font-family="sans-serif" font-size="13" lengthAdjust="spacingAndGlyphs" textLength="193" x="817" y="277.0669">startControllerImplementation</text><text fill="#000000" font-family="sans-serif" font-size="13" lengthAdjust="spacingAndGlyphs" textLength="8" x="961.3689" y="376.992">1</text><!--MD5=[d51492ab3cb0aa801bce96ae21b69c19]
link LogicImplementation to PlayControllerImplementation--><path codeLine="10" d="M585.257,234.294 C587.287,248.447 589.756,265.598 592,281 C593.171,289.035 594.382,297.314 595.605,305.658 " fill="none" id="LogicImplementation-to-PlayControllerImplementation" style="stroke:#A80036;stroke-width:1.0;"/><polygon fill="#A80036" points="596.368,310.861,599.0194,301.3757,595.6423,305.9139,591.1041,302.5369,596.368,310.861" style="stroke:#A80036;stroke-width:1.0;"/><text fill="#000000" font-family="sans-serif" font-size="13" lengthAdjust="spacingAndGlyphs" textLength="190" x="593" y="277.0669">playControllerImplementation</text><text fill="#000000" font-family="sans-serif" font-size="13" lengthAdjust="spacingAndGlyphs" textLength="8" x="586.9822" y="299.753">1</text><!--MD5=[4e624359728c6d95e1978bbb44f230d3]
link LogicImplementation to ResumeControllerImplementation--><path codeLine="13" d="M502.85,216.957 C460.961,225.89 409.568,240.592 368,264 C313.102,294.915 261.94,346.361 228.884,383.799 " fill="none" id="LogicImplementation-to-ResumeControllerImplementation" style="stroke:#A80036;stroke-width:1.0;"/><polygon fill="#A80036" points="225.344,387.834,234.2861,383.7061,228.6413,384.0753,228.2721,378.4305,225.344,387.834" style="stroke:#A80036;stroke-width:1.0;"/><text fill="#000000" font-family="sans-serif" font-size="13" lengthAdjust="spacingAndGlyphs" textLength="212" x="369" y="277.0669">resumeControllerImplementation</text><text fill="#000000" font-family="sans-serif" font-size="13" lengthAdjust="spacingAndGlyphs" textLength="8" x="222.1801" y="376.8036">1</text><!--MD5=[b936b49e746b03faab260b94bd426ca0]
reverse link ResumeController to ResumeControllerImplementation--><path codeLine="50" d="M212.141,109.365 C207.494,179.848 198.36,318.371 193.771,387.978 " fill="none" id="ResumeController-backto-ResumeControllerImplementation" style="stroke:#A80036;stroke-width:1.0;"/><polygon fill="none" points="205.18,108.542,213.48,89.046,219.149,109.463,205.18,108.542" style="stroke:#A80036;stroke-width:1.0;"/><!--MD5=[ffd9b2baf64008aaa1c8673b6682f482]
reverse link StartController to StartControllerImplementation--><path codeLine="51" d="M707.161,81.334 C799.576,103.852 948.707,155.554 1019,264 C1042.78,300.68 1041.21,352.083 1035.97,387.937 " fill="none" id="StartController-backto-StartControllerImplementation" style="stroke:#A80036;stroke-width:1.0;"/><polygon fill="none" points="705.408,88.114,687.507,76.776,708.571,74.476,705.408,88.114" style="stroke:#A80036;stroke-width:1.0;"/><!--MD5=[d10923b9181326058892b983a4fc2658]
reverse link PlayController to PlayControllerImplementation--><path codeLine="52" d="M353.917,107.083 C331.676,152.682 305.761,226.959 338,281 C345.707,293.919 362.943,308.201 385.235,322.657 " fill="none" id="PlayController-backto-PlayControllerImplementation" style="stroke:#A80036;stroke-width:1.0;"/><polygon fill="none" points="347.785,103.702,363.197,89.16,360.217,110.139,347.785,103.702" style="stroke:#A80036;stroke-width:1.0;"/><!--MD5=[b33e6e7a9cea4a9afba1ef8faec67684]
reverse link Logic to LogicImplementation--><path codeLine="53" d="M524.869,106.727 C537.254,127.858 552.116,153.217 563.436,172.531 " fill="none" id="Logic-backto-LogicImplementation" style="stroke:#A80036;stroke-width:1.0;"/><polygon fill="none" points="518.645,109.95,514.571,89.155,530.723,102.871,518.645,109.95" style="stroke:#A80036;stroke-width:1.0;"/><!--MD5=[21465f5f24d41f42d835e3a87eca19cd]
@startuml
package mastermind.controllers.implementation{
class LogicImplementation [[java:usantatecla.mastermind.controllers.implementation.LogicImplementation]] {
	+LogicImplementation()
}
class StartControllerImplementation [[java:usantatecla.mastermind.controllers.implementation.StartControllerImplementation]] {
}
LogicImplementation - -> "1" StartControllerImplementation : startControllerImplementation
class PlayControllerImplementation [[java:usantatecla.mastermind.controllers.implementation.PlayControllerImplementation]] {
}
LogicImplementation - -> "1" PlayControllerImplementation : playControllerImplementation
class ResumeControllerImplementation [[java:usantatecla.mastermind.controllers.implementation.ResumeControllerImplementation]] {
}
LogicImplementation - -> "1" ResumeControllerImplementation : resumeControllerImplementation
class ResumeControllerImplementation [[java:usantatecla.mastermind.controllers.implementation.ResumeControllerImplementation]] {
	-SessionImplementation sessionImplementation
	+ResumeControllerImplementation(Session session)
	+void resume(boolean newGame)
}
class StartControllerImplementation [[java:usantatecla.mastermind.controllers.implementation.StartControllerImplementation]] {
	~SessionImplementation sessionImplementation
	+StartControllerImplementation(Session session)
	+void start()
}
class PlayControllerImplementation [[java:usantatecla.mastermind.controllers.implementation.PlayControllerImplementation]] {
	-GameController gameController
	-UndoController undoController
	-RedoController redoController
	+PlayControllerImplementation(Session session)
	+void undo()
	+void redo()
	+boolean undoable()
	+boolean redoable()
	+boolean isWinner()
	+boolean isLooser()
	+int getAttempts()
	+ProposedCombination getProposedCombination(int i)
	+Result getResult(int i)
	+void addProposedCombination(ProposedCombination proposedCombination)
	+void continueState()
}
}

package mastermind.controllers {
	class ResumeController [[java:usantatecla.mastermind.controllers.ResumeController]] 
	class PlayController [[java:usantatecla.mastermind.controllers.PlayController]] 
	class StartController [[java:usantatecla.mastermind.controllers.StartController]] 
	class Logic [[java:usantatecla.mastermind.controllers.Logic]] 
}

ResumeController <|- - ResumeControllerImplementation
StartController <|- - StartControllerImplementation
PlayController <|- - PlayControllerImplementation
Logic <|- - LogicImplementation
@enduml

PlantUML version 1.2020.22(Sun Dec 06 09:36:27 UTC 2020)
(GPL source distribution)
Java Runtime: Java(TM) SE Runtime Environment
JVM: Java HotSpot(TM) 64-Bit Server VM
Default Encoding: UTF-8
Language: en
Country: US
--></g></svg>