<?xml version="1.0" encoding="UTF-8" standalone="no"?><svg xmlns="http://www.w3.org/2000/svg" xmlns:xlink="http://www.w3.org/1999/xlink" contentScriptType="application/ecmascript" contentStyleType="text/css" height="401px" preserveAspectRatio="none" style="width:1532px;height:401px;" version="1.1" viewBox="0 0 1532 401" width="1532px" zoomAndPan="magnify"><defs><filter height="300%" id="f1n71z7uf9w9cv" width="300%" x="-1" y="-1"><feGaussianBlur result="blurOut" stdDeviation="2.0"/><feColorMatrix in="blurOut" result="blurOut2" type="matrix" values="0 0 0 0 0 0 0 0 0 0 0 0 0 0 0 0 0 0 .4 0"/><feOffset dx="4.0" dy="4.0" in="blurOut2" result="blurOut3"/><feBlend in="SourceGraphic" in2="blurOut3" mode="normal"/></filter></defs><g><!--MD5=[51947b2a10644f0e51a10607225a3921]
cluster mastermind.distributed--><polygon fill="#FFFFFF" filter="url(#f1n71z7uf9w9cv)" points="16,129,216,129,223,151.2969,1490,151.2969,1490,394,16,394,16,129" style="stroke:#000000;stroke-width:1.5;"/><line style="stroke:#000000;stroke-width:1.5;" x1="16" x2="223" y1="151.2969" y2="151.2969"/><text fill="#000000" font-family="sans-serif" font-size="14" font-weight="bold" lengthAdjust="spacingAndGlyphs" textLength="194" x="20" y="143.9951">mastermind.distributed</text><!--MD5=[f4a8416df5d5f7c80a7d3a30f9e0f7a6]
cluster mastermind.controllers--><polygon fill="#FFFFFF" filter="url(#f1n71z7uf9w9cv)" points="275,6,473,6,480,28.2969,850,28.2969,850,105,275,105,275,6" style="stroke:#000000;stroke-width:1.5;"/><line style="stroke:#000000;stroke-width:1.5;" x1="275" x2="480" y1="28.2969" y2="28.2969"/><text fill="#000000" font-family="sans-serif" font-size="14" font-weight="bold" lengthAdjust="spacingAndGlyphs" textLength="192" x="279" y="20.9951">mastermind.controllers</text><!--MD5=[8e0b9655f0966c29230933410523611d]
cluster mastermind.models--><polygon fill="#FFFFFF" filter="url(#f1n71z7uf9w9cv)" points="1338,6,1505,6,1512,28.2969,1515,28.2969,1515,105,1338,105,1338,6" style="stroke:#000000;stroke-width:1.5;"/><line style="stroke:#000000;stroke-width:1.5;" x1="1338" x2="1512" y1="28.2969" y2="28.2969"/><text fill="#000000" font-family="sans-serif" font-size="14" font-weight="bold" lengthAdjust="spacingAndGlyphs" textLength="161" x="1342" y="20.9951">mastermind.models</text><!--MD5=[da7c519b3d2abda32c08ca968d259878]
class SessionProxy--><a href="java:usantatecla.mastermind.distributed.SessionProxy" target="_top" title="java:usantatecla.mastermind.distributed.SessionProxy" xlink:actuate="onRequest" xlink:href="java:usantatecla.mastermind.distributed.SessionProxy" xlink:show="new" xlink:title="java:usantatecla.mastermind.distributed.SessionProxy" xlink:type="simple"><rect codeLine="3" fill="#FEFECE" filter="url(#f1n71z7uf9w9cv)" height="48" id="SessionProxy" style="stroke:#A80036;stroke-width:1.5;" width="113" x="1360.5" y="247"/><ellipse cx="1375.5" cy="263" fill="#ADD1B2" rx="11" ry="11" style="stroke:#A80036;stroke-width:1.0;"/><path d="M1377.8438,258.6719 C1376.9063,258.2344 1376.3125,258.0938 1375.4375,258.0938 C1372.8125,258.0938 1370.8125,260.1719 1370.8125,262.8906 L1370.8125,264.0156 C1370.8125,266.5938 1372.9219,268.4844 1375.8125,268.4844 C1377.0313,268.4844 1378.1875,268.1875 1378.9375,267.6406 C1379.5156,267.2344 1379.8438,266.7813 1379.8438,266.3906 C1379.8438,265.9375 1379.4531,265.5469 1378.9844,265.5469 C1378.7656,265.5469 1378.5625,265.625 1378.375,265.8125 C1377.9219,266.2969 1377.9219,266.2969 1377.7344,266.3906 C1377.3125,266.6563 1376.625,266.7813 1375.8594,266.7813 C1373.8125,266.7813 1372.5156,265.6875 1372.5156,263.9844 L1372.5156,262.8906 C1372.5156,261.1094 1373.7656,259.7969 1375.5,259.7969 C1376.0781,259.7969 1376.6875,259.9531 1377.1563,260.2031 C1377.6406,260.4844 1377.8125,260.7031 1377.9063,261.1094 C1377.9688,261.5156 1378,261.6406 1378.1406,261.7656 C1378.2813,261.9063 1378.5156,262.0156 1378.7344,262.0156 C1379,262.0156 1379.2656,261.875 1379.4375,261.6563 C1379.5469,261.5 1379.5781,261.3125 1379.5781,260.8906 L1379.5781,259.4688 C1379.5781,259.0313 1379.5625,258.9063 1379.4688,258.75 C1379.3125,258.4844 1379.0313,258.3438 1378.7344,258.3438 C1378.4375,258.3438 1378.2344,258.4375 1378.0156,258.75 L1377.8438,258.6719 Z " fill="#000000"/><text fill="#000000" font-family="sans-serif" font-size="12" lengthAdjust="spacingAndGlyphs" textLength="81" x="1389.5" y="267.1543">SessionProxy</text><line style="stroke:#A80036;stroke-width:1.5;" x1="1361.5" x2="1472.5" y1="279" y2="279"/><line style="stroke:#A80036;stroke-width:1.5;" x1="1361.5" x2="1472.5" y1="287" y2="287"/></a><!--MD5=[2c41b599189d82f3a3427b5f4a24e454]
class StartControllerProxy--><a href="java:usantatecla.mastermind.distributed.StartControllerProxy" target="_top" title="java:usantatecla.mastermind.distributed.StartControllerProxy" xlink:actuate="onRequest" xlink:href="java:usantatecla.mastermind.distributed.StartControllerProxy" xlink:show="new" xlink:title="java:usantatecla.mastermind.distributed.StartControllerProxy" xlink:type="simple"><rect codeLine="4" fill="#FEFECE" filter="url(#f1n71z7uf9w9cv)" height="86.4141" id="StartControllerProxy" style="stroke:#A80036;stroke-width:1.5;" width="307" x="1018.5" y="228"/><ellipse cx="1107.75" cy="244" fill="#ADD1B2" rx="11" ry="11" style="stroke:#A80036;stroke-width:1.0;"/><path d="M1110.0938,239.6719 C1109.1563,239.2344 1108.5625,239.0938 1107.6875,239.0938 C1105.0625,239.0938 1103.0625,241.1719 1103.0625,243.8906 L1103.0625,245.0156 C1103.0625,247.5938 1105.1719,249.4844 1108.0625,249.4844 C1109.2813,249.4844 1110.4375,249.1875 1111.1875,248.6406 C1111.7656,248.2344 1112.0938,247.7813 1112.0938,247.3906 C1112.0938,246.9375 1111.7031,246.5469 1111.2344,246.5469 C1111.0156,246.5469 1110.8125,246.625 1110.625,246.8125 C1110.1719,247.2969 1110.1719,247.2969 1109.9844,247.3906 C1109.5625,247.6563 1108.875,247.7813 1108.1094,247.7813 C1106.0625,247.7813 1104.7656,246.6875 1104.7656,244.9844 L1104.7656,243.8906 C1104.7656,242.1094 1106.0156,240.7969 1107.75,240.7969 C1108.3281,240.7969 1108.9375,240.9531 1109.4063,241.2031 C1109.8906,241.4844 1110.0625,241.7031 1110.1563,242.1094 C1110.2188,242.5156 1110.25,242.6406 1110.3906,242.7656 C1110.5313,242.9063 1110.7656,243.0156 1110.9844,243.0156 C1111.25,243.0156 1111.5156,242.875 1111.6875,242.6563 C1111.7969,242.5 1111.8281,242.3125 1111.8281,241.8906 L1111.8281,240.4688 C1111.8281,240.0313 1111.8125,239.9063 1111.7188,239.75 C1111.5625,239.4844 1111.2813,239.3438 1110.9844,239.3438 C1110.6875,239.3438 1110.4844,239.4375 1110.2656,239.75 L1110.0938,239.6719 Z " fill="#000000"/><text fill="#000000" font-family="sans-serif" font-size="12" lengthAdjust="spacingAndGlyphs" textLength="120" x="1128.25" y="248.1543">StartControllerProxy</text><line style="stroke:#A80036;stroke-width:1.5;" x1="1019.5" x2="1324.5" y1="260" y2="260"/><rect fill="none" height="6" style="stroke:#C82930;stroke-width:1.0;" width="6" x="1026.5" y="268"/><text fill="#000000" font-family="sans-serif" font-size="11" lengthAdjust="spacingAndGlyphs" textLength="61" x="1038.5" y="274.2104">TCPIP tcpip</text><line style="stroke:#A80036;stroke-width:1.5;" x1="1019.5" x2="1324.5" y1="280.8047" y2="280.8047"/><ellipse cx="1029.5" cy="291.8047" fill="#84BE84" rx="3" ry="3" style="stroke:#038048;stroke-width:1.0;"/><text fill="#000000" font-family="sans-serif" font-size="11" lengthAdjust="spacingAndGlyphs" textLength="281" x="1038.5" y="295.0151">StartControllerProxy(Session session, TCPIP tcpip)</text><ellipse cx="1029.5" cy="304.6094" fill="#84BE84" rx="3" ry="3" style="stroke:#038048;stroke-width:1.0;"/><text fill="#000000" font-family="sans-serif" font-size="11" lengthAdjust="spacingAndGlyphs" textLength="61" x="1038.5" y="307.8198">void start()</text></a><!--MD5=[eca5361e7774ae49f1ba4f07497d54d6]
class PlayControllerProxy--><a href="java:usantatecla.mastermind.distributed.PlayControllerProxy" target="_top" title="java:usantatecla.mastermind.distributed.PlayControllerProxy" xlink:actuate="onRequest" xlink:href="java:usantatecla.mastermind.distributed.PlayControllerProxy" xlink:show="new" xlink:title="java:usantatecla.mastermind.distributed.PlayControllerProxy" xlink:type="simple"><rect codeLine="9" fill="#FEFECE" filter="url(#f1n71z7uf9w9cv)" height="214.4609" id="PlayControllerProxy" style="stroke:#A80036;stroke-width:1.5;" width="457" x="526.5" y="164"/><ellipse cx="693.25" cy="180" fill="#ADD1B2" rx="11" ry="11" style="stroke:#A80036;stroke-width:1.0;"/><path d="M695.5938,175.6719 C694.6563,175.2344 694.0625,175.0938 693.1875,175.0938 C690.5625,175.0938 688.5625,177.1719 688.5625,179.8906 L688.5625,181.0156 C688.5625,183.5938 690.6719,185.4844 693.5625,185.4844 C694.7813,185.4844 695.9375,185.1875 696.6875,184.6406 C697.2656,184.2344 697.5938,183.7813 697.5938,183.3906 C697.5938,182.9375 697.2031,182.5469 696.7344,182.5469 C696.5156,182.5469 696.3125,182.625 696.125,182.8125 C695.6719,183.2969 695.6719,183.2969 695.4844,183.3906 C695.0625,183.6563 694.375,183.7813 693.6094,183.7813 C691.5625,183.7813 690.2656,182.6875 690.2656,180.9844 L690.2656,179.8906 C690.2656,178.1094 691.5156,176.7969 693.25,176.7969 C693.8281,176.7969 694.4375,176.9531 694.9063,177.2031 C695.3906,177.4844 695.5625,177.7031 695.6563,178.1094 C695.7188,178.5156 695.75,178.6406 695.8906,178.7656 C696.0313,178.9063 696.2656,179.0156 696.4844,179.0156 C696.75,179.0156 697.0156,178.875 697.1875,178.6563 C697.2969,178.5 697.3281,178.3125 697.3281,177.8906 L697.3281,176.4688 C697.3281,176.0313 697.3125,175.9063 697.2188,175.75 C697.0625,175.4844 696.7813,175.3438 696.4844,175.3438 C696.1875,175.3438 695.9844,175.4375 695.7656,175.75 L695.5938,175.6719 Z " fill="#000000"/><text fill="#000000" font-family="sans-serif" font-size="12" lengthAdjust="spacingAndGlyphs" textLength="115" x="713.75" y="184.1543">PlayControllerProxy</text><line style="stroke:#A80036;stroke-width:1.5;" x1="527.5" x2="982.5" y1="196" y2="196"/><rect fill="none" height="6" style="stroke:#C82930;stroke-width:1.0;" width="6" x="534.5" y="204"/><text fill="#000000" font-family="sans-serif" font-size="11" lengthAdjust="spacingAndGlyphs" textLength="61" x="546.5" y="210.2104">TCPIP tcpip</text><line style="stroke:#A80036;stroke-width:1.5;" x1="527.5" x2="982.5" y1="216.8047" y2="216.8047"/><polygon fill="#4177AF" points="537.5,223.8047,533.5,229.8047,541.5,229.8047" style="stroke:#1963A0;stroke-width:1.0;"/><text fill="#000000" font-family="sans-serif" font-size="11" lengthAdjust="spacingAndGlyphs" textLength="277" x="546.5" y="231.0151">PlayControllerProxy(Session session, TCPIP tcpip)</text><ellipse cx="537.5" cy="240.6094" fill="#84BE84" rx="3" ry="3" style="stroke:#038048;stroke-width:1.0;"/><text fill="#000000" font-family="sans-serif" font-size="11" lengthAdjust="spacingAndGlyphs" textLength="64" x="546.5" y="243.8198">void undo()</text><ellipse cx="537.5" cy="253.4141" fill="#84BE84" rx="3" ry="3" style="stroke:#038048;stroke-width:1.0;"/><text fill="#000000" font-family="sans-serif" font-size="11" lengthAdjust="spacingAndGlyphs" textLength="62" x="546.5" y="256.6245">void redo()</text><ellipse cx="537.5" cy="266.2188" fill="#84BE84" rx="3" ry="3" style="stroke:#038048;stroke-width:1.0;"/><text fill="#000000" font-family="sans-serif" font-size="11" lengthAdjust="spacingAndGlyphs" textLength="111" x="546.5" y="269.4292">boolean undoable()</text><ellipse cx="537.5" cy="279.0234" fill="#84BE84" rx="3" ry="3" style="stroke:#038048;stroke-width:1.0;"/><text fill="#000000" font-family="sans-serif" font-size="11" lengthAdjust="spacingAndGlyphs" textLength="109" x="546.5" y="282.2339">boolean redoable()</text><ellipse cx="537.5" cy="291.8281" fill="#84BE84" rx="3" ry="3" style="stroke:#038048;stroke-width:1.0;"/><text fill="#000000" font-family="sans-serif" font-size="11" lengthAdjust="spacingAndGlyphs" textLength="107" x="546.5" y="295.0386">boolean isWinner()</text><ellipse cx="537.5" cy="304.6328" fill="#84BE84" rx="3" ry="3" style="stroke:#038048;stroke-width:1.0;"/><text fill="#000000" font-family="sans-serif" font-size="11" lengthAdjust="spacingAndGlyphs" textLength="105" x="546.5" y="307.8433">boolean isLooser()</text><ellipse cx="537.5" cy="317.4375" fill="#84BE84" rx="3" ry="3" style="stroke:#038048;stroke-width:1.0;"/><text fill="#000000" font-family="sans-serif" font-size="11" lengthAdjust="spacingAndGlyphs" textLength="97" x="546.5" y="320.6479">int getAttempts()</text><ellipse cx="537.5" cy="330.2422" fill="#84BE84" rx="3" ry="3" style="stroke:#038048;stroke-width:1.0;"/><text fill="#000000" font-family="sans-serif" font-size="11" lengthAdjust="spacingAndGlyphs" textLength="298" x="546.5" y="333.4526">ProposedCombination getProposedCombination(int i)</text><ellipse cx="537.5" cy="343.0469" fill="#84BE84" rx="3" ry="3" style="stroke:#038048;stroke-width:1.0;"/><text fill="#000000" font-family="sans-serif" font-size="11" lengthAdjust="spacingAndGlyphs" textLength="122" x="546.5" y="346.2573">Result getResult(int i)</text><ellipse cx="537.5" cy="355.8516" fill="#84BE84" rx="3" ry="3" style="stroke:#038048;stroke-width:1.0;"/><text fill="#000000" font-family="sans-serif" font-size="11" lengthAdjust="spacingAndGlyphs" textLength="431" x="546.5" y="359.062">void addProposedCombination(ProposedCombination proposedCombination)</text><ellipse cx="537.5" cy="368.6563" fill="#84BE84" rx="3" ry="3" style="stroke:#038048;stroke-width:1.0;"/><text fill="#000000" font-family="sans-serif" font-size="11" lengthAdjust="spacingAndGlyphs" textLength="116" x="546.5" y="371.8667">void continueState()</text></a><!--MD5=[5f15cc560b12584a4eedb1776c6dfcc9]
class ResumeControllerProxy--><a href="java:usantatecla.mastermind.distributed.ResumeControllerProxy" target="_top" title="java:usantatecla.mastermind.distributed.ResumeControllerProxy" xlink:actuate="onRequest" xlink:href="java:usantatecla.mastermind.distributed.ResumeControllerProxy" xlink:show="new" xlink:title="java:usantatecla.mastermind.distributed.ResumeControllerProxy" xlink:type="simple"><rect codeLine="24" fill="#FEFECE" filter="url(#f1n71z7uf9w9cv)" height="86.4141" id="ResumeControllerProxy" style="stroke:#A80036;stroke-width:1.5;" width="327" x="164.5" y="228"/><ellipse cx="253.75" cy="244" fill="#ADD1B2" rx="11" ry="11" style="stroke:#A80036;stroke-width:1.0;"/><path d="M256.0938,239.6719 C255.1563,239.2344 254.5625,239.0938 253.6875,239.0938 C251.0625,239.0938 249.0625,241.1719 249.0625,243.8906 L249.0625,245.0156 C249.0625,247.5938 251.1719,249.4844 254.0625,249.4844 C255.2813,249.4844 256.4375,249.1875 257.1875,248.6406 C257.7656,248.2344 258.0938,247.7813 258.0938,247.3906 C258.0938,246.9375 257.7031,246.5469 257.2344,246.5469 C257.0156,246.5469 256.8125,246.625 256.625,246.8125 C256.1719,247.2969 256.1719,247.2969 255.9844,247.3906 C255.5625,247.6563 254.875,247.7813 254.1094,247.7813 C252.0625,247.7813 250.7656,246.6875 250.7656,244.9844 L250.7656,243.8906 C250.7656,242.1094 252.0156,240.7969 253.75,240.7969 C254.3281,240.7969 254.9375,240.9531 255.4063,241.2031 C255.8906,241.4844 256.0625,241.7031 256.1563,242.1094 C256.2188,242.5156 256.25,242.6406 256.3906,242.7656 C256.5313,242.9063 256.7656,243.0156 256.9844,243.0156 C257.25,243.0156 257.5156,242.875 257.6875,242.6563 C257.7969,242.5 257.8281,242.3125 257.8281,241.8906 L257.8281,240.4688 C257.8281,240.0313 257.8125,239.9063 257.7188,239.75 C257.5625,239.4844 257.2813,239.3438 256.9844,239.3438 C256.6875,239.3438 256.4844,239.4375 256.2656,239.75 L256.0938,239.6719 Z " fill="#000000"/><text fill="#000000" font-family="sans-serif" font-size="12" lengthAdjust="spacingAndGlyphs" textLength="140" x="274.25" y="248.1543">ResumeControllerProxy</text><line style="stroke:#A80036;stroke-width:1.5;" x1="165.5" x2="490.5" y1="260" y2="260"/><rect fill="none" height="6" style="stroke:#C82930;stroke-width:1.0;" width="6" x="172.5" y="268"/><text fill="#000000" font-family="sans-serif" font-size="11" lengthAdjust="spacingAndGlyphs" textLength="61" x="184.5" y="274.2104">TCPIP tcpip</text><line style="stroke:#A80036;stroke-width:1.5;" x1="165.5" x2="490.5" y1="280.8047" y2="280.8047"/><ellipse cx="175.5" cy="291.8047" fill="#84BE84" rx="3" ry="3" style="stroke:#038048;stroke-width:1.0;"/><text fill="#000000" font-family="sans-serif" font-size="11" lengthAdjust="spacingAndGlyphs" textLength="301" x="184.5" y="295.0151">ResumeControllerProxy(Session session, TCPIP tcpip)</text><ellipse cx="175.5" cy="304.6094" fill="#84BE84" rx="3" ry="3" style="stroke:#038048;stroke-width:1.0;"/><text fill="#000000" font-family="sans-serif" font-size="11" lengthAdjust="spacingAndGlyphs" textLength="189" x="184.5" y="307.8198">void resume(boolean newGame)</text></a><!--MD5=[fe052c315416e41c4768ed060a24f34e]
class LogicProxy--><a href="java:usantatecla.mastermind.distributed.LogicProxy" target="_top" title="java:usantatecla.mastermind.distributed.LogicProxy" xlink:actuate="onRequest" xlink:href="java:usantatecla.mastermind.distributed.LogicProxy" xlink:show="new" xlink:title="java:usantatecla.mastermind.distributed.LogicProxy" xlink:type="simple"><rect codeLine="34" fill="#FEFECE" filter="url(#f1n71z7uf9w9cv)" height="86.4141" id="LogicProxy" style="stroke:#A80036;stroke-width:1.5;" width="97" x="32.5" y="228"/><ellipse cx="47.5" cy="244" fill="#ADD1B2" rx="11" ry="11" style="stroke:#A80036;stroke-width:1.0;"/><path d="M49.8438,239.6719 C48.9063,239.2344 48.3125,239.0938 47.4375,239.0938 C44.8125,239.0938 42.8125,241.1719 42.8125,243.8906 L42.8125,245.0156 C42.8125,247.5938 44.9219,249.4844 47.8125,249.4844 C49.0313,249.4844 50.1875,249.1875 50.9375,248.6406 C51.5156,248.2344 51.8438,247.7813 51.8438,247.3906 C51.8438,246.9375 51.4531,246.5469 50.9844,246.5469 C50.7656,246.5469 50.5625,246.625 50.375,246.8125 C49.9219,247.2969 49.9219,247.2969 49.7344,247.3906 C49.3125,247.6563 48.625,247.7813 47.8594,247.7813 C45.8125,247.7813 44.5156,246.6875 44.5156,244.9844 L44.5156,243.8906 C44.5156,242.1094 45.7656,240.7969 47.5,240.7969 C48.0781,240.7969 48.6875,240.9531 49.1563,241.2031 C49.6406,241.4844 49.8125,241.7031 49.9063,242.1094 C49.9688,242.5156 50,242.6406 50.1406,242.7656 C50.2813,242.9063 50.5156,243.0156 50.7344,243.0156 C51,243.0156 51.2656,242.875 51.4375,242.6563 C51.5469,242.5 51.5781,242.3125 51.5781,241.8906 L51.5781,240.4688 C51.5781,240.0313 51.5625,239.9063 51.4688,239.75 C51.3125,239.4844 51.0313,239.3438 50.7344,239.3438 C50.4375,239.3438 50.2344,239.4375 50.0156,239.75 L49.8438,239.6719 Z " fill="#000000"/><text fill="#000000" font-family="sans-serif" font-size="12" lengthAdjust="spacingAndGlyphs" textLength="65" x="61.5" y="248.1543">LogicProxy</text><line style="stroke:#A80036;stroke-width:1.5;" x1="33.5" x2="128.5" y1="260" y2="260"/><rect fill="none" height="6" style="stroke:#C82930;stroke-width:1.0;" width="6" x="40.5" y="268"/><text fill="#000000" font-family="sans-serif" font-size="11" lengthAdjust="spacingAndGlyphs" textLength="61" x="52.5" y="274.2104">TCPIP tcpip</text><line style="stroke:#A80036;stroke-width:1.5;" x1="33.5" x2="128.5" y1="280.8047" y2="280.8047"/><ellipse cx="43.5" cy="291.8047" fill="#84BE84" rx="3" ry="3" style="stroke:#038048;stroke-width:1.0;"/><text fill="#000000" font-family="sans-serif" font-size="11" lengthAdjust="spacingAndGlyphs" textLength="68" x="52.5" y="295.0151">LogicProxy()</text><ellipse cx="43.5" cy="304.6094" fill="#84BE84" rx="3" ry="3" style="stroke:#038048;stroke-width:1.0;"/><text fill="#000000" font-family="sans-serif" font-size="11" lengthAdjust="spacingAndGlyphs" textLength="66" x="52.5" y="307.8198">void close()</text></a><!--MD5=[1a47bbf44ccee225df9b18c5b6629853]
class ResumeController--><a href="java:usantatecla.mastermind.controllers.ResumeController" target="_top" title="java:usantatecla.mastermind.controllers.ResumeController" xlink:actuate="onRequest" xlink:href="java:usantatecla.mastermind.controllers.ResumeController" xlink:show="new" xlink:title="java:usantatecla.mastermind.controllers.ResumeController" xlink:type="simple"><rect codeLine="39" fill="#FEFECE" filter="url(#f1n71z7uf9w9cv)" height="48" id="ResumeController" style="stroke:#A80036;stroke-width:1.5;" width="139" x="390.5" y="41"/><ellipse cx="405.5" cy="57" fill="#ADD1B2" rx="11" ry="11" style="stroke:#A80036;stroke-width:1.0;"/><path d="M407.8438,52.6719 C406.9063,52.2344 406.3125,52.0938 405.4375,52.0938 C402.8125,52.0938 400.8125,54.1719 400.8125,56.8906 L400.8125,58.0156 C400.8125,60.5938 402.9219,62.4844 405.8125,62.4844 C407.0313,62.4844 408.1875,62.1875 408.9375,61.6406 C409.5156,61.2344 409.8438,60.7813 409.8438,60.3906 C409.8438,59.9375 409.4531,59.5469 408.9844,59.5469 C408.7656,59.5469 408.5625,59.625 408.375,59.8125 C407.9219,60.2969 407.9219,60.2969 407.7344,60.3906 C407.3125,60.6563 406.625,60.7813 405.8594,60.7813 C403.8125,60.7813 402.5156,59.6875 402.5156,57.9844 L402.5156,56.8906 C402.5156,55.1094 403.7656,53.7969 405.5,53.7969 C406.0781,53.7969 406.6875,53.9531 407.1563,54.2031 C407.6406,54.4844 407.8125,54.7031 407.9063,55.1094 C407.9688,55.5156 408,55.6406 408.1406,55.7656 C408.2813,55.9063 408.5156,56.0156 408.7344,56.0156 C409,56.0156 409.2656,55.875 409.4375,55.6563 C409.5469,55.5 409.5781,55.3125 409.5781,54.8906 L409.5781,53.4688 C409.5781,53.0313 409.5625,52.9063 409.4688,52.75 C409.3125,52.4844 409.0313,52.3438 408.7344,52.3438 C408.4375,52.3438 408.2344,52.4375 408.0156,52.75 L407.8438,52.6719 Z " fill="#000000"/><text fill="#000000" font-family="sans-serif" font-size="12" lengthAdjust="spacingAndGlyphs" textLength="107" x="419.5" y="61.1543">ResumeController</text><line style="stroke:#A80036;stroke-width:1.5;" x1="391.5" x2="528.5" y1="73" y2="73"/><line style="stroke:#A80036;stroke-width:1.5;" x1="391.5" x2="528.5" y1="81" y2="81"/></a><!--MD5=[cc8600b868f8dfab2c8d497bce62f90a]
class PlayController--><a href="java:usantatecla.mastermind.controllers.PlayController" target="_top" title="java:usantatecla.mastermind.controllers.PlayController" xlink:actuate="onRequest" xlink:href="java:usantatecla.mastermind.controllers.PlayController" xlink:show="new" xlink:title="java:usantatecla.mastermind.controllers.PlayController" xlink:type="simple"><rect codeLine="40" fill="#FEFECE" filter="url(#f1n71z7uf9w9cv)" height="48" id="PlayController" style="stroke:#A80036;stroke-width:1.5;" width="114" x="565" y="41"/><ellipse cx="580" cy="57" fill="#ADD1B2" rx="11" ry="11" style="stroke:#A80036;stroke-width:1.0;"/><path d="M582.3438,52.6719 C581.4063,52.2344 580.8125,52.0938 579.9375,52.0938 C577.3125,52.0938 575.3125,54.1719 575.3125,56.8906 L575.3125,58.0156 C575.3125,60.5938 577.4219,62.4844 580.3125,62.4844 C581.5313,62.4844 582.6875,62.1875 583.4375,61.6406 C584.0156,61.2344 584.3438,60.7813 584.3438,60.3906 C584.3438,59.9375 583.9531,59.5469 583.4844,59.5469 C583.2656,59.5469 583.0625,59.625 582.875,59.8125 C582.4219,60.2969 582.4219,60.2969 582.2344,60.3906 C581.8125,60.6563 581.125,60.7813 580.3594,60.7813 C578.3125,60.7813 577.0156,59.6875 577.0156,57.9844 L577.0156,56.8906 C577.0156,55.1094 578.2656,53.7969 580,53.7969 C580.5781,53.7969 581.1875,53.9531 581.6563,54.2031 C582.1406,54.4844 582.3125,54.7031 582.4063,55.1094 C582.4688,55.5156 582.5,55.6406 582.6406,55.7656 C582.7813,55.9063 583.0156,56.0156 583.2344,56.0156 C583.5,56.0156 583.7656,55.875 583.9375,55.6563 C584.0469,55.5 584.0781,55.3125 584.0781,54.8906 L584.0781,53.4688 C584.0781,53.0313 584.0625,52.9063 583.9688,52.75 C583.8125,52.4844 583.5313,52.3438 583.2344,52.3438 C582.9375,52.3438 582.7344,52.4375 582.5156,52.75 L582.3438,52.6719 Z " fill="#000000"/><text fill="#000000" font-family="sans-serif" font-size="12" lengthAdjust="spacingAndGlyphs" textLength="82" x="594" y="61.1543">PlayController</text><line style="stroke:#A80036;stroke-width:1.5;" x1="566" x2="678" y1="73" y2="73"/><line style="stroke:#A80036;stroke-width:1.5;" x1="566" x2="678" y1="81" y2="81"/></a><!--MD5=[47c371471411cfedeee61b1a5bdaee47]
class StartController--><a href="java:usantatecla.mastermind.controllers.StartController" target="_top" title="java:usantatecla.mastermind.controllers.StartController" xlink:actuate="onRequest" xlink:href="java:usantatecla.mastermind.controllers.StartController" xlink:show="new" xlink:title="java:usantatecla.mastermind.controllers.StartController" xlink:type="simple"><rect codeLine="41" fill="#FEFECE" filter="url(#f1n71z7uf9w9cv)" height="48" id="StartController" style="stroke:#A80036;stroke-width:1.5;" width="119" x="714.5" y="41"/><ellipse cx="729.5" cy="57" fill="#ADD1B2" rx="11" ry="11" style="stroke:#A80036;stroke-width:1.0;"/><path d="M731.8438,52.6719 C730.9063,52.2344 730.3125,52.0938 729.4375,52.0938 C726.8125,52.0938 724.8125,54.1719 724.8125,56.8906 L724.8125,58.0156 C724.8125,60.5938 726.9219,62.4844 729.8125,62.4844 C731.0313,62.4844 732.1875,62.1875 732.9375,61.6406 C733.5156,61.2344 733.8438,60.7813 733.8438,60.3906 C733.8438,59.9375 733.4531,59.5469 732.9844,59.5469 C732.7656,59.5469 732.5625,59.625 732.375,59.8125 C731.9219,60.2969 731.9219,60.2969 731.7344,60.3906 C731.3125,60.6563 730.625,60.7813 729.8594,60.7813 C727.8125,60.7813 726.5156,59.6875 726.5156,57.9844 L726.5156,56.8906 C726.5156,55.1094 727.7656,53.7969 729.5,53.7969 C730.0781,53.7969 730.6875,53.9531 731.1563,54.2031 C731.6406,54.4844 731.8125,54.7031 731.9063,55.1094 C731.9688,55.5156 732,55.6406 732.1406,55.7656 C732.2813,55.9063 732.5156,56.0156 732.7344,56.0156 C733,56.0156 733.2656,55.875 733.4375,55.6563 C733.5469,55.5 733.5781,55.3125 733.5781,54.8906 L733.5781,53.4688 C733.5781,53.0313 733.5625,52.9063 733.4688,52.75 C733.3125,52.4844 733.0313,52.3438 732.7344,52.3438 C732.4375,52.3438 732.2344,52.4375 732.0156,52.75 L731.8438,52.6719 Z " fill="#000000"/><text fill="#000000" font-family="sans-serif" font-size="12" lengthAdjust="spacingAndGlyphs" textLength="87" x="743.5" y="61.1543">StartController</text><line style="stroke:#A80036;stroke-width:1.5;" x1="715.5" x2="832.5" y1="73" y2="73"/><line style="stroke:#A80036;stroke-width:1.5;" x1="715.5" x2="832.5" y1="81" y2="81"/></a><!--MD5=[42fa18dda7351a0ae87d9497de925436]
class Logic--><a href="java:usantatecla.mastermind.controllers.Logic" target="_top" title="java:usantatecla.mastermind.controllers.Logic" xlink:actuate="onRequest" xlink:href="java:usantatecla.mastermind.controllers.Logic" xlink:show="new" xlink:title="java:usantatecla.mastermind.controllers.Logic" xlink:type="simple"><rect codeLine="42" fill="#FEFECE" filter="url(#f1n71z7uf9w9cv)" height="48" id="Logic" style="stroke:#A80036;stroke-width:1.5;" width="64" x="291" y="41"/><ellipse cx="306" cy="57" fill="#ADD1B2" rx="11" ry="11" style="stroke:#A80036;stroke-width:1.0;"/><path d="M308.3438,52.6719 C307.4063,52.2344 306.8125,52.0938 305.9375,52.0938 C303.3125,52.0938 301.3125,54.1719 301.3125,56.8906 L301.3125,58.0156 C301.3125,60.5938 303.4219,62.4844 306.3125,62.4844 C307.5313,62.4844 308.6875,62.1875 309.4375,61.6406 C310.0156,61.2344 310.3438,60.7813 310.3438,60.3906 C310.3438,59.9375 309.9531,59.5469 309.4844,59.5469 C309.2656,59.5469 309.0625,59.625 308.875,59.8125 C308.4219,60.2969 308.4219,60.2969 308.2344,60.3906 C307.8125,60.6563 307.125,60.7813 306.3594,60.7813 C304.3125,60.7813 303.0156,59.6875 303.0156,57.9844 L303.0156,56.8906 C303.0156,55.1094 304.2656,53.7969 306,53.7969 C306.5781,53.7969 307.1875,53.9531 307.6563,54.2031 C308.1406,54.4844 308.3125,54.7031 308.4063,55.1094 C308.4688,55.5156 308.5,55.6406 308.6406,55.7656 C308.7813,55.9063 309.0156,56.0156 309.2344,56.0156 C309.5,56.0156 309.7656,55.875 309.9375,55.6563 C310.0469,55.5 310.0781,55.3125 310.0781,54.8906 L310.0781,53.4688 C310.0781,53.0313 310.0625,52.9063 309.9688,52.75 C309.8125,52.4844 309.5313,52.3438 309.2344,52.3438 C308.9375,52.3438 308.7344,52.4375 308.5156,52.75 L308.3438,52.6719 Z " fill="#000000"/><text fill="#000000" font-family="sans-serif" font-size="12" lengthAdjust="spacingAndGlyphs" textLength="32" x="320" y="61.1543">Logic</text><line style="stroke:#A80036;stroke-width:1.5;" x1="292" x2="354" y1="73" y2="73"/><line style="stroke:#A80036;stroke-width:1.5;" x1="292" x2="354" y1="81" y2="81"/></a><!--MD5=[2ca1536628238a7dc78c5d90808014f9]
class Session--><a href="java:usantatecla.mastermind.models.Session" target="_top" title="java:usantatecla.mastermind.models.Session" xlink:actuate="onRequest" xlink:href="java:usantatecla.mastermind.models.Session" xlink:show="new" xlink:title="java:usantatecla.mastermind.models.Session" xlink:type="simple"><rect codeLine="52" fill="#FEFECE" filter="url(#f1n71z7uf9w9cv)" height="48" id="Session" style="stroke:#A80036;stroke-width:1.5;" width="77" x="1378.5" y="41"/><ellipse cx="1393.5" cy="57" fill="#B4A7E5" rx="11" ry="11" style="stroke:#A80036;stroke-width:1.0;"/><path d="M1394.4531,53.7813 L1396.1719,53.7813 C1396.5625,53.7813 1396.75,53.75 1396.875,53.6719 C1397.1406,53.5156 1397.2813,53.2344 1397.2813,52.9375 C1397.2813,52.6719 1397.1719,52.4063 1396.9375,52.2344 C1396.7656,52.125 1396.625,52.0938 1396.1719,52.0938 L1391.0313,52.0938 C1390.5938,52.0938 1390.4688,52.1094 1390.3125,52.2031 C1390.0625,52.3594 1389.9063,52.6563 1389.9063,52.9375 C1389.9063,53.2188 1390.0469,53.4688 1390.2656,53.6406 C1390.4219,53.75 1390.6094,53.7813 1391.0313,53.7813 L1392.75,53.7813 L1392.75,60.2969 L1391.0313,60.2969 C1390.5938,60.2969 1390.4688,60.3125 1390.3125,60.4219 C1390.0625,60.5781 1389.9063,60.8594 1389.9063,61.1563 C1389.9063,61.4063 1390.0469,61.6719 1390.2656,61.8281 C1390.4219,61.9531 1390.625,62 1391.0313,62 L1396.1719,62 C1396.9219,62 1397.2813,61.7188 1397.2813,61.1563 C1397.2813,60.875 1397.1719,60.625 1396.9375,60.4531 C1396.7656,60.3281 1396.625,60.2969 1396.1719,60.2969 L1394.4531,60.2969 L1394.4531,53.7813 Z " fill="#000000"/><text fill="#000000" font-family="sans-serif" font-size="12" font-style="italic" lengthAdjust="spacingAndGlyphs" textLength="45" x="1407.5" y="61.1543">Session</text><line style="stroke:#A80036;stroke-width:1.5;" x1="1379.5" x2="1454.5" y1="73" y2="73"/><line style="stroke:#A80036;stroke-width:1.5;" x1="1379.5" x2="1454.5" y1="81" y2="81"/></a><!--MD5=[daf28dfe3abac5026e7c201728bb22cf]
reverse link ResumeController to ResumeControllerProxy--><path codeLine="46" d="M433.945,106.267 C411.189,141.435 378.277,192.299 355.191,227.977 " fill="none" id="ResumeController-backto-ResumeControllerProxy" style="stroke:#A80036;stroke-width:1.0;"/><polygon fill="none" points="428.372,101.993,445.115,89.005,440.126,109.599,428.372,101.993" style="stroke:#A80036;stroke-width:1.0;"/><!--MD5=[1ae08482dbda9cbc42786013e1b3fcbe]
reverse link PlayController to PlayControllerProxy--><path codeLine="47" d="M648.011,105.897 C658.927,122.639 672.192,142.986 685.614,163.574 " fill="none" id="PlayController-backto-PlayControllerProxy" style="stroke:#A80036;stroke-width:1.0;"/><polygon fill="none" points="642.057,109.582,636.998,89.005,653.785,101.936,642.057,109.582" style="stroke:#A80036;stroke-width:1.0;"/><!--MD5=[4bd6997793934d0630568a31d036dbbb]
reverse link StartController to StartControllerProxy--><path codeLine="48" d="M853.477,75.715 C898.609,83.522 955.084,97.257 1001,121 C1053.12,147.949 1102.49,194.003 1134.67,227.793 " fill="none" id="StartController-backto-StartControllerProxy" style="stroke:#A80036;stroke-width:1.0;"/><polygon fill="none" points="852.257,82.609,833.617,72.531,854.473,68.786,852.257,82.609" style="stroke:#A80036;stroke-width:1.0;"/><!--MD5=[7aedc702bc95bc1acdb820fcb2018571]
reverse link Logic to LogicProxy--><path codeLine="49" d="M270.789,70.81 C232.451,76.838 181.289,90.416 147,121 C115.752,148.872 98.5752,194.317 89.644,227.701 " fill="none" id="Logic-backto-LogicProxy" style="stroke:#A80036;stroke-width:1.0;"/><polygon fill="none" points="270.101,63.84,290.848,68.149,271.943,77.719,270.101,63.84" style="stroke:#A80036;stroke-width:1.0;"/><!--MD5=[47a32af6d09d63b43f8668f6df98a320]
reverse link Session to SessionProxy--><path codeLine="55" d="M1417,109.128 C1417,151.118 1417,213.347 1417,246.766 " fill="none" id="Session-backto-SessionProxy" style="stroke:#A80036;stroke-width:1.0;stroke-dasharray:7.0,7.0;"/><polygon fill="none" points="1410,109.005,1417,89.005,1424,109.005,1410,109.005" style="stroke:#A80036;stroke-width:1.0;"/><!--MD5=[9aa401f705c5ccb1a966bfec901403f1]
@startuml
package mastermind.distributed {

class SessionProxy [[java:usantatecla.mastermind.distributed.SessionProxy]]
class StartControllerProxy [[java:usantatecla.mastermind.distributed.StartControllerProxy]] {
	-TCPIP tcpip
	+StartControllerProxy(Session session, TCPIP tcpip)
	+void start()
}
class PlayControllerProxy [[java:usantatecla.mastermind.distributed.PlayControllerProxy]] {
	-TCPIP tcpip
	~PlayControllerProxy(Session session, TCPIP tcpip)
	+void undo()
	+void redo()
	+boolean undoable()
	+boolean redoable()
	+boolean isWinner()
	+boolean isLooser()
	+int getAttempts()
	+ProposedCombination getProposedCombination(int i)
	+Result getResult(int i)
	+void addProposedCombination(ProposedCombination proposedCombination)
	+void continueState()
}
class ResumeControllerProxy [[java:usantatecla.mastermind.distributed.ResumeControllerProxy]] {
	-TCPIP tcpip
	+ResumeControllerProxy(Session session, TCPIP tcpip)
	+void resume(boolean newGame)
}
class LogicProxy [[java:usantatecla.mastermind.distributed.LogicProxy]] {
	-TCPIP tcpip
	+LogicProxy()
	+void close()
}
class LogicProxy [[java:usantatecla.mastermind.distributed.LogicProxy]] {
}
}

package mastermind.controllers {
	class ResumeController [[java:usantatecla.mastermind.controllers.ResumeController]] 
	class PlayController [[java:usantatecla.mastermind.controllers.PlayController]] 
	class StartController [[java:usantatecla.mastermind.controllers.StartController]] 
	class Logic [[java:usantatecla.mastermind.controllers.Logic]] 

}

ResumeController <|- - ResumeControllerProxy
PlayController <|- - PlayControllerProxy
StartController <|- - StartControllerProxy
Logic <|- - LogicProxy

package mastermind.models {
	interface Session [[java:usantatecla.mastermind.models.Session]] 
}

Session <|.. SessionProxy
@enduml

PlantUML version 1.2020.22(Sun Dec 06 09:36:27 UTC 2020)
(GPL source distribution)
Java Runtime: Java(TM) SE Runtime Environment
JVM: Java HotSpot(TM) 64-Bit Server VM
Default Encoding: UTF-8
Language: en
Country: US
--></g></svg>