<?xml version="1.0" encoding="UTF-8" standalone="no"?><svg xmlns="http://www.w3.org/2000/svg" xmlns:xlink="http://www.w3.org/1999/xlink" contentScriptType="application/ecmascript" contentStyleType="text/css" height="648px" preserveAspectRatio="none" style="width:2776px;height:648px;" version="1.1" viewBox="0 0 2776 648" width="2776px" zoomAndPan="magnify"><defs><filter height="300%" id="fmmopsr4taxrb" width="300%" x="-1" y="-1"><feGaussianBlur result="blurOut" stdDeviation="2.0"/><feColorMatrix in="blurOut" result="blurOut2" type="matrix" values="0 0 0 0 0 0 0 0 0 0 0 0 0 0 0 0 0 0 .4 0"/><feOffset dx="4.0" dy="4.0" in="blurOut2" result="blurOut3"/><feBlend in="SourceGraphic" in2="blurOut3" mode="normal"/></filter></defs><g><!--MD5=[86cec68673cafdfc1c204348d5b2cca6]
class ErrorView--><a href="java:usantatecla.mastermind.views.ErrorView" target="_top" title="java:usantatecla.mastermind.views.ErrorView" xlink:actuate="onRequest" xlink:href="java:usantatecla.mastermind.views.ErrorView" xlink:show="new" xlink:title="java:usantatecla.mastermind.views.ErrorView" xlink:type="simple"><rect codeLine="1" fill="#FEFECE" filter="url(#fmmopsr4taxrb)" height="99.2188" id="ErrorView" style="stroke:#A80036;stroke-width:1.5;" width="145" x="626" y="535"/><ellipse cx="665.3" cy="551" fill="#ADD1B2" rx="11" ry="11" style="stroke:#A80036;stroke-width:1.0;"/><path d="M667.6438,546.6719 C666.7063,546.2344 666.1125,546.0938 665.2375,546.0938 C662.6125,546.0938 660.6125,548.1719 660.6125,550.8906 L660.6125,552.0156 C660.6125,554.5938 662.7219,556.4844 665.6125,556.4844 C666.8313,556.4844 667.9875,556.1875 668.7375,555.6406 C669.3156,555.2344 669.6438,554.7813 669.6438,554.3906 C669.6438,553.9375 669.2531,553.5469 668.7844,553.5469 C668.5656,553.5469 668.3625,553.625 668.175,553.8125 C667.7219,554.2969 667.7219,554.2969 667.5344,554.3906 C667.1125,554.6563 666.425,554.7813 665.6594,554.7813 C663.6125,554.7813 662.3156,553.6875 662.3156,551.9844 L662.3156,550.8906 C662.3156,549.1094 663.5656,547.7969 665.3,547.7969 C665.8781,547.7969 666.4875,547.9531 666.9563,548.2031 C667.4406,548.4844 667.6125,548.7031 667.7063,549.1094 C667.7688,549.5156 667.8,549.6406 667.9406,549.7656 C668.0813,549.9063 668.3156,550.0156 668.5344,550.0156 C668.8,550.0156 669.0656,549.875 669.2375,549.6563 C669.3469,549.5 669.3781,549.3125 669.3781,548.8906 L669.3781,547.4688 C669.3781,547.0313 669.3625,546.9063 669.2688,546.75 C669.1125,546.4844 668.8313,546.3438 668.5344,546.3438 C668.2375,546.3438 668.0344,546.4375 667.8156,546.75 L667.6438,546.6719 Z " fill="#000000"/><text fill="#000000" font-family="sans-serif" font-size="12" lengthAdjust="spacingAndGlyphs" textLength="59" x="684.7" y="555.1543">ErrorView</text><line style="stroke:#A80036;stroke-width:1.5;" x1="627" x2="770" y1="567" y2="567"/><ellipse cx="637" cy="578" fill="none" rx="3" ry="3" style="stroke:#038048;stroke-width:1.0;"/><text fill="#000000" font-family="sans-serif" font-size="11" lengthAdjust="spacingAndGlyphs" text-decoration="underline" textLength="109" x="646" y="581.2104">String[] MESSAGES</text><polygon fill="none" points="637,585.8047,641,589.8047,637,593.8047,633,589.8047" style="stroke:#B38D22;stroke-width:1.0;"/><text fill="#000000" font-family="sans-serif" font-size="11" lengthAdjust="spacingAndGlyphs" textLength="57" x="646" y="594.0151">Error error</text><line style="stroke:#A80036;stroke-width:1.5;" x1="627" x2="770" y1="600.6094" y2="600.6094"/><polygon fill="#4177AF" points="637,607.6094,633,613.6094,641,613.6094" style="stroke:#1963A0;stroke-width:1.0;"/><text fill="#000000" font-family="sans-serif" font-size="11" lengthAdjust="spacingAndGlyphs" textLength="119" x="646" y="614.8198">ErrorView(Error error)</text><ellipse cx="637" cy="624.4141" fill="#84BE84" rx="3" ry="3" style="stroke:#038048;stroke-width:1.0;"/><text fill="#000000" font-family="sans-serif" font-size="11" lengthAdjust="spacingAndGlyphs" textLength="74" x="646" y="627.6245">void writeln()</text></a><!--MD5=[315b61b427ec618d6861d47eee00cca3]
class Console--><a href="java:usantatecla.utils.Console" target="_top" title="java:usantatecla.utils.Console" xlink:actuate="onRequest" xlink:href="java:usantatecla.utils.Console" xlink:show="new" xlink:title="java:usantatecla.utils.Console" xlink:type="simple"><rect codeLine="58" fill="#FEFECE" filter="url(#fmmopsr4taxrb)" height="48" id="Console" style="stroke:#A80036;stroke-width:1.5;" width="81" x="719" y="295"/><ellipse cx="734" cy="311" fill="#ADD1B2" rx="11" ry="11" style="stroke:#A80036;stroke-width:1.0;"/><path d="M736.3438,306.6719 C735.4063,306.2344 734.8125,306.0938 733.9375,306.0938 C731.3125,306.0938 729.3125,308.1719 729.3125,310.8906 L729.3125,312.0156 C729.3125,314.5938 731.4219,316.4844 734.3125,316.4844 C735.5313,316.4844 736.6875,316.1875 737.4375,315.6406 C738.0156,315.2344 738.3438,314.7813 738.3438,314.3906 C738.3438,313.9375 737.9531,313.5469 737.4844,313.5469 C737.2656,313.5469 737.0625,313.625 736.875,313.8125 C736.4219,314.2969 736.4219,314.2969 736.2344,314.3906 C735.8125,314.6563 735.125,314.7813 734.3594,314.7813 C732.3125,314.7813 731.0156,313.6875 731.0156,311.9844 L731.0156,310.8906 C731.0156,309.1094 732.2656,307.7969 734,307.7969 C734.5781,307.7969 735.1875,307.9531 735.6563,308.2031 C736.1406,308.4844 736.3125,308.7031 736.4063,309.1094 C736.4688,309.5156 736.5,309.6406 736.6406,309.7656 C736.7813,309.9063 737.0156,310.0156 737.2344,310.0156 C737.5,310.0156 737.7656,309.875 737.9375,309.6563 C738.0469,309.5 738.0781,309.3125 738.0781,308.8906 L738.0781,307.4688 C738.0781,307.0313 738.0625,306.9063 737.9688,306.75 C737.8125,306.4844 737.5313,306.3438 737.2344,306.3438 C736.9375,306.3438 736.7344,306.4375 736.5156,306.75 L736.3438,306.6719 Z " fill="#000000"/><text fill="#000000" font-family="sans-serif" font-size="12" lengthAdjust="spacingAndGlyphs" textLength="49" x="748" y="315.1543">Console</text><line style="stroke:#A80036;stroke-width:1.5;" x1="720" x2="799" y1="327" y2="327"/><line style="stroke:#A80036;stroke-width:1.5;" x1="720" x2="799" y1="335" y2="335"/></a><!--MD5=[c045e12321b83266d36d22b9096c24ea]
class View--><a href="java:usantatecla.mastermind.views.View" target="_top" title="java:usantatecla.mastermind.views.View" xlink:actuate="onRequest" xlink:href="java:usantatecla.mastermind.views.View" xlink:show="new" xlink:title="java:usantatecla.mastermind.views.View" xlink:type="simple"><rect codeLine="10" fill="#FEFECE" filter="url(#fmmopsr4taxrb)" height="112.0234" id="View" style="stroke:#A80036;stroke-width:1.5;" width="318" x="1086.5" y="263"/><ellipse cx="1226.75" cy="279" fill="#ADD1B2" rx="11" ry="11" style="stroke:#A80036;stroke-width:1.0;"/><path d="M1229.0938,274.6719 C1228.1563,274.2344 1227.5625,274.0938 1226.6875,274.0938 C1224.0625,274.0938 1222.0625,276.1719 1222.0625,278.8906 L1222.0625,280.0156 C1222.0625,282.5938 1224.1719,284.4844 1227.0625,284.4844 C1228.2813,284.4844 1229.4375,284.1875 1230.1875,283.6406 C1230.7656,283.2344 1231.0938,282.7813 1231.0938,282.3906 C1231.0938,281.9375 1230.7031,281.5469 1230.2344,281.5469 C1230.0156,281.5469 1229.8125,281.625 1229.625,281.8125 C1229.1719,282.2969 1229.1719,282.2969 1228.9844,282.3906 C1228.5625,282.6563 1227.875,282.7813 1227.1094,282.7813 C1225.0625,282.7813 1223.7656,281.6875 1223.7656,279.9844 L1223.7656,278.8906 C1223.7656,277.1094 1225.0156,275.7969 1226.75,275.7969 C1227.3281,275.7969 1227.9375,275.9531 1228.4063,276.2031 C1228.8906,276.4844 1229.0625,276.7031 1229.1563,277.1094 C1229.2188,277.5156 1229.25,277.6406 1229.3906,277.7656 C1229.5313,277.9063 1229.7656,278.0156 1229.9844,278.0156 C1230.25,278.0156 1230.5156,277.875 1230.6875,277.6563 C1230.7969,277.5 1230.8281,277.3125 1230.8281,276.8906 L1230.8281,275.4688 C1230.8281,275.0313 1230.8125,274.9063 1230.7188,274.75 C1230.5625,274.4844 1230.2813,274.3438 1229.9844,274.3438 C1229.6875,274.3438 1229.4844,274.4375 1229.2656,274.75 L1229.0938,274.6719 Z " fill="#000000"/><text fill="#000000" font-family="sans-serif" font-size="12" lengthAdjust="spacingAndGlyphs" textLength="29" x="1247.25" y="283.1543">View</text><line style="stroke:#A80036;stroke-width:1.5;" x1="1087.5" x2="1403.5" y1="295" y2="295"/><line style="stroke:#A80036;stroke-width:1.5;" x1="1087.5" x2="1403.5" y1="303" y2="303"/><ellipse cx="1097.5" cy="314" fill="#84BE84" rx="3" ry="3" style="stroke:#038048;stroke-width:1.0;"/><text fill="#000000" font-family="sans-serif" font-size="11" lengthAdjust="spacingAndGlyphs" textLength="36" x="1106.5" y="317.2104">View()</text><ellipse cx="1097.5" cy="326.8047" fill="#84BE84" rx="3" ry="3" style="stroke:#038048;stroke-width:1.0;"/><text fill="#000000" font-family="sans-serif" font-size="11" lengthAdjust="spacingAndGlyphs" textLength="292" x="1106.5" y="330.0151">void interact(AcceptorController acceptorController)</text><ellipse cx="1097.5" cy="339.6094" fill="#84BE84" rx="3" ry="3" style="stroke:#038048;stroke-width:1.0;"/><text fill="#000000" font-family="sans-serif" font-size="11" lengthAdjust="spacingAndGlyphs" textLength="225" x="1106.5" y="342.8198">void visit(StartController startController)</text><ellipse cx="1097.5" cy="352.4141" fill="#84BE84" rx="3" ry="3" style="stroke:#038048;stroke-width:1.0;"/><text fill="#000000" font-family="sans-serif" font-size="11" lengthAdjust="spacingAndGlyphs" textLength="220" x="1106.5" y="355.6245">void visit(PlayController playController)</text><ellipse cx="1097.5" cy="365.2188" fill="#84BE84" rx="3" ry="3" style="stroke:#038048;stroke-width:1.0;"/><text fill="#000000" font-family="sans-serif" font-size="11" lengthAdjust="spacingAndGlyphs" textLength="264" x="1106.5" y="368.4292">void visit(ResumeController resumeController)</text></a><!--MD5=[443c52daef265809fdf31be84fc8ae4a]
class StartView--><a href="java:usantatecla.mastermind.views.StartView" target="_top" title="java:usantatecla.mastermind.views.StartView" xlink:actuate="onRequest" xlink:href="java:usantatecla.mastermind.views.StartView" xlink:show="new" xlink:title="java:usantatecla.mastermind.views.StartView" xlink:type="simple"><rect codeLine="55" fill="#FEFECE" filter="url(#fmmopsr4taxrb)" height="60.8047" id="StartView" style="stroke:#A80036;stroke-width:1.5;" width="271" x="806" y="554"/><ellipse cx="908.75" cy="570" fill="#ADD1B2" rx="11" ry="11" style="stroke:#A80036;stroke-width:1.0;"/><path d="M911.0938,565.6719 C910.1563,565.2344 909.5625,565.0938 908.6875,565.0938 C906.0625,565.0938 904.0625,567.1719 904.0625,569.8906 L904.0625,571.0156 C904.0625,573.5938 906.1719,575.4844 909.0625,575.4844 C910.2813,575.4844 911.4375,575.1875 912.1875,574.6406 C912.7656,574.2344 913.0938,573.7813 913.0938,573.3906 C913.0938,572.9375 912.7031,572.5469 912.2344,572.5469 C912.0156,572.5469 911.8125,572.625 911.625,572.8125 C911.1719,573.2969 911.1719,573.2969 910.9844,573.3906 C910.5625,573.6563 909.875,573.7813 909.1094,573.7813 C907.0625,573.7813 905.7656,572.6875 905.7656,570.9844 L905.7656,569.8906 C905.7656,568.1094 907.0156,566.7969 908.75,566.7969 C909.3281,566.7969 909.9375,566.9531 910.4063,567.2031 C910.8906,567.4844 911.0625,567.7031 911.1563,568.1094 C911.2188,568.5156 911.25,568.6406 911.3906,568.7656 C911.5313,568.9063 911.7656,569.0156 911.9844,569.0156 C912.25,569.0156 912.5156,568.875 912.6875,568.6563 C912.7969,568.5 912.8281,568.3125 912.8281,567.8906 L912.8281,566.4688 C912.8281,566.0313 912.8125,565.9063 912.7188,565.75 C912.5625,565.4844 912.2813,565.3438 911.9844,565.3438 C911.6875,565.3438 911.4844,565.4375 911.2656,565.75 L911.0938,565.6719 Z " fill="#000000"/><text fill="#000000" font-family="sans-serif" font-size="12" lengthAdjust="spacingAndGlyphs" textLength="57" x="929.25" y="574.1543">StartView</text><line style="stroke:#A80036;stroke-width:1.5;" x1="807" x2="1076" y1="586" y2="586"/><line style="stroke:#A80036;stroke-width:1.5;" x1="807" x2="1076" y1="594" y2="594"/><polygon fill="#4177AF" points="817,601,813,607,821,607" style="stroke:#1963A0;stroke-width:1.0;"/><text fill="#000000" font-family="sans-serif" font-size="11" lengthAdjust="spacingAndGlyphs" textLength="245" x="826" y="608.2104">void interact(StartController startController)</text></a><!--MD5=[7d098cfea779bb374973991beab6ed3b]
class PlayView--><a href="java:usantatecla.mastermind.views.PlayView" target="_top" title="java:usantatecla.mastermind.views.PlayView" xlink:actuate="onRequest" xlink:href="java:usantatecla.mastermind.views.PlayView" xlink:show="new" xlink:title="java:usantatecla.mastermind.views.PlayView" xlink:type="simple"><rect codeLine="49" fill="#FEFECE" filter="url(#fmmopsr4taxrb)" height="60.8047" id="PlayView" style="stroke:#A80036;stroke-width:1.5;" width="266" x="1112.5" y="554"/><ellipse cx="1215.25" cy="570" fill="#ADD1B2" rx="11" ry="11" style="stroke:#A80036;stroke-width:1.0;"/><path d="M1217.5938,565.6719 C1216.6563,565.2344 1216.0625,565.0938 1215.1875,565.0938 C1212.5625,565.0938 1210.5625,567.1719 1210.5625,569.8906 L1210.5625,571.0156 C1210.5625,573.5938 1212.6719,575.4844 1215.5625,575.4844 C1216.7813,575.4844 1217.9375,575.1875 1218.6875,574.6406 C1219.2656,574.2344 1219.5938,573.7813 1219.5938,573.3906 C1219.5938,572.9375 1219.2031,572.5469 1218.7344,572.5469 C1218.5156,572.5469 1218.3125,572.625 1218.125,572.8125 C1217.6719,573.2969 1217.6719,573.2969 1217.4844,573.3906 C1217.0625,573.6563 1216.375,573.7813 1215.6094,573.7813 C1213.5625,573.7813 1212.2656,572.6875 1212.2656,570.9844 L1212.2656,569.8906 C1212.2656,568.1094 1213.5156,566.7969 1215.25,566.7969 C1215.8281,566.7969 1216.4375,566.9531 1216.9063,567.2031 C1217.3906,567.4844 1217.5625,567.7031 1217.6563,568.1094 C1217.7188,568.5156 1217.75,568.6406 1217.8906,568.7656 C1218.0313,568.9063 1218.2656,569.0156 1218.4844,569.0156 C1218.75,569.0156 1219.0156,568.875 1219.1875,568.6563 C1219.2969,568.5 1219.3281,568.3125 1219.3281,567.8906 L1219.3281,566.4688 C1219.3281,566.0313 1219.3125,565.9063 1219.2188,565.75 C1219.0625,565.4844 1218.7813,565.3438 1218.4844,565.3438 C1218.1875,565.3438 1217.9844,565.4375 1217.7656,565.75 L1217.5938,565.6719 Z " fill="#000000"/><text fill="#000000" font-family="sans-serif" font-size="12" lengthAdjust="spacingAndGlyphs" textLength="52" x="1235.75" y="574.1543">PlayView</text><line style="stroke:#A80036;stroke-width:1.5;" x1="1113.5" x2="1377.5" y1="586" y2="586"/><line style="stroke:#A80036;stroke-width:1.5;" x1="1113.5" x2="1377.5" y1="594" y2="594"/><polygon fill="#4177AF" points="1123.5,601,1119.5,607,1127.5,607" style="stroke:#1963A0;stroke-width:1.0;"/><text fill="#000000" font-family="sans-serif" font-size="11" lengthAdjust="spacingAndGlyphs" textLength="240" x="1132.5" y="608.2104">void interact(PlayController playController)</text></a><!--MD5=[19088a99a8c1f36e582d33ac2f8fc6dd]
class ResumeView--><a href="java:usantatecla.mastermind.views.ResumeView" target="_top" title="java:usantatecla.mastermind.views.ResumeView" xlink:actuate="onRequest" xlink:href="java:usantatecla.mastermind.views.ResumeView" xlink:show="new" xlink:title="java:usantatecla.mastermind.views.ResumeView" xlink:type="simple"><rect codeLine="102" fill="#FEFECE" filter="url(#fmmopsr4taxrb)" height="60.8047" id="ResumeView" style="stroke:#A80036;stroke-width:1.5;" width="310" x="1413.5" y="554"/><ellipse cx="1525.75" cy="570" fill="#ADD1B2" rx="11" ry="11" style="stroke:#A80036;stroke-width:1.0;"/><path d="M1528.0938,565.6719 C1527.1563,565.2344 1526.5625,565.0938 1525.6875,565.0938 C1523.0625,565.0938 1521.0625,567.1719 1521.0625,569.8906 L1521.0625,571.0156 C1521.0625,573.5938 1523.1719,575.4844 1526.0625,575.4844 C1527.2813,575.4844 1528.4375,575.1875 1529.1875,574.6406 C1529.7656,574.2344 1530.0938,573.7813 1530.0938,573.3906 C1530.0938,572.9375 1529.7031,572.5469 1529.2344,572.5469 C1529.0156,572.5469 1528.8125,572.625 1528.625,572.8125 C1528.1719,573.2969 1528.1719,573.2969 1527.9844,573.3906 C1527.5625,573.6563 1526.875,573.7813 1526.1094,573.7813 C1524.0625,573.7813 1522.7656,572.6875 1522.7656,570.9844 L1522.7656,569.8906 C1522.7656,568.1094 1524.0156,566.7969 1525.75,566.7969 C1526.3281,566.7969 1526.9375,566.9531 1527.4063,567.2031 C1527.8906,567.4844 1528.0625,567.7031 1528.1563,568.1094 C1528.2188,568.5156 1528.25,568.6406 1528.3906,568.7656 C1528.5313,568.9063 1528.7656,569.0156 1528.9844,569.0156 C1529.25,569.0156 1529.5156,568.875 1529.6875,568.6563 C1529.7969,568.5 1529.8281,568.3125 1529.8281,567.8906 L1529.8281,566.4688 C1529.8281,566.0313 1529.8125,565.9063 1529.7188,565.75 C1529.5625,565.4844 1529.2813,565.3438 1528.9844,565.3438 C1528.6875,565.3438 1528.4844,565.4375 1528.2656,565.75 L1528.0938,565.6719 Z " fill="#000000"/><text fill="#000000" font-family="sans-serif" font-size="12" lengthAdjust="spacingAndGlyphs" textLength="77" x="1546.25" y="574.1543">ResumeView</text><line style="stroke:#A80036;stroke-width:1.5;" x1="1414.5" x2="1722.5" y1="586" y2="586"/><line style="stroke:#A80036;stroke-width:1.5;" x1="1414.5" x2="1722.5" y1="594" y2="594"/><polygon fill="#4177AF" points="1424.5,601,1420.5,607,1428.5,607" style="stroke:#1963A0;stroke-width:1.0;"/><text fill="#000000" font-family="sans-serif" font-size="11" lengthAdjust="spacingAndGlyphs" textLength="284" x="1433.5" y="608.2104">void interact(ResumeController resumeController)</text></a><!--MD5=[202eb055b61e3635d6abeb6d1809ebdd]
class ControllerVisitor--><a href="java:usantatecla.mastermind.controllers.ControllerVisitor" target="_top" title="java:usantatecla.mastermind.controllers.ControllerVisitor" xlink:actuate="onRequest" xlink:href="java:usantatecla.mastermind.controllers.ControllerVisitor" xlink:show="new" xlink:title="java:usantatecla.mastermind.controllers.ControllerVisitor" xlink:type="simple"><rect codeLine="26" fill="#FEFECE" filter="url(#fmmopsr4taxrb)" height="48" id="ControllerVisitor" style="stroke:#A80036;stroke-width:1.5;" width="127" x="1182" y="39"/><ellipse cx="1197" cy="55" fill="#B4A7E5" rx="11" ry="11" style="stroke:#A80036;stroke-width:1.0;"/><path d="M1197.9531,51.7813 L1199.6719,51.7813 C1200.0625,51.7813 1200.25,51.75 1200.375,51.6719 C1200.6406,51.5156 1200.7813,51.2344 1200.7813,50.9375 C1200.7813,50.6719 1200.6719,50.4063 1200.4375,50.2344 C1200.2656,50.125 1200.125,50.0938 1199.6719,50.0938 L1194.5313,50.0938 C1194.0938,50.0938 1193.9688,50.1094 1193.8125,50.2031 C1193.5625,50.3594 1193.4063,50.6563 1193.4063,50.9375 C1193.4063,51.2188 1193.5469,51.4688 1193.7656,51.6406 C1193.9219,51.75 1194.1094,51.7813 1194.5313,51.7813 L1196.25,51.7813 L1196.25,58.2969 L1194.5313,58.2969 C1194.0938,58.2969 1193.9688,58.3125 1193.8125,58.4219 C1193.5625,58.5781 1193.4063,58.8594 1193.4063,59.1563 C1193.4063,59.4063 1193.5469,59.6719 1193.7656,59.8281 C1193.9219,59.9531 1194.125,60 1194.5313,60 L1199.6719,60 C1200.4219,60 1200.7813,59.7188 1200.7813,59.1563 C1200.7813,58.875 1200.6719,58.625 1200.4375,58.4531 C1200.2656,58.3281 1200.125,58.2969 1199.6719,58.2969 L1197.9531,58.2969 L1197.9531,51.7813 Z " fill="#000000"/><text fill="#000000" font-family="sans-serif" font-size="12" font-style="italic" lengthAdjust="spacingAndGlyphs" textLength="95" x="1211" y="59.1543">ControllerVisitor</text><line style="stroke:#A80036;stroke-width:1.5;" x1="1183" x2="1308" y1="71" y2="71"/><line style="stroke:#A80036;stroke-width:1.5;" x1="1183" x2="1308" y1="79" y2="79"/></a><!--MD5=[a40873b740e53ca026148d30ccb3c321]
class ResultView--><a href="java:usantatecla.mastermind.views.ResultView" target="_top" title="java:usantatecla.mastermind.views.ResultView" xlink:actuate="onRequest" xlink:href="java:usantatecla.mastermind.views.ResultView" xlink:show="new" xlink:title="java:usantatecla.mastermind.views.ResultView" xlink:type="simple"><rect codeLine="29" fill="#FEFECE" filter="url(#fmmopsr4taxrb)" height="86.4141" id="ResultView" style="stroke:#A80036;stroke-width:1.5;" width="168" x="32.5" y="20"/><ellipse cx="79.75" cy="36" fill="#ADD1B2" rx="11" ry="11" style="stroke:#A80036;stroke-width:1.0;"/><path d="M82.0938,31.6719 C81.1563,31.2344 80.5625,31.0938 79.6875,31.0938 C77.0625,31.0938 75.0625,33.1719 75.0625,35.8906 L75.0625,37.0156 C75.0625,39.5938 77.1719,41.4844 80.0625,41.4844 C81.2813,41.4844 82.4375,41.1875 83.1875,40.6406 C83.7656,40.2344 84.0938,39.7813 84.0938,39.3906 C84.0938,38.9375 83.7031,38.5469 83.2344,38.5469 C83.0156,38.5469 82.8125,38.625 82.625,38.8125 C82.1719,39.2969 82.1719,39.2969 81.9844,39.3906 C81.5625,39.6563 80.875,39.7813 80.1094,39.7813 C78.0625,39.7813 76.7656,38.6875 76.7656,36.9844 L76.7656,35.8906 C76.7656,34.1094 78.0156,32.7969 79.75,32.7969 C80.3281,32.7969 80.9375,32.9531 81.4063,33.2031 C81.8906,33.4844 82.0625,33.7031 82.1563,34.1094 C82.2188,34.5156 82.25,34.6406 82.3906,34.7656 C82.5313,34.9063 82.7656,35.0156 82.9844,35.0156 C83.25,35.0156 83.5156,34.875 83.6875,34.6563 C83.7969,34.5 83.8281,34.3125 83.8281,33.8906 L83.8281,32.4688 C83.8281,32.0313 83.8125,31.9063 83.7188,31.75 C83.5625,31.4844 83.2813,31.3438 82.9844,31.3438 C82.6875,31.3438 82.4844,31.4375 82.2656,31.75 L82.0938,31.6719 Z " fill="#000000"/><text fill="#000000" font-family="sans-serif" font-size="12" lengthAdjust="spacingAndGlyphs" textLength="65" x="100.25" y="40.1543">ResultView</text><line style="stroke:#A80036;stroke-width:1.5;" x1="33.5" x2="199.5" y1="52" y2="52"/><rect fill="none" height="6" style="stroke:#C82930;stroke-width:1.0;" width="6" x="40.5" y="60"/><text fill="#000000" font-family="sans-serif" font-size="11" lengthAdjust="spacingAndGlyphs" textLength="71" x="52.5" y="66.2104">Result result</text><line style="stroke:#A80036;stroke-width:1.5;" x1="33.5" x2="199.5" y1="72.8047" y2="72.8047"/><polygon fill="#4177AF" points="43.5,79.8047,39.5,85.8047,47.5,85.8047" style="stroke:#1963A0;stroke-width:1.0;"/><text fill="#000000" font-family="sans-serif" font-size="11" lengthAdjust="spacingAndGlyphs" textLength="142" x="52.5" y="87.0151">ResultView(Result result)</text><polygon fill="#4177AF" points="43.5,92.6094,39.5,98.6094,47.5,98.6094" style="stroke:#1963A0;stroke-width:1.0;"/><text fill="#000000" font-family="sans-serif" font-size="11" lengthAdjust="spacingAndGlyphs" textLength="74" x="52.5" y="99.8198">void writeln()</text></a><!--MD5=[0523615cfa2fa70c8ab764401f29a299]
class ProposedCombinationView--><a href="java:usantatecla.mastermind.views.ProposedCombinationView" target="_top" title="java:usantatecla.mastermind.views.ProposedCombinationView" xlink:actuate="onRequest" xlink:href="java:usantatecla.mastermind.views.ProposedCombinationView" xlink:show="new" xlink:title="java:usantatecla.mastermind.views.ProposedCombinationView" xlink:type="simple"><rect codeLine="34" fill="#FEFECE" filter="url(#fmmopsr4taxrb)" height="112.0234" id="ProposedCombinationView" style="stroke:#A80036;stroke-width:1.5;" width="436" x="235.5" y="7"/><ellipse cx="368.75" cy="23" fill="#ADD1B2" rx="11" ry="11" style="stroke:#A80036;stroke-width:1.0;"/><path d="M371.0938,18.6719 C370.1563,18.2344 369.5625,18.0938 368.6875,18.0938 C366.0625,18.0938 364.0625,20.1719 364.0625,22.8906 L364.0625,24.0156 C364.0625,26.5938 366.1719,28.4844 369.0625,28.4844 C370.2813,28.4844 371.4375,28.1875 372.1875,27.6406 C372.7656,27.2344 373.0938,26.7813 373.0938,26.3906 C373.0938,25.9375 372.7031,25.5469 372.2344,25.5469 C372.0156,25.5469 371.8125,25.625 371.625,25.8125 C371.1719,26.2969 371.1719,26.2969 370.9844,26.3906 C370.5625,26.6563 369.875,26.7813 369.1094,26.7813 C367.0625,26.7813 365.7656,25.6875 365.7656,23.9844 L365.7656,22.8906 C365.7656,21.1094 367.0156,19.7969 368.75,19.7969 C369.3281,19.7969 369.9375,19.9531 370.4063,20.2031 C370.8906,20.4844 371.0625,20.7031 371.1563,21.1094 C371.2188,21.5156 371.25,21.6406 371.3906,21.7656 C371.5313,21.9063 371.7656,22.0156 371.9844,22.0156 C372.25,22.0156 372.5156,21.875 372.6875,21.6563 C372.7969,21.5 372.8281,21.3125 372.8281,20.8906 L372.8281,19.4688 C372.8281,19.0313 372.8125,18.9063 372.7188,18.75 C372.5625,18.4844 372.2813,18.3438 371.9844,18.3438 C371.6875,18.3438 371.4844,18.4375 371.2656,18.75 L371.0938,18.6719 Z " fill="#000000"/><text fill="#000000" font-family="sans-serif" font-size="12" lengthAdjust="spacingAndGlyphs" textLength="161" x="389.25" y="27.1543">ProposedCombinationView</text><line style="stroke:#A80036;stroke-width:1.5;" x1="236.5" x2="670.5" y1="39" y2="39"/><rect fill="none" height="6" style="stroke:#C82930;stroke-width:1.0;" width="6" x="243.5" y="47"/><text fill="#000000" font-family="sans-serif" font-size="11" lengthAdjust="spacingAndGlyphs" textLength="251" x="255.5" y="53.2104">ProposedCombination proposedCombination</text><line style="stroke:#A80036;stroke-width:1.5;" x1="236.5" x2="670.5" y1="59.8047" y2="59.8047"/><polygon fill="#4177AF" points="246.5,66.8047,242.5,72.8047,250.5,72.8047" style="stroke:#1963A0;stroke-width:1.0;"/><text fill="#000000" font-family="sans-serif" font-size="11" lengthAdjust="spacingAndGlyphs" textLength="410" x="255.5" y="74.0151">ProposedCombinationView(ProposedCombination proposedCombination)</text><polygon fill="#4177AF" points="246.5,79.6094,242.5,85.6094,250.5,85.6094" style="stroke:#1963A0;stroke-width:1.0;"/><text fill="#000000" font-family="sans-serif" font-size="11" lengthAdjust="spacingAndGlyphs" textLength="64" x="255.5" y="86.8198">void write()</text><polygon fill="#4177AF" points="246.5,92.4141,242.5,98.4141,250.5,98.4141" style="stroke:#1963A0;stroke-width:1.0;"/><text fill="#000000" font-family="sans-serif" font-size="11" lengthAdjust="spacingAndGlyphs" textLength="62" x="255.5" y="99.6245">void read()</text><ellipse cx="246.5" cy="109.2188" fill="#84BE84" rx="3" ry="3" style="stroke:#038048;stroke-width:1.0;"/><text fill="#000000" font-family="sans-serif" font-size="11" lengthAdjust="spacingAndGlyphs" textLength="284" x="255.5" y="112.4292">ProposedCombination readProposedCombination()</text></a><!--MD5=[b7f7f69dc7a77d994999c0db88617c04]
class RedoCommand--><a href="java:usantatecla.mastermind.views.RedoCommand" target="_top" title="java:usantatecla.mastermind.views.RedoCommand" xlink:actuate="onRequest" xlink:href="java:usantatecla.mastermind.views.RedoCommand" xlink:show="new" xlink:title="java:usantatecla.mastermind.views.RedoCommand" xlink:type="simple"><rect codeLine="41" fill="#FEFECE" filter="url(#fmmopsr4taxrb)" height="86.4141" id="RedoCommand" style="stroke:#A80036;stroke-width:1.5;" width="282" x="1758.5" y="541.5"/><ellipse cx="1849.75" cy="557.5" fill="#ADD1B2" rx="11" ry="11" style="stroke:#A80036;stroke-width:1.0;"/><path d="M1852.0938,553.1719 C1851.1563,552.7344 1850.5625,552.5938 1849.6875,552.5938 C1847.0625,552.5938 1845.0625,554.6719 1845.0625,557.3906 L1845.0625,558.5156 C1845.0625,561.0938 1847.1719,562.9844 1850.0625,562.9844 C1851.2813,562.9844 1852.4375,562.6875 1853.1875,562.1406 C1853.7656,561.7344 1854.0938,561.2813 1854.0938,560.8906 C1854.0938,560.4375 1853.7031,560.0469 1853.2344,560.0469 C1853.0156,560.0469 1852.8125,560.125 1852.625,560.3125 C1852.1719,560.7969 1852.1719,560.7969 1851.9844,560.8906 C1851.5625,561.1563 1850.875,561.2813 1850.1094,561.2813 C1848.0625,561.2813 1846.7656,560.1875 1846.7656,558.4844 L1846.7656,557.3906 C1846.7656,555.6094 1848.0156,554.2969 1849.75,554.2969 C1850.3281,554.2969 1850.9375,554.4531 1851.4063,554.7031 C1851.8906,554.9844 1852.0625,555.2031 1852.1563,555.6094 C1852.2188,556.0156 1852.25,556.1406 1852.3906,556.2656 C1852.5313,556.4063 1852.7656,556.5156 1852.9844,556.5156 C1853.25,556.5156 1853.5156,556.375 1853.6875,556.1563 C1853.7969,556 1853.8281,555.8125 1853.8281,555.3906 L1853.8281,553.9688 C1853.8281,553.5313 1853.8125,553.4063 1853.7188,553.25 C1853.5625,552.9844 1853.2813,552.8438 1852.9844,552.8438 C1852.6875,552.8438 1852.4844,552.9375 1852.2656,553.25 L1852.0938,553.1719 Z " fill="#000000"/><text fill="#000000" font-family="sans-serif" font-size="12" lengthAdjust="spacingAndGlyphs" textLength="91" x="1870.25" y="561.6543">RedoCommand</text><line style="stroke:#A80036;stroke-width:1.5;" x1="1759.5" x2="2039.5" y1="573.5" y2="573.5"/><line style="stroke:#A80036;stroke-width:1.5;" x1="1759.5" x2="2039.5" y1="581.5" y2="581.5"/><polygon fill="#4177AF" points="1769.5,588.5,1765.5,594.5,1773.5,594.5" style="stroke:#1963A0;stroke-width:1.0;"/><text fill="#000000" font-family="sans-serif" font-size="11" lengthAdjust="spacingAndGlyphs" textLength="256" x="1778.5" y="595.7104">RedoCommand(PlayController playController)</text><polygon fill="#FFFF44" points="1769.5,600.3047,1773.5,604.3047,1769.5,608.3047,1765.5,604.3047" style="stroke:#B38D22;stroke-width:1.0;"/><text fill="#000000" font-family="sans-serif" font-size="11" lengthAdjust="spacingAndGlyphs" textLength="84" x="1778.5" y="608.5151">void execute()</text><polygon fill="#FFFF44" points="1769.5,613.1094,1773.5,617.1094,1769.5,621.1094,1765.5,617.1094" style="stroke:#B38D22;stroke-width:1.0;"/><text fill="#000000" font-family="sans-serif" font-size="11" lengthAdjust="spacingAndGlyphs" textLength="103" x="1778.5" y="621.3198">boolean isActive()</text></a><!--MD5=[521817ab83e81da341a3f4b5e91bae41]
class Command--><a href="java:usantatecla.mastermind.views.Command" target="_top" title="java:usantatecla.mastermind.views.Command" xlink:actuate="onRequest" xlink:href="java:usantatecla.mastermind.views.Command" xlink:show="new" xlink:title="java:usantatecla.mastermind.views.Command" xlink:type="simple"><rect codeLine="121" fill="#FEFECE" filter="url(#fmmopsr4taxrb)" height="73.6094" id="Command" style="stroke:#A80036;stroke-width:1.5;" width="319" x="2101" y="282"/><ellipse cx="2226.25" cy="298" fill="#ADD1B2" rx="11" ry="11" style="stroke:#A80036;stroke-width:1.0;"/><path d="M2228.5938,293.6719 C2227.6563,293.2344 2227.0625,293.0938 2226.1875,293.0938 C2223.5625,293.0938 2221.5625,295.1719 2221.5625,297.8906 L2221.5625,299.0156 C2221.5625,301.5938 2223.6719,303.4844 2226.5625,303.4844 C2227.7813,303.4844 2228.9375,303.1875 2229.6875,302.6406 C2230.2656,302.2344 2230.5938,301.7813 2230.5938,301.3906 C2230.5938,300.9375 2230.2031,300.5469 2229.7344,300.5469 C2229.5156,300.5469 2229.3125,300.625 2229.125,300.8125 C2228.6719,301.2969 2228.6719,301.2969 2228.4844,301.3906 C2228.0625,301.6563 2227.375,301.7813 2226.6094,301.7813 C2224.5625,301.7813 2223.2656,300.6875 2223.2656,298.9844 L2223.2656,297.8906 C2223.2656,296.1094 2224.5156,294.7969 2226.25,294.7969 C2226.8281,294.7969 2227.4375,294.9531 2227.9063,295.2031 C2228.3906,295.4844 2228.5625,295.7031 2228.6563,296.1094 C2228.7188,296.5156 2228.75,296.6406 2228.8906,296.7656 C2229.0313,296.9063 2229.2656,297.0156 2229.4844,297.0156 C2229.75,297.0156 2230.0156,296.875 2230.1875,296.6563 C2230.2969,296.5 2230.3281,296.3125 2230.3281,295.8906 L2230.3281,294.4688 C2230.3281,294.0313 2230.3125,293.9063 2230.2188,293.75 C2230.0625,293.4844 2229.7813,293.3438 2229.4844,293.3438 C2229.1875,293.3438 2228.9844,293.4375 2228.7656,293.75 L2228.5938,293.6719 Z " fill="#000000"/><text fill="#000000" font-family="sans-serif" font-size="12" lengthAdjust="spacingAndGlyphs" textLength="60" x="2246.75" y="302.1543">Command</text><line style="stroke:#A80036;stroke-width:1.5;" x1="2102" x2="2419" y1="314" y2="314"/><polygon fill="none" points="2112,320,2116,324,2112,328,2108,324" style="stroke:#B38D22;stroke-width:1.0;"/><text fill="#000000" font-family="sans-serif" font-size="11" lengthAdjust="spacingAndGlyphs" textLength="161" x="2121" y="328.2104">PlayController playController</text><line style="stroke:#A80036;stroke-width:1.5;" x1="2102" x2="2419" y1="334.8047" y2="334.8047"/><polygon fill="#FFFF44" points="2112,340.8047,2116,344.8047,2112,348.8047,2108,344.8047" style="stroke:#B38D22;stroke-width:1.0;"/><text fill="#000000" font-family="sans-serif" font-size="11" lengthAdjust="spacingAndGlyphs" textLength="293" x="2121" y="349.0151">Command(String title, PlayController playController)</text></a><!--MD5=[5d3822d29342fbd355d1b65ea3562ec9]
class GameView--><a href="java:usantatecla.mastermind.views.GameView" target="_top" title="java:usantatecla.mastermind.views.GameView" xlink:actuate="onRequest" xlink:href="java:usantatecla.mastermind.views.GameView" xlink:show="new" xlink:title="java:usantatecla.mastermind.views.GameView" xlink:type="simple"><rect codeLine="52" fill="#FEFECE" filter="url(#fmmopsr4taxrb)" height="60.8047" id="GameView" style="stroke:#A80036;stroke-width:1.5;" width="258" x="706.5" y="32.5"/><ellipse cx="799.25" cy="48.5" fill="#ADD1B2" rx="11" ry="11" style="stroke:#A80036;stroke-width:1.0;"/><path d="M801.5938,44.1719 C800.6563,43.7344 800.0625,43.5938 799.1875,43.5938 C796.5625,43.5938 794.5625,45.6719 794.5625,48.3906 L794.5625,49.5156 C794.5625,52.0938 796.6719,53.9844 799.5625,53.9844 C800.7813,53.9844 801.9375,53.6875 802.6875,53.1406 C803.2656,52.7344 803.5938,52.2813 803.5938,51.8906 C803.5938,51.4375 803.2031,51.0469 802.7344,51.0469 C802.5156,51.0469 802.3125,51.125 802.125,51.3125 C801.6719,51.7969 801.6719,51.7969 801.4844,51.8906 C801.0625,52.1563 800.375,52.2813 799.6094,52.2813 C797.5625,52.2813 796.2656,51.1875 796.2656,49.4844 L796.2656,48.3906 C796.2656,46.6094 797.5156,45.2969 799.25,45.2969 C799.8281,45.2969 800.4375,45.4531 800.9063,45.7031 C801.3906,45.9844 801.5625,46.2031 801.6563,46.6094 C801.7188,47.0156 801.75,47.1406 801.8906,47.2656 C802.0313,47.4063 802.2656,47.5156 802.4844,47.5156 C802.75,47.5156 803.0156,47.375 803.1875,47.1563 C803.2969,47 803.3281,46.8125 803.3281,46.3906 L803.3281,44.9688 C803.3281,44.5313 803.3125,44.4063 803.2188,44.25 C803.0625,43.9844 802.7813,43.8438 802.4844,43.8438 C802.1875,43.8438 801.9844,43.9375 801.7656,44.25 L801.5938,44.1719 Z " fill="#000000"/><text fill="#000000" font-family="sans-serif" font-size="12" lengthAdjust="spacingAndGlyphs" textLength="64" x="819.75" y="52.6543">GameView</text><line style="stroke:#A80036;stroke-width:1.5;" x1="707.5" x2="963.5" y1="64.5" y2="64.5"/><line style="stroke:#A80036;stroke-width:1.5;" x1="707.5" x2="963.5" y1="72.5" y2="72.5"/><polygon fill="#4177AF" points="717.5,79.5,713.5,85.5,721.5,85.5" style="stroke:#1963A0;stroke-width:1.0;"/><text fill="#000000" font-family="sans-serif" font-size="11" lengthAdjust="spacingAndGlyphs" textLength="232" x="726.5" y="86.7104">GameView(PlayController playController)</text></a><!--MD5=[aacfbce9630a8bf1e2ff43596fa67fc6]
class PlayMenu--><a href="java:usantatecla.mastermind.views.PlayMenu" target="_top" title="java:usantatecla.mastermind.views.PlayMenu" xlink:actuate="onRequest" xlink:href="java:usantatecla.mastermind.views.PlayMenu" xlink:show="new" xlink:title="java:usantatecla.mastermind.views.PlayMenu" xlink:type="simple"><rect codeLine="61" fill="#FEFECE" filter="url(#fmmopsr4taxrb)" height="60.8047" id="PlayMenu" style="stroke:#A80036;stroke-width:1.5;" width="249" x="2455" y="288.5"/><ellipse cx="2547.75" cy="304.5" fill="#ADD1B2" rx="11" ry="11" style="stroke:#A80036;stroke-width:1.0;"/><path d="M2550.0938,300.1719 C2549.1563,299.7344 2548.5625,299.5938 2547.6875,299.5938 C2545.0625,299.5938 2543.0625,301.6719 2543.0625,304.3906 L2543.0625,305.5156 C2543.0625,308.0938 2545.1719,309.9844 2548.0625,309.9844 C2549.2813,309.9844 2550.4375,309.6875 2551.1875,309.1406 C2551.7656,308.7344 2552.0938,308.2813 2552.0938,307.8906 C2552.0938,307.4375 2551.7031,307.0469 2551.2344,307.0469 C2551.0156,307.0469 2550.8125,307.125 2550.625,307.3125 C2550.1719,307.7969 2550.1719,307.7969 2549.9844,307.8906 C2549.5625,308.1563 2548.875,308.2813 2548.1094,308.2813 C2546.0625,308.2813 2544.7656,307.1875 2544.7656,305.4844 L2544.7656,304.3906 C2544.7656,302.6094 2546.0156,301.2969 2547.75,301.2969 C2548.3281,301.2969 2548.9375,301.4531 2549.4063,301.7031 C2549.8906,301.9844 2550.0625,302.2031 2550.1563,302.6094 C2550.2188,303.0156 2550.25,303.1406 2550.3906,303.2656 C2550.5313,303.4063 2550.7656,303.5156 2550.9844,303.5156 C2551.25,303.5156 2551.5156,303.375 2551.6875,303.1563 C2551.7969,303 2551.8281,302.8125 2551.8281,302.3906 L2551.8281,300.9688 C2551.8281,300.5313 2551.8125,300.4063 2551.7188,300.25 C2551.5625,299.9844 2551.2813,299.8438 2550.9844,299.8438 C2550.6875,299.8438 2550.4844,299.9375 2550.2656,300.25 L2550.0938,300.1719 Z " fill="#000000"/><text fill="#000000" font-family="sans-serif" font-size="12" lengthAdjust="spacingAndGlyphs" textLength="55" x="2568.25" y="308.6543">PlayMenu</text><line style="stroke:#A80036;stroke-width:1.5;" x1="2456" x2="2703" y1="320.5" y2="320.5"/><line style="stroke:#A80036;stroke-width:1.5;" x1="2456" x2="2703" y1="328.5" y2="328.5"/><polygon fill="#4177AF" points="2466,335.5,2462,341.5,2470,341.5" style="stroke:#1963A0;stroke-width:1.0;"/><text fill="#000000" font-family="sans-serif" font-size="11" lengthAdjust="spacingAndGlyphs" textLength="223" x="2475" y="342.7104">PlayMenu(PlayController playController)</text></a><!--MD5=[f0268dd29ee89052933f031546cb1cab]
class Menu--><a href="java:usantatecla.utils.Menu" target="_top" title="java:usantatecla.utils.Menu" xlink:actuate="onRequest" xlink:href="java:usantatecla.utils.Menu" xlink:show="new" xlink:title="java:usantatecla.utils.Menu" xlink:type="simple"><rect codeLine="64" fill="#FEFECE" filter="url(#fmmopsr4taxrb)" height="48" id="Menu" style="stroke:#A80036;stroke-width:1.5;" width="64" x="2547.5" y="39"/><ellipse cx="2562.5" cy="55" fill="#ADD1B2" rx="11" ry="11" style="stroke:#A80036;stroke-width:1.0;"/><path d="M2564.8438,50.6719 C2563.9063,50.2344 2563.3125,50.0938 2562.4375,50.0938 C2559.8125,50.0938 2557.8125,52.1719 2557.8125,54.8906 L2557.8125,56.0156 C2557.8125,58.5938 2559.9219,60.4844 2562.8125,60.4844 C2564.0313,60.4844 2565.1875,60.1875 2565.9375,59.6406 C2566.5156,59.2344 2566.8438,58.7813 2566.8438,58.3906 C2566.8438,57.9375 2566.4531,57.5469 2565.9844,57.5469 C2565.7656,57.5469 2565.5625,57.625 2565.375,57.8125 C2564.9219,58.2969 2564.9219,58.2969 2564.7344,58.3906 C2564.3125,58.6563 2563.625,58.7813 2562.8594,58.7813 C2560.8125,58.7813 2559.5156,57.6875 2559.5156,55.9844 L2559.5156,54.8906 C2559.5156,53.1094 2560.7656,51.7969 2562.5,51.7969 C2563.0781,51.7969 2563.6875,51.9531 2564.1563,52.2031 C2564.6406,52.4844 2564.8125,52.7031 2564.9063,53.1094 C2564.9688,53.5156 2565,53.6406 2565.1406,53.7656 C2565.2813,53.9063 2565.5156,54.0156 2565.7344,54.0156 C2566,54.0156 2566.2656,53.875 2566.4375,53.6563 C2566.5469,53.5 2566.5781,53.3125 2566.5781,52.8906 L2566.5781,51.4688 C2566.5781,51.0313 2566.5625,50.9063 2566.4688,50.75 C2566.3125,50.4844 2566.0313,50.3438 2565.7344,50.3438 C2565.4375,50.3438 2565.2344,50.4375 2565.0156,50.75 L2564.8438,50.6719 Z " fill="#000000"/><text fill="#000000" font-family="sans-serif" font-size="12" lengthAdjust="spacingAndGlyphs" textLength="32" x="2576.5" y="59.1543">Menu</text><line style="stroke:#A80036;stroke-width:1.5;" x1="2548.5" x2="2610.5" y1="71" y2="71"/><line style="stroke:#A80036;stroke-width:1.5;" x1="2548.5" x2="2610.5" y1="79" y2="79"/></a><!--MD5=[5c0d2bf114541dffca76af5edd55a1b5]
class ColorView--><a href="java:usantatecla.mastermind.views.ColorView" target="_top" title="java:usantatecla.mastermind.views.ColorView" xlink:actuate="onRequest" xlink:href="java:usantatecla.mastermind.views.ColorView" xlink:show="new" xlink:title="java:usantatecla.mastermind.views.ColorView" xlink:type="simple"><rect codeLine="67" fill="#FEFECE" filter="url(#fmmopsr4taxrb)" height="124.8281" id="ColorView" style="stroke:#A80036;stroke-width:1.5;" width="215" x="9" y="256.5"/><ellipse cx="81.75" cy="272.5" fill="#ADD1B2" rx="11" ry="11" style="stroke:#A80036;stroke-width:1.0;"/><path d="M84.0938,268.1719 C83.1563,267.7344 82.5625,267.5938 81.6875,267.5938 C79.0625,267.5938 77.0625,269.6719 77.0625,272.3906 L77.0625,273.5156 C77.0625,276.0938 79.1719,277.9844 82.0625,277.9844 C83.2813,277.9844 84.4375,277.6875 85.1875,277.1406 C85.7656,276.7344 86.0938,276.2813 86.0938,275.8906 C86.0938,275.4375 85.7031,275.0469 85.2344,275.0469 C85.0156,275.0469 84.8125,275.125 84.625,275.3125 C84.1719,275.7969 84.1719,275.7969 83.9844,275.8906 C83.5625,276.1563 82.875,276.2813 82.1094,276.2813 C80.0625,276.2813 78.7656,275.1875 78.7656,273.4844 L78.7656,272.3906 C78.7656,270.6094 80.0156,269.2969 81.75,269.2969 C82.3281,269.2969 82.9375,269.4531 83.4063,269.7031 C83.8906,269.9844 84.0625,270.2031 84.1563,270.6094 C84.2188,271.0156 84.25,271.1406 84.3906,271.2656 C84.5313,271.4063 84.7656,271.5156 84.9844,271.5156 C85.25,271.5156 85.5156,271.375 85.6875,271.1563 C85.7969,271 85.8281,270.8125 85.8281,270.3906 L85.8281,268.9688 C85.8281,268.5313 85.8125,268.4063 85.7188,268.25 C85.5625,267.9844 85.2813,267.8438 84.9844,267.8438 C84.6875,267.8438 84.4844,267.9375 84.2656,268.25 L84.0938,268.1719 Z " fill="#000000"/><text fill="#000000" font-family="sans-serif" font-size="12" lengthAdjust="spacingAndGlyphs" textLength="61" x="102.25" y="276.6543">ColorView</text><line style="stroke:#A80036;stroke-width:1.5;" x1="10" x2="223" y1="288.5" y2="288.5"/><rect fill="none" height="6" style="stroke:#C82930;stroke-width:1.0;" width="6" x="17" y="296.5"/><text fill="#000000" font-family="sans-serif" font-size="11" lengthAdjust="spacingAndGlyphs" text-decoration="underline" textLength="82" x="29" y="302.7104">char[] INITIALS</text><rect fill="none" height="6" style="stroke:#C82930;stroke-width:1.0;" width="6" x="17" y="309.3047"/><text fill="#000000" font-family="sans-serif" font-size="11" lengthAdjust="spacingAndGlyphs" textLength="60" x="29" y="315.5151">Color color</text><line style="stroke:#A80036;stroke-width:1.5;" x1="10" x2="223" y1="322.1094" y2="322.1094"/><polygon fill="#4177AF" points="20,329.1094,16,335.1094,24,335.1094" style="stroke:#1963A0;stroke-width:1.0;"/><text fill="#000000" font-family="sans-serif" font-size="11" lengthAdjust="spacingAndGlyphs" textLength="125" x="29" y="336.3198">ColorView(Color color)</text><ellipse cx="20" cy="345.9141" fill="#84BE84" rx="3" ry="3" style="stroke:#038048;stroke-width:1.0;"/><text fill="#000000" font-family="sans-serif" font-size="11" lengthAdjust="spacingAndGlyphs" text-decoration="underline" textLength="94" x="29" y="349.1245">String allInitials()</text><ellipse cx="20" cy="358.7188" fill="#84BE84" rx="3" ry="3" style="stroke:#038048;stroke-width:1.0;"/><text fill="#000000" font-family="sans-serif" font-size="11" lengthAdjust="spacingAndGlyphs" text-decoration="underline" textLength="189" x="29" y="361.9292">Color getInstance(char character)</text><polygon fill="#4177AF" points="20,367.5234,16,373.5234,24,373.5234" style="stroke:#1963A0;stroke-width:1.0;"/><text fill="#000000" font-family="sans-serif" font-size="11" lengthAdjust="spacingAndGlyphs" textLength="64" x="29" y="374.7339">void write()</text></a><!--MD5=[49feb4884a66ed250f9a27795111a05a]
class MessageView--><a href="java:usantatecla.mastermind.views.MessageView" target="_top" title="java:usantatecla.mastermind.views.MessageView" xlink:actuate="onRequest" xlink:href="java:usantatecla.mastermind.views.MessageView" xlink:show="new" xlink:title="java:usantatecla.mastermind.views.MessageView" xlink:type="simple"><rect codeLine="75" fill="#FEFECE" filter="url(#fmmopsr4taxrb)" height="278.4844" id="MessageView" style="stroke:#A80036;stroke-width:1.5;" width="215" x="259" y="180"/><ellipse cx="320.25" cy="196" fill="#EB937F" rx="11" ry="11" style="stroke:#A80036;stroke-width:1.0;"/><path d="M319.0469,196.875 L320.5,196.875 L320.5,196.9844 C320.5,197.3906 320.5313,197.5469 320.6094,197.7031 C320.7656,197.9531 321.0469,198.1094 321.3438,198.1094 C321.5938,198.1094 321.8594,197.9688 322.0156,197.75 C322.1406,197.5938 322.1719,197.4375 322.1719,196.9844 L322.1719,195.0625 C322.1719,194.9063 322.1719,194.8594 322.1563,194.7031 C322.0938,194.2344 321.7813,193.9219 321.3281,193.9219 C321.0781,193.9219 320.8125,194.0625 320.6406,194.2813 C320.5313,194.4531 320.5,194.6094 320.5,195.0625 L320.5,195.1875 L319.0469,195.1875 L319.0469,192.7813 L323.0313,192.7813 L323.0313,193.6406 C323.0313,194.0469 323.0625,194.2188 323.1406,194.375 C323.3125,194.625 323.5938,194.7813 323.875,194.7813 C324.1406,194.7813 324.4063,194.6406 324.5781,194.4219 C324.6875,194.25 324.7188,194.1094 324.7188,193.6406 L324.7188,191.0938 L317.0938,191.0938 C316.6563,191.0938 316.5313,191.1094 316.375,191.2031 C316.125,191.3594 315.9688,191.6563 315.9688,191.9375 C315.9688,192.2188 316.1094,192.4688 316.3281,192.6406 C316.4844,192.75 316.6719,192.7813 317.0938,192.7813 L317.3438,192.7813 L317.3438,199.2969 L317.0938,199.2969 C316.6875,199.2969 316.5313,199.3125 316.375,199.4219 C316.125,199.5938 315.9688,199.8594 315.9688,200.1563 C315.9688,200.4219 316.1094,200.6719 316.3281,200.8281 C316.4688,200.9531 316.7031,201 317.0938,201 L325.0938,201 L325.0938,198.4219 C325.0938,197.9844 325.0625,197.8438 324.9844,197.6875 C324.8125,197.4375 324.5313,197.2813 324.25,197.2813 C323.9844,197.2813 323.7188,197.3906 323.5469,197.6406 C323.4375,197.7969 323.4063,197.9375 323.4063,198.4219 L323.4063,199.2969 L319.0469,199.2969 L319.0469,196.875 Z " fill="#000000"/><text fill="#000000" font-family="sans-serif" font-size="12" lengthAdjust="spacingAndGlyphs" textLength="84" x="340.75" y="200.1543">MessageView</text><line style="stroke:#A80036;stroke-width:1.5;" x1="260" x2="473" y1="212" y2="212"/><text fill="#000000" font-family="sans-serif" font-size="11" lengthAdjust="spacingAndGlyphs" textLength="59" x="265" y="226.2104">ATTEMPTS</text><text fill="#000000" font-family="sans-serif" font-size="11" lengthAdjust="spacingAndGlyphs" textLength="44" x="265" y="239.0151">SECRET</text><text fill="#000000" font-family="sans-serif" font-size="11" lengthAdjust="spacingAndGlyphs" textLength="67" x="265" y="251.8198">SEPARATOR</text><text fill="#000000" font-family="sans-serif" font-size="11" lengthAdjust="spacingAndGlyphs" textLength="46" x="265" y="264.6245">RESUME</text><text fill="#000000" font-family="sans-serif" font-size="11" lengthAdjust="spacingAndGlyphs" textLength="43" x="265" y="277.4292">RESULT</text><text fill="#000000" font-family="sans-serif" font-size="11" lengthAdjust="spacingAndGlyphs" textLength="147" x="265" y="290.2339">PROPOSED_COMBINATION</text><text fill="#000000" font-family="sans-serif" font-size="11" lengthAdjust="spacingAndGlyphs" textLength="30" x="265" y="303.0386">TITLE</text><text fill="#000000" font-family="sans-serif" font-size="11" lengthAdjust="spacingAndGlyphs" textLength="44" x="265" y="315.8433">WINNER</text><text fill="#000000" font-family="sans-serif" font-size="11" lengthAdjust="spacingAndGlyphs" textLength="46" x="265" y="328.6479">LOOSER</text><text fill="#000000" font-family="sans-serif" font-size="11" lengthAdjust="spacingAndGlyphs" textLength="100" x="265" y="341.4526">UNDO_COMMAND</text><text fill="#000000" font-family="sans-serif" font-size="11" lengthAdjust="spacingAndGlyphs" textLength="98" x="265" y="354.2573">REDO_COMMAND</text><text fill="#000000" font-family="sans-serif" font-size="11" lengthAdjust="spacingAndGlyphs" textLength="53" x="265" y="367.062">message</text><line style="stroke:#A80036;stroke-width:1.5;" x1="260" x2="473" y1="373.6563" y2="373.6563"/><rect fill="#F24D5C" height="6" style="stroke:#C82930;stroke-width:1.0;" width="6" x="267" y="381.6563"/><text fill="#000000" font-family="sans-serif" font-size="11" lengthAdjust="spacingAndGlyphs" textLength="177" x="279" y="387.8667">MessageView(String message)</text><ellipse cx="270" cy="397.4609" fill="#84BE84" rx="3" ry="3" style="stroke:#038048;stroke-width:1.0;"/><text fill="#000000" font-family="sans-serif" font-size="11" lengthAdjust="spacingAndGlyphs" textLength="64" x="279" y="400.6714">void write()</text><ellipse cx="270" cy="410.2656" fill="#84BE84" rx="3" ry="3" style="stroke:#038048;stroke-width:1.0;"/><text fill="#000000" font-family="sans-serif" font-size="11" lengthAdjust="spacingAndGlyphs" textLength="74" x="279" y="413.4761">void writeln()</text><polygon fill="#4177AF" points="270,419.0703,266,425.0703,274,425.0703" style="stroke:#1963A0;stroke-width:1.0;"/><text fill="#000000" font-family="sans-serif" font-size="11" lengthAdjust="spacingAndGlyphs" textLength="143" x="279" y="426.2808">void writeln(int attempts)</text><polygon fill="#4177AF" points="270,431.875,266,437.875,274,437.875" style="stroke:#1963A0;stroke-width:1.0;"/><text fill="#000000" font-family="sans-serif" font-size="11" lengthAdjust="spacingAndGlyphs" textLength="189" x="279" y="439.0854">void writeln(int blacks, int whites)</text><ellipse cx="270" cy="448.6797" fill="#84BE84" rx="3" ry="3" style="stroke:#038048;stroke-width:1.0;"/><text fill="#000000" font-family="sans-serif" font-size="11" lengthAdjust="spacingAndGlyphs" textLength="115" x="279" y="451.8901">String getMessage()</text></a><!--MD5=[22448a64559912295e431ea1c795f0a4]
class usantatecla_utils_Command--><a href="java:usantatecla.utils.Command" target="_top" title="java:usantatecla.utils.Command" xlink:actuate="onRequest" xlink:href="java:usantatecla.utils.Command" xlink:show="new" xlink:title="java:usantatecla.utils.Command" xlink:type="simple"><rect codeLine="99" fill="#FEFECE" filter="url(#fmmopsr4taxrb)" height="48" id="usantatecla_utils_Command" style="stroke:#A80036;stroke-width:1.5;" width="190" x="2165.5" y="39"/><ellipse cx="2180.5" cy="55" fill="#ADD1B2" rx="11" ry="11" style="stroke:#A80036;stroke-width:1.0;"/><path d="M2182.8438,50.6719 C2181.9063,50.2344 2181.3125,50.0938 2180.4375,50.0938 C2177.8125,50.0938 2175.8125,52.1719 2175.8125,54.8906 L2175.8125,56.0156 C2175.8125,58.5938 2177.9219,60.4844 2180.8125,60.4844 C2182.0313,60.4844 2183.1875,60.1875 2183.9375,59.6406 C2184.5156,59.2344 2184.8438,58.7813 2184.8438,58.3906 C2184.8438,57.9375 2184.4531,57.5469 2183.9844,57.5469 C2183.7656,57.5469 2183.5625,57.625 2183.375,57.8125 C2182.9219,58.2969 2182.9219,58.2969 2182.7344,58.3906 C2182.3125,58.6563 2181.625,58.7813 2180.8594,58.7813 C2178.8125,58.7813 2177.5156,57.6875 2177.5156,55.9844 L2177.5156,54.8906 C2177.5156,53.1094 2178.7656,51.7969 2180.5,51.7969 C2181.0781,51.7969 2181.6875,51.9531 2182.1563,52.2031 C2182.6406,52.4844 2182.8125,52.7031 2182.9063,53.1094 C2182.9688,53.5156 2183,53.6406 2183.1406,53.7656 C2183.2813,53.9063 2183.5156,54.0156 2183.7344,54.0156 C2184,54.0156 2184.2656,53.875 2184.4375,53.6563 C2184.5469,53.5 2184.5781,53.3125 2184.5781,52.8906 L2184.5781,51.4688 C2184.5781,51.0313 2184.5625,50.9063 2184.4688,50.75 C2184.3125,50.4844 2184.0313,50.3438 2183.7344,50.3438 C2183.4375,50.3438 2183.2344,50.4375 2183.0156,50.75 L2182.8438,50.6719 Z " fill="#000000"/><text fill="#000000" font-family="sans-serif" font-size="12" lengthAdjust="spacingAndGlyphs" textLength="158" x="2194.5" y="59.1543">usantatecla.utils.Command</text><line style="stroke:#A80036;stroke-width:1.5;" x1="2166.5" x2="2354.5" y1="71" y2="71"/><line style="stroke:#A80036;stroke-width:1.5;" x1="2166.5" x2="2354.5" y1="79" y2="79"/></a><!--MD5=[94936c1138d9bd95716606726ba703b1]
class SecretCombinationView--><a href="java:usantatecla.mastermind.views.SecretCombinationView" target="_top" title="java:usantatecla.mastermind.views.SecretCombinationView" xlink:actuate="onRequest" xlink:href="java:usantatecla.mastermind.views.SecretCombinationView" xlink:show="new" xlink:title="java:usantatecla.mastermind.views.SecretCombinationView" xlink:type="simple"><rect codeLine="105" fill="#FEFECE" filter="url(#fmmopsr4taxrb)" height="60.8047" id="SecretCombinationView" style="stroke:#A80036;stroke-width:1.5;" width="175" x="509" y="288.5"/><ellipse cx="524" cy="304.5" fill="#ADD1B2" rx="11" ry="11" style="stroke:#A80036;stroke-width:1.0;"/><path d="M526.3438,300.1719 C525.4063,299.7344 524.8125,299.5938 523.9375,299.5938 C521.3125,299.5938 519.3125,301.6719 519.3125,304.3906 L519.3125,305.5156 C519.3125,308.0938 521.4219,309.9844 524.3125,309.9844 C525.5313,309.9844 526.6875,309.6875 527.4375,309.1406 C528.0156,308.7344 528.3438,308.2813 528.3438,307.8906 C528.3438,307.4375 527.9531,307.0469 527.4844,307.0469 C527.2656,307.0469 527.0625,307.125 526.875,307.3125 C526.4219,307.7969 526.4219,307.7969 526.2344,307.8906 C525.8125,308.1563 525.125,308.2813 524.3594,308.2813 C522.3125,308.2813 521.0156,307.1875 521.0156,305.4844 L521.0156,304.3906 C521.0156,302.6094 522.2656,301.2969 524,301.2969 C524.5781,301.2969 525.1875,301.4531 525.6563,301.7031 C526.1406,301.9844 526.3125,302.2031 526.4063,302.6094 C526.4688,303.0156 526.5,303.1406 526.6406,303.2656 C526.7813,303.4063 527.0156,303.5156 527.2344,303.5156 C527.5,303.5156 527.7656,303.375 527.9375,303.1563 C528.0469,303 528.0781,302.8125 528.0781,302.3906 L528.0781,300.9688 C528.0781,300.5313 528.0625,300.4063 527.9688,300.25 C527.8125,299.9844 527.5313,299.8438 527.2344,299.8438 C526.9375,299.8438 526.7344,299.9375 526.5156,300.25 L526.3438,300.1719 Z " fill="#000000"/><text fill="#000000" font-family="sans-serif" font-size="12" lengthAdjust="spacingAndGlyphs" textLength="143" x="538" y="308.6543">SecretCombinationView</text><line style="stroke:#A80036;stroke-width:1.5;" x1="510" x2="683" y1="320.5" y2="320.5"/><line style="stroke:#A80036;stroke-width:1.5;" x1="510" x2="683" y1="328.5" y2="328.5"/><polygon fill="#4177AF" points="520,335.5,516,341.5,524,341.5" style="stroke:#1963A0;stroke-width:1.0;"/><text fill="#000000" font-family="sans-serif" font-size="11" lengthAdjust="spacingAndGlyphs" textLength="74" x="529" y="342.7104">void writeln()</text></a><!--MD5=[7aa4ef1fbacb7b9878b58563925df344]
class ProposeCombinationCommand--><a href="java:usantatecla.mastermind.views.ProposeCombinationCommand" target="_top" title="java:usantatecla.mastermind.views.ProposeCombinationCommand" xlink:actuate="onRequest" xlink:href="java:usantatecla.mastermind.views.ProposeCombinationCommand" xlink:show="new" xlink:title="java:usantatecla.mastermind.views.ProposeCombinationCommand" xlink:type="simple"><rect codeLine="108" fill="#FEFECE" filter="url(#fmmopsr4taxrb)" height="86.4141" id="ProposeCombinationCommand" style="stroke:#A80036;stroke-width:1.5;" width="369" x="2076" y="541.5"/><ellipse cx="2164.25" cy="557.5" fill="#ADD1B2" rx="11" ry="11" style="stroke:#A80036;stroke-width:1.0;"/><path d="M2166.5938,553.1719 C2165.6563,552.7344 2165.0625,552.5938 2164.1875,552.5938 C2161.5625,552.5938 2159.5625,554.6719 2159.5625,557.3906 L2159.5625,558.5156 C2159.5625,561.0938 2161.6719,562.9844 2164.5625,562.9844 C2165.7813,562.9844 2166.9375,562.6875 2167.6875,562.1406 C2168.2656,561.7344 2168.5938,561.2813 2168.5938,560.8906 C2168.5938,560.4375 2168.2031,560.0469 2167.7344,560.0469 C2167.5156,560.0469 2167.3125,560.125 2167.125,560.3125 C2166.6719,560.7969 2166.6719,560.7969 2166.4844,560.8906 C2166.0625,561.1563 2165.375,561.2813 2164.6094,561.2813 C2162.5625,561.2813 2161.2656,560.1875 2161.2656,558.4844 L2161.2656,557.3906 C2161.2656,555.6094 2162.5156,554.2969 2164.25,554.2969 C2164.8281,554.2969 2165.4375,554.4531 2165.9063,554.7031 C2166.3906,554.9844 2166.5625,555.2031 2166.6563,555.6094 C2166.7188,556.0156 2166.75,556.1406 2166.8906,556.2656 C2167.0313,556.4063 2167.2656,556.5156 2167.4844,556.5156 C2167.75,556.5156 2168.0156,556.375 2168.1875,556.1563 C2168.2969,556 2168.3281,555.8125 2168.3281,555.3906 L2168.3281,553.9688 C2168.3281,553.5313 2168.3125,553.4063 2168.2188,553.25 C2168.0625,552.9844 2167.7813,552.8438 2167.4844,552.8438 C2167.1875,552.8438 2166.9844,552.9375 2166.7656,553.25 L2166.5938,553.1719 Z " fill="#000000"/><text fill="#000000" font-family="sans-serif" font-size="12" lengthAdjust="spacingAndGlyphs" textLength="184" x="2184.75" y="561.6543">ProposeCombinationCommand</text><line style="stroke:#A80036;stroke-width:1.5;" x1="2077" x2="2444" y1="573.5" y2="573.5"/><line style="stroke:#A80036;stroke-width:1.5;" x1="2077" x2="2444" y1="581.5" y2="581.5"/><polygon fill="#4177AF" points="2087,588.5,2083,594.5,2091,594.5" style="stroke:#1963A0;stroke-width:1.0;"/><text fill="#000000" font-family="sans-serif" font-size="11" lengthAdjust="spacingAndGlyphs" textLength="343" x="2096" y="595.7104">ProposeCombinationCommand(PlayController playController)</text><polygon fill="#FFFF44" points="2087,600.3047,2091,604.3047,2087,608.3047,2083,604.3047" style="stroke:#B38D22;stroke-width:1.0;"/><text fill="#000000" font-family="sans-serif" font-size="11" lengthAdjust="spacingAndGlyphs" textLength="84" x="2096" y="608.5151">void execute()</text><polygon fill="#FFFF44" points="2087,613.1094,2091,617.1094,2087,621.1094,2083,617.1094" style="stroke:#B38D22;stroke-width:1.0;"/><text fill="#000000" font-family="sans-serif" font-size="11" lengthAdjust="spacingAndGlyphs" textLength="103" x="2096" y="621.3198">boolean isActive()</text></a><!--MD5=[74b8563e5f08ffa68154868b9ae405e2]
class UndoCommand--><a href="java:usantatecla.mastermind.views.UndoCommand" target="_top" title="java:usantatecla.mastermind.views.UndoCommand" xlink:actuate="onRequest" xlink:href="java:usantatecla.mastermind.views.UndoCommand" xlink:show="new" xlink:title="java:usantatecla.mastermind.views.UndoCommand" xlink:type="simple"><rect codeLine="116" fill="#FEFECE" filter="url(#fmmopsr4taxrb)" height="86.4141" id="UndoCommand" style="stroke:#A80036;stroke-width:1.5;" width="282" x="2480.5" y="541.5"/><ellipse cx="2571.25" cy="557.5" fill="#ADD1B2" rx="11" ry="11" style="stroke:#A80036;stroke-width:1.0;"/><path d="M2573.5938,553.1719 C2572.6563,552.7344 2572.0625,552.5938 2571.1875,552.5938 C2568.5625,552.5938 2566.5625,554.6719 2566.5625,557.3906 L2566.5625,558.5156 C2566.5625,561.0938 2568.6719,562.9844 2571.5625,562.9844 C2572.7813,562.9844 2573.9375,562.6875 2574.6875,562.1406 C2575.2656,561.7344 2575.5938,561.2813 2575.5938,560.8906 C2575.5938,560.4375 2575.2031,560.0469 2574.7344,560.0469 C2574.5156,560.0469 2574.3125,560.125 2574.125,560.3125 C2573.6719,560.7969 2573.6719,560.7969 2573.4844,560.8906 C2573.0625,561.1563 2572.375,561.2813 2571.6094,561.2813 C2569.5625,561.2813 2568.2656,560.1875 2568.2656,558.4844 L2568.2656,557.3906 C2568.2656,555.6094 2569.5156,554.2969 2571.25,554.2969 C2571.8281,554.2969 2572.4375,554.4531 2572.9063,554.7031 C2573.3906,554.9844 2573.5625,555.2031 2573.6563,555.6094 C2573.7188,556.0156 2573.75,556.1406 2573.8906,556.2656 C2574.0313,556.4063 2574.2656,556.5156 2574.4844,556.5156 C2574.75,556.5156 2575.0156,556.375 2575.1875,556.1563 C2575.2969,556 2575.3281,555.8125 2575.3281,555.3906 L2575.3281,553.9688 C2575.3281,553.5313 2575.3125,553.4063 2575.2188,553.25 C2575.0625,552.9844 2574.7813,552.8438 2574.4844,552.8438 C2574.1875,552.8438 2573.9844,552.9375 2573.7656,553.25 L2573.5938,553.1719 Z " fill="#000000"/><text fill="#000000" font-family="sans-serif" font-size="12" lengthAdjust="spacingAndGlyphs" textLength="92" x="2591.75" y="561.6543">UndoCommand</text><line style="stroke:#A80036;stroke-width:1.5;" x1="2481.5" x2="2761.5" y1="573.5" y2="573.5"/><line style="stroke:#A80036;stroke-width:1.5;" x1="2481.5" x2="2761.5" y1="581.5" y2="581.5"/><polygon fill="#4177AF" points="2491.5,588.5,2487.5,594.5,2495.5,594.5" style="stroke:#1963A0;stroke-width:1.0;"/><text fill="#000000" font-family="sans-serif" font-size="11" lengthAdjust="spacingAndGlyphs" textLength="256" x="2500.5" y="595.7104">UndoCommand(PlayController playController)</text><polygon fill="#FFFF44" points="2491.5,600.3047,2495.5,604.3047,2491.5,608.3047,2487.5,604.3047" style="stroke:#B38D22;stroke-width:1.0;"/><text fill="#000000" font-family="sans-serif" font-size="11" lengthAdjust="spacingAndGlyphs" textLength="84" x="2500.5" y="608.5151">void execute()</text><polygon fill="#FFFF44" points="2491.5,613.1094,2495.5,617.1094,2491.5,621.1094,2487.5,617.1094" style="stroke:#B38D22;stroke-width:1.0;"/><text fill="#000000" font-family="sans-serif" font-size="11" lengthAdjust="spacingAndGlyphs" textLength="103" x="2500.5" y="621.3198">boolean isActive()</text></a><!--MD5=[7cc7028e6c17bcc221fe9395b63847e1]
reverse link Console to ErrorView--><path codeLine="9" d="M749.508,363.162 C738.59,410.325 721.139,485.707 709.748,534.911 " fill="none" id="Console-backto-ErrorView" style="stroke:#A80036;stroke-width:1.0;"/><polygon fill="none" points="742.756,361.29,754.087,343.384,756.396,364.447,742.756,361.29" style="stroke:#A80036;stroke-width:1.0;"/><!--MD5=[15ce01b34c29fdca6fa627773e8f9e80]
link View to StartView--><path codeLine="19" d="M1181.77,375.238 C1120.68,428.187 1030.49,506.366 979.766,550.3321 " fill="none" id="View-to-StartView" style="stroke:#A80036;stroke-width:1.0;"/><polygon fill="#A80036" points="975.883,553.6976,985.304,550.8263,979.6616,550.4231,980.0648,544.7806,975.883,553.6976" style="stroke:#A80036;stroke-width:1.0;"/><text fill="#000000" font-family="sans-serif" font-size="13" lengthAdjust="spacingAndGlyphs" textLength="61" x="1050.5" y="501.0669">startView</text><text fill="#000000" font-family="sans-serif" font-size="13" lengthAdjust="spacingAndGlyphs" textLength="8" x="974.1495" y="542.8985">1</text><!--MD5=[4ea51f27d9e550af62ffdb204333193c]
link View to PlayView--><path codeLine="22" d="M1245.5,375.238 C1245.5,427.444 1245.5,504.178 1245.5,548.4618 " fill="none" id="View-to-PlayView" style="stroke:#A80036;stroke-width:1.0;"/><polygon fill="#A80036" points="1245.5,553.6976,1249.5,544.6976,1245.5,548.6976,1241.5,544.6976,1245.5,553.6976" style="stroke:#A80036;stroke-width:1.0;"/><text fill="#000000" font-family="sans-serif" font-size="13" lengthAdjust="spacingAndGlyphs" textLength="58" x="1246.5" y="501.0669">playView</text><text fill="#000000" font-family="sans-serif" font-size="13" lengthAdjust="spacingAndGlyphs" textLength="8" x="1236.675" y="542.8985">1</text><!--MD5=[133041ae27f6e8a9b7b7e2b7786da445]
link View to ResumeView--><path codeLine="25" d="M1313.21,375.238 C1378.12,428.187 1473.95,506.366 1527.84,550.3321 " fill="none" id="View-to-ResumeView" style="stroke:#A80036;stroke-width:1.0;"/><polygon fill="#A80036" points="1531.97,553.6976,1527.5199,544.9115,1528.0939,550.5391,1522.4663,551.1132,1531.97,553.6976" style="stroke:#A80036;stroke-width:1.0;"/><text fill="#000000" font-family="sans-serif" font-size="13" lengthAdjust="spacingAndGlyphs" textLength="80" x="1465.5" y="501.0669">resumeView</text><text fill="#000000" font-family="sans-serif" font-size="13" lengthAdjust="spacingAndGlyphs" textLength="8" x="1515.6107" y="542.8985">1</text><!--MD5=[f165b4dc51fb23ae2f8abee7a18efa47]
reverse link ControllerVisitor to View--><path codeLine="28" d="M1245.5,107.604 C1245.5,150.565 1245.5,216.349 1245.5,262.905 " fill="none" id="ControllerVisitor-backto-View" style="stroke:#A80036;stroke-width:1.0;stroke-dasharray:7.0,7.0;"/><polygon fill="none" points="1238.5,107.44,1245.5,87.44,1252.5,107.44,1238.5,107.44" style="stroke:#A80036;stroke-width:1.0;"/><!--MD5=[0350d01867a02733e95625c39ef75c31]
reverse link Command to RedoCommand--><path codeLine="48" d="M2194.65,368.066 C2126.78,417.602 2022.02,494.069 1957.28,541.3274 " fill="none" id="Command-backto-RedoCommand" style="stroke:#A80036;stroke-width:1.0;"/><polygon fill="none" points="2190.78,362.223,2211.06,356.086,2199.03,373.531,2190.78,362.223" style="stroke:#A80036;stroke-width:1.0;"/><!--MD5=[a46570c06ce61f79c56d98b4e35f2bfa]
reverse link Console to StartView--><path codeLine="60" d="M787.221,360.134 C824.041,413.442 888.233,506.38 920.994,553.8113 " fill="none" id="Console-backto-StartView" style="stroke:#A80036;stroke-width:1.0;"/><polygon fill="none" points="781.258,363.818,775.651,343.384,792.777,355.862,781.258,363.818" style="stroke:#A80036;stroke-width:1.0;"/><!--MD5=[5b4429eb42e8d9b342bf0a2c99de25b7]
reverse link Menu to PlayMenu--><path codeLine="66" d="M2579.5,107.659 C2579.5,159.308 2579.5,243.886 2579.5,288.428 " fill="none" id="Menu-backto-PlayMenu" style="stroke:#A80036;stroke-width:1.0;"/><polygon fill="none" points="2572.5,107.44,2579.5,87.44,2586.5,107.44,2572.5,107.44" style="stroke:#A80036;stroke-width:1.0;"/><!--MD5=[3d90926eeb094d64716672e20a6f1239]
reverse link usantatecla_utils_Command to Command--><path codeLine="101" d="M2260.5,107.701 C2260.5,156.849 2260.5,235.775 2260.5,281.676 " fill="none" id="usantatecla_utils_Command-backto-Command" style="stroke:#A80036;stroke-width:1.0;"/><polygon fill="none" points="2253.5,107.44,2260.5,87.44,2267.5,107.44,2253.5,107.44" style="stroke:#A80036;stroke-width:1.0;"/><!--MD5=[575f7520dfbab66d681f7cfc6d8080ea]
reverse link Command to ProposeCombinationCommand--><path codeLine="115" d="M2260.5,376.155 C2260.5,425.62 2260.5,496.572 2260.5,541.3274 " fill="none" id="Command-backto-ProposeCombinationCommand" style="stroke:#A80036;stroke-width:1.0;"/><polygon fill="none" points="2253.5,376.086,2260.5,356.086,2267.5,376.086,2253.5,376.086" style="stroke:#A80036;stroke-width:1.0;"/><!--MD5=[3fd1dfb99e3d09b0593597e8711335a6]
reverse link Command to UndoCommand--><path codeLine="123" d="M2321.17,368.846 C2355.01,395.693 2398.14,429.28 2437.5,458 C2476.86,486.72 2522.05,517.57 2557.79,541.4974 " fill="none" id="Command-backto-UndoCommand" style="stroke:#A80036;stroke-width:1.0;"/><polygon fill="none" points="2316.65,374.194,2305.37,356.258,2325.37,363.242,2316.65,374.194" style="stroke:#A80036;stroke-width:1.0;"/><!--MD5=[43c4d51c45de04fc571809a905e7a1d0]
link ResultView to ProposedCombinationView--><!--MD5=[c23d68e8c12b91728c5dee9756948c8a]
link ProposedCombinationView to GameView--><!--MD5=[9827a442f7d198d3b63d115c40bd236d]
link ResultView to ColorView--><!--MD5=[ab0600979073a60d2455b9112ede3cf1]
link ColorView to MessageView--><!--MD5=[d21c50745e21b2fe84d8378a05efb8ee]
link MessageView to SecretCombinationView--><!--MD5=[79d9e864753ed72eeb57cb0d241a3c48]
@startuml
class ErrorView [[java:usantatecla.mastermind.views.ErrorView]] {
	+{static}String[] MESSAGES
	#Error error
	~ErrorView(Error error)
	+void writeln()
}
class Console [[java:usantatecla.utils.Console]] {
}
Console <|- - ErrorView
class View [[java:usantatecla.mastermind.views.View]] {
	+View()
	+void interact(AcceptorController acceptorController)
	+void visit(StartController startController)
	+void visit(PlayController playController)
	+void visit(ResumeController resumeController)
}
class StartView [[java:usantatecla.mastermind.views.StartView]] {
}
View - -> "1" StartView : startView
class PlayView [[java:usantatecla.mastermind.views.PlayView]] {
}
View - -> "1" PlayView : playView
class ResumeView [[java:usantatecla.mastermind.views.ResumeView]] {
}
View - -> "1" ResumeView : resumeView
interface ControllerVisitor [[java:usantatecla.mastermind.controllers.ControllerVisitor]] {
}
ControllerVisitor <|.. View
class ResultView [[java:usantatecla.mastermind.views.ResultView]] {
	-Result result
	~ResultView(Result result)
	~void writeln()
}
class ProposedCombinationView [[java:usantatecla.mastermind.views.ProposedCombinationView]] {
	-ProposedCombination proposedCombination
	~ProposedCombinationView(ProposedCombination proposedCombination)
	~void write()
	~void read()
	+ProposedCombination readProposedCombination()
}
class RedoCommand [[java:usantatecla.mastermind.views.RedoCommand]] {
	~RedoCommand(PlayController playController)
	#void execute()
	#boolean isActive()
}
class Command [[java:usantatecla.mastermind.views.Command]] {
}
Command <|- - RedoCommand
class PlayView [[java:usantatecla.mastermind.views.PlayView]] {
	~void interact(PlayController playController)
}
class GameView [[java:usantatecla.mastermind.views.GameView]] {
	~GameView(PlayController playController)
}
class StartView [[java:usantatecla.mastermind.views.StartView]] {
	~void interact(StartController startController)
}
class Console [[java:usantatecla.utils.Console]] {
}
Console <|- - StartView
class PlayMenu [[java:usantatecla.mastermind.views.PlayMenu]] {
	~PlayMenu(PlayController playController)
}
class Menu [[java:usantatecla.utils.Menu]] {
}
Menu <|- - PlayMenu
class ColorView [[java:usantatecla.mastermind.views.ColorView]] {
	-{static}char[] INITIALS
	-Color color
	~ColorView(Color color)
	+{static}String allInitials()
	+{static}Color getInstance(char character)
	~void write()
}
enum MessageView [[java:usantatecla.mastermind.views.MessageView]] {
	ATTEMPTS
	SECRET
	SEPARATOR
	RESUME
	RESULT
	PROPOSED_COMBINATION
	TITLE
	WINNER
	LOOSER
	UNDO_COMMAND
	REDO_COMMAND
	message
	-MessageView(String message)
	+void write()
	+void writeln()
	~void writeln(int attempts)
	~void writeln(int blacks, int whites)
	+String getMessage()
}
abstract class Command [[java:usantatecla.mastermind.views.Command]] {
	#PlayController playController
	#Command(String title, PlayController playController)
}
class "usantatecla.utils.Command" as usantatecla_utils_Command [[java:usantatecla.utils.Command]] {
}
usantatecla_utils_Command <|- - Command
class ResumeView [[java:usantatecla.mastermind.views.ResumeView]] {
	~void interact(ResumeController resumeController)
}
class SecretCombinationView [[java:usantatecla.mastermind.views.SecretCombinationView]] {
	~void writeln()
}
class ProposeCombinationCommand [[java:usantatecla.mastermind.views.ProposeCombinationCommand]] {
	~ProposeCombinationCommand(PlayController playController)
	#void execute()
	#boolean isActive()
}
class Command [[java:usantatecla.mastermind.views.Command]] {
}
Command <|- - ProposeCombinationCommand
class UndoCommand [[java:usantatecla.mastermind.views.UndoCommand]] {
	~UndoCommand(PlayController playController)
	#void execute()
	#boolean isActive()
}
class Command [[java:usantatecla.mastermind.views.Command]] {
}
Command <|- - UndoCommand
@enduml

PlantUML version 1.2020.22(Sun Dec 06 09:36:27 UTC 2020)
(GPL source distribution)
Java Runtime: Java(TM) SE Runtime Environment
JVM: Java HotSpot(TM) 64-Bit Server VM
Default Encoding: UTF-8
Language: en
Country: US
--></g></svg>