<?xml version="1.0" encoding="UTF-8" standalone="no"?><svg xmlns="http://www.w3.org/2000/svg" xmlns:xlink="http://www.w3.org/1999/xlink" contentScriptType="application/ecmascript" contentStyleType="text/css" height="266px" preserveAspectRatio="none" style="width:192px;height:266px;" version="1.1" viewBox="0 0 192 266" width="192px" zoomAndPan="magnify"><defs><filter height="300%" id="fla608ijskh24" width="300%" x="-1" y="-1"><feGaussianBlur result="blurOut" stdDeviation="2.0"/><feColorMatrix in="blurOut" result="blurOut2" type="matrix" values="0 0 0 0 0 0 0 0 0 0 0 0 0 0 0 0 0 0 .4 0"/><feOffset dx="4.0" dy="4.0" in="blurOut2" result="blurOut3"/><feBlend in="SourceGraphic" in2="blurOut3" mode="normal"/></filter></defs><g><!--MD5=[7283a9eed84464550b6d5ebf39c68b05]
class Mastermind--><a href="java:usantatecla.mastermind.Mastermind" target="_top" title="java:usantatecla.mastermind.Mastermind" xlink:actuate="onRequest" xlink:href="java:usantatecla.mastermind.Mastermind" xlink:show="new" xlink:title="java:usantatecla.mastermind.Mastermind" xlink:type="simple"><rect codeLine="12" fill="#FEFECE" filter="url(#fla608ijskh24)" height="112.0234" id="Mastermind" style="stroke:#A80036;stroke-width:1.5;" width="132" x="27.5" y="7"/><ellipse cx="56" cy="23" fill="#ADD1B2" rx="11" ry="11" style="stroke:#A80036;stroke-width:1.0;"/><path d="M58.3438,18.6719 C57.4063,18.2344 56.8125,18.0938 55.9375,18.0938 C53.3125,18.0938 51.3125,20.1719 51.3125,22.8906 L51.3125,24.0156 C51.3125,26.5938 53.4219,28.4844 56.3125,28.4844 C57.5313,28.4844 58.6875,28.1875 59.4375,27.6406 C60.0156,27.2344 60.3438,26.7813 60.3438,26.3906 C60.3438,25.9375 59.9531,25.5469 59.4844,25.5469 C59.2656,25.5469 59.0625,25.625 58.875,25.8125 C58.4219,26.2969 58.4219,26.2969 58.2344,26.3906 C57.8125,26.6563 57.125,26.7813 56.3594,26.7813 C54.3125,26.7813 53.0156,25.6875 53.0156,23.9844 L53.0156,22.8906 C53.0156,21.1094 54.2656,19.7969 56,19.7969 C56.5781,19.7969 57.1875,19.9531 57.6563,20.2031 C58.1406,20.4844 58.3125,20.7031 58.4063,21.1094 C58.4688,21.5156 58.5,21.6406 58.6406,21.7656 C58.7813,21.9063 59.0156,22.0156 59.2344,22.0156 C59.5,22.0156 59.7656,21.875 59.9375,21.6563 C60.0469,21.5 60.0781,21.3125 60.0781,20.8906 L60.0781,19.4688 C60.0781,19.0313 60.0625,18.9063 59.9688,18.75 C59.8125,18.4844 59.5313,18.3438 59.2344,18.3438 C58.9375,18.3438 58.7344,18.4375 58.5156,18.75 L58.3438,18.6719 Z " fill="#000000"/><text fill="#000000" font-family="sans-serif" font-size="12" lengthAdjust="spacingAndGlyphs" textLength="70" x="73" y="27.1543">Mastermind</text><line style="stroke:#A80036;stroke-width:1.5;" x1="28.5" x2="158.5" y1="39" y2="39"/><rect fill="none" height="6" style="stroke:#C82930;stroke-width:1.0;" width="6" x="35.5" y="47"/><text fill="#000000" font-family="sans-serif" font-size="11" lengthAdjust="spacingAndGlyphs" textLength="59" x="47.5" y="53.2104">Logic logic</text><rect fill="none" height="6" style="stroke:#C82930;stroke-width:1.0;" width="6" x="35.5" y="59.8047"/><text fill="#000000" font-family="sans-serif" font-size="11" lengthAdjust="spacingAndGlyphs" textLength="59" x="47.5" y="66.0151">View view</text><line style="stroke:#A80036;stroke-width:1.5;" x1="28.5" x2="158.5" y1="72.6094" y2="72.6094"/><polygon fill="#FFFF44" points="38.5,78.6094,42.5,82.6094,38.5,86.6094,34.5,82.6094" style="stroke:#B38D22;stroke-width:1.0;"/><text fill="#000000" font-family="sans-serif" font-size="11" lengthAdjust="spacingAndGlyphs" textLength="74" x="47.5" y="86.8198">Mastermind()</text><polygon fill="#FFFF44" points="38.5,91.4141,42.5,95.4141,38.5,99.4141,34.5,95.4141" style="stroke:#B38D22;stroke-width:1.0;"/><text fill="#000000" font-family="sans-serif" font-size="11" font-style="italic" lengthAdjust="spacingAndGlyphs" textLength="106" x="47.5" y="99.6245">Logic createLogic()</text><polygon fill="#FFFF44" points="38.5,104.2188,42.5,108.2188,38.5,112.2188,34.5,108.2188" style="stroke:#B38D22;stroke-width:1.0;"/><text fill="#000000" font-family="sans-serif" font-size="11" lengthAdjust="spacingAndGlyphs" textLength="60" x="47.5" y="112.4292">void play()</text></a><!--MD5=[7f34e2efdb6a8ed88e0a8e5069ed3729]
class MastermindStandalone--><a href="java:usantatecla.mastermind.MastermindStandalone" target="_top" title="java:usantatecla.mastermind.MastermindStandalone" xlink:actuate="onRequest" xlink:href="java:usantatecla.mastermind.MastermindStandalone" xlink:show="new" xlink:title="java:usantatecla.mastermind.MastermindStandalone" xlink:type="simple"><rect codeLine="8" fill="#FEFECE" filter="url(#fla608ijskh24)" height="73.6094" id="MastermindStandalone" style="stroke:#A80036;stroke-width:1.5;" width="169" x="9" y="179"/><ellipse cx="24" cy="195" fill="#ADD1B2" rx="11" ry="11" style="stroke:#A80036;stroke-width:1.0;"/><path d="M26.3438,190.6719 C25.4063,190.2344 24.8125,190.0938 23.9375,190.0938 C21.3125,190.0938 19.3125,192.1719 19.3125,194.8906 L19.3125,196.0156 C19.3125,198.5938 21.4219,200.4844 24.3125,200.4844 C25.5313,200.4844 26.6875,200.1875 27.4375,199.6406 C28.0156,199.2344 28.3438,198.7813 28.3438,198.3906 C28.3438,197.9375 27.9531,197.5469 27.4844,197.5469 C27.2656,197.5469 27.0625,197.625 26.875,197.8125 C26.4219,198.2969 26.4219,198.2969 26.2344,198.3906 C25.8125,198.6563 25.125,198.7813 24.3594,198.7813 C22.3125,198.7813 21.0156,197.6875 21.0156,195.9844 L21.0156,194.8906 C21.0156,193.1094 22.2656,191.7969 24,191.7969 C24.5781,191.7969 25.1875,191.9531 25.6563,192.2031 C26.1406,192.4844 26.3125,192.7031 26.4063,193.1094 C26.4688,193.5156 26.5,193.6406 26.6406,193.7656 C26.7813,193.9063 27.0156,194.0156 27.2344,194.0156 C27.5,194.0156 27.7656,193.875 27.9375,193.6563 C28.0469,193.5 28.0781,193.3125 28.0781,192.8906 L28.0781,191.4688 C28.0781,191.0313 28.0625,190.9063 27.9688,190.75 C27.8125,190.4844 27.5313,190.3438 27.2344,190.3438 C26.9375,190.3438 26.7344,190.4375 26.5156,190.75 L26.3438,190.6719 Z " fill="#000000"/><text fill="#000000" font-family="sans-serif" font-size="12" lengthAdjust="spacingAndGlyphs" textLength="137" x="38" y="199.1543">MastermindStandalone</text><line style="stroke:#A80036;stroke-width:1.5;" x1="10" x2="177" y1="211" y2="211"/><line style="stroke:#A80036;stroke-width:1.5;" x1="10" x2="177" y1="219" y2="219"/><polygon fill="#FFFF44" points="20,225,24,229,20,233,16,229" style="stroke:#B38D22;stroke-width:1.0;"/><text fill="#000000" font-family="sans-serif" font-size="11" lengthAdjust="spacingAndGlyphs" textLength="107" x="29" y="233.2104">Logic createLogic()</text><ellipse cx="20" cy="242.8047" fill="#84BE84" rx="3" ry="3" style="stroke:#038048;stroke-width:1.0;"/><text fill="#000000" font-family="sans-serif" font-size="11" lengthAdjust="spacingAndGlyphs" text-decoration="underline" textLength="133" x="29" y="246.0151">void main(String[] args)</text></a><!--MD5=[8046b5cc531e449bcad5367348db6655]
reverse link Mastermind to MastermindStandalone--><path codeLine="14" d="M93.5,139.838 C93.5,153.4689 93.5,167.0853 93.5,178.9097 " fill="none" id="Mastermind-backto-MastermindStandalone" style="stroke:#A80036;stroke-width:1.0;"/><polygon fill="none" points="86.5001,139.369,93.5,119.369,100.5001,139.369,86.5001,139.369" style="stroke:#A80036;stroke-width:1.0;"/><!--MD5=[01b3178420fc3580b841f7f6825d8357]
@startuml
abstract class Mastermind [[java:usantatecla.mastermind.Mastermind]] {
	-Logic logic
	-View view
	#Mastermind()
	#{abstract}Logic createLogic()
	#void play()
}
class MastermindStandalone [[java:usantatecla.mastermind.MastermindStandalone]] {
	#Logic createLogic()
	+{static}void main(String[] args)
}
class Mastermind [[java:usantatecla.mastermind.Mastermind]] {
}
Mastermind <|- - MastermindStandalone
@enduml

PlantUML version 1.2020.22(Sun Dec 06 09:36:27 UTC 2020)
(GPL source distribution)
Java Runtime: Java(TM) SE Runtime Environment
JVM: Java HotSpot(TM) 64-Bit Server VM
Default Encoding: UTF-8
Language: en
Country: US
--></g></svg>